<?xml version="1.0" encoding="UTF-8"?>
<svg xmlns="http://www.w3.org/2000/svg" xmlns:xlink="http://www.w3.org/1999/xlink" viewBox="0 0 30.57 29.95">
  <defs>
    <style>
      .cls-1 {
        fill: url(#linear-gradient-3);
      }

      .cls-1, .cls-2, .cls-3, .cls-4, .cls-5, .cls-6, .cls-7, .cls-8, .cls-9, .cls-10, .cls-11, .cls-12, .cls-13, .cls-14, .cls-15 {
        mix-blend-mode: multiply;
      }

      .cls-16 {
        fill: url(#radial-gradient-7);
      }

      .cls-17 {
        mask: url(#mask-3);
      }

      .cls-17, .cls-18, .cls-19, .cls-20, .cls-21, .cls-22, .cls-23, .cls-24, .cls-25, .cls-26, .cls-27, .cls-28 {
        fill: none;
      }

      .cls-29, .cls-30 {
        fill: #fff;
      }

      .cls-30, .cls-31, .cls-32, .cls-33, .cls-34, .cls-35, .cls-36, .cls-37, .cls-38, .cls-39, .cls-26, .cls-40, .cls-41, .cls-42 {
        mix-blend-mode: screen;
      }

      .cls-31 {
        fill: url(#linear-gradient-4);
      }

      .cls-43 {
        filter: url(#luminosity-noclip-7);
      }

      .cls-2, .cls-7 {
        fill: #675d4b;
      }

      .cls-2, .cls-44 {
        opacity: .8;
      }

      .cls-32 {
        opacity: .4;
      }

      .cls-32, .cls-37, .cls-15 {
        fill: #c1bbb2;
      }

      .cls-45 {
        filter: url(#luminosity-noclip-5);
      }

      .cls-18 {
        mask: url(#mask-2);
      }

      .cls-46 {
        fill: url(#radial-gradient-8);
      }

      .cls-33, .cls-47 {
        fill: #ffdb7d;
      }

      .cls-33, .cls-14 {
        opacity: .9;
      }

      .cls-34 {
        fill: url(#linear-gradient-6);
      }

      .cls-3 {
        fill: url(#radial-gradient-5);
      }

      .cls-48 {
        fill: #fff5e5;
      }

      .cls-19 {
        mask: url(#mask-1);
      }

      .cls-49 {
        fill: url(#radial-gradient);
      }

      .cls-4 {
        fill: url(#linear-gradient-5);
      }

      .cls-20 {
        mask: url(#mask-5);
      }

      .cls-35, .cls-9 {
        opacity: .2;
      }

      .cls-35, .cls-42 {
        fill: #fcf9e4;
      }

      .cls-5, .cls-6, .cls-9, .cls-11 {
        fill: #d37f0f;
      }

      .cls-5, .cls-8, .cls-37, .cls-39 {
        opacity: .6;
      }

      .cls-50 {
        fill: #ffedd9;
      }

      .cls-51 {
        filter: url(#luminosity-noclip-9);
      }

      .cls-21 {
        mask: url(#mask-9);
      }

      .cls-22 {
        isolation: isolate;
      }

      .cls-36 {
        fill: url(#radial-gradient-10);
      }

      .cls-6 {
        opacity: .3;
      }

      .cls-23 {
        mask: url(#mask-8);
      }

      .cls-7, .cls-40, .cls-15 {
        opacity: .7;
      }

      .cls-8 {
        fill: #897d63;
      }

      .cls-24 {
        mask: url(#mask-6);
      }

      .cls-10 {
        fill: url(#radial-gradient-2);
      }

      .cls-10, .cls-11, .cls-26 {
        opacity: .5;
      }

      .cls-38 {
        fill: url(#radial-gradient-4);
      }

      .cls-39 {
        fill: url(#radial-gradient-6);
      }

      .cls-25 {
        mask: url(#mask);
      }

      .cls-52 {
        filter: url(#luminosity-noclip);
      }

      .cls-40 {
        fill: url(#linear-gradient-8);
      }

      .cls-27 {
        mask: url(#mask-4);
      }

      .cls-12 {
        fill: url(#linear-gradient-7);
      }

      .cls-53 {
        fill: url(#linear-gradient);
      }

      .cls-28 {
        mask: url(#mask-7);
      }

      .cls-41 {
        fill: url(#radial-gradient-11);
      }

      .cls-13 {
        fill: url(#radial-gradient-3);
      }

      .cls-44 {
        fill: url(#radial-gradient-9);
      }

      .cls-14 {
        fill: url(#linear-gradient-2);
      }

      .cls-54 {
        filter: url(#luminosity-noclip-3);
      }

      .cls-42 {
        opacity: .1;
      }
    </style>
    <linearGradient id="linear-gradient" x1="1.3" y1="-7.28" x2="23.05" y2="27.03" gradientUnits="userSpaceOnUse">
      <stop offset=".14" stop-color="#e9c890"/>
      <stop offset=".51" stop-color="#d4a670"/>
      <stop offset="1" stop-color="#a05016"/>
    </linearGradient>
    <radialGradient id="radial-gradient" cx="15.05" cy="14.46" fx="15.05" fy="14.46" r="12.09" gradientUnits="userSpaceOnUse">
      <stop offset="0" stop-color="#fcf9e4"/>
      <stop offset=".9" stop-color="#e9c890"/>
    </radialGradient>
    <linearGradient id="linear-gradient-2" x1="-8.47" y1="-11.19" x2="24.31" y2="24.12" gradientUnits="userSpaceOnUse">
      <stop offset="0" stop-color="#fcf9e4"/>
      <stop offset=".37" stop-color="#e9c890"/>
      <stop offset=".94" stop-color="#d37f0f"/>
    </linearGradient>
    <filter id="luminosity-noclip" x="4.43" y="4.07" width="9.12" height="9.23" color-interpolation-filters="sRGB" filterUnits="userSpaceOnUse">
      <feFlood flood-color="#fff" result="bg"/>
      <feBlend in="SourceGraphic" in2="bg"/>
    </filter>
    <filter id="luminosity-noclip-2" x="4.43" y="-8211.96" width="9.12" height="32766" color-interpolation-filters="sRGB" filterUnits="userSpaceOnUse">
      <feFlood flood-color="#fff" result="bg"/>
      <feBlend in="SourceGraphic" in2="bg"/>
    </filter>
    <mask id="mask-1" x="4.43" y="-8211.96" width="9.12" height="32766" maskUnits="userSpaceOnUse"/>
    <linearGradient id="linear-gradient-3" x1="5.8" y1="5.35" x2="9.79" y2="9.66" gradientUnits="userSpaceOnUse">
      <stop offset=".14" stop-color="#fff"/>
      <stop offset=".96" stop-color="#000"/>
    </linearGradient>
    <mask id="mask" x="4.43" y="4.07" width="9.12" height="9.23" maskUnits="userSpaceOnUse">
      <g class="cls-52">
        <g class="cls-19">
          <path class="cls-1" d="m4.47,12.56c-.15-1.66.09-4.83.22-6.02.13-1.18-.09-1.93,2.28-2.2,2.37-.26,4.08-.31,5.27-.26,1.19.04,1.89.75.61,1.19-1.27.44-5.15,2.66-7.38,7.12-.26.53-.88,1.67-1.01.18Z"/>
        </g>
      </g>
    </mask>
    <linearGradient id="linear-gradient-4" x1="5.8" y1="5.35" x2="9.79" y2="9.66" gradientUnits="userSpaceOnUse">
      <stop offset=".14" stop-color="#fff"/>
      <stop offset=".96" stop-color="#000"/>
    </linearGradient>
    <filter id="luminosity-noclip-3" x="14.14" y="4.02" width="2.78" height=".92" color-interpolation-filters="sRGB" filterUnits="userSpaceOnUse">
      <feFlood flood-color="#fff" result="bg"/>
      <feBlend in="SourceGraphic" in2="bg"/>
    </filter>
    <filter id="luminosity-noclip-4" x="14.14" y="-8211.96" width="2.78" height="32766" color-interpolation-filters="sRGB" filterUnits="userSpaceOnUse">
      <feFlood flood-color="#fff" result="bg"/>
      <feBlend in="SourceGraphic" in2="bg"/>
    </filter>
    <mask id="mask-3" x="14.14" y="-8211.96" width="2.78" height="32766" maskUnits="userSpaceOnUse"/>
    <linearGradient id="linear-gradient-5" x1="13.14" y1="2" x2="17.49" y2="6.61" xlink:href="#linear-gradient-3"/>
    <mask id="mask-2" x="14.14" y="4.02" width="2.78" height=".92" maskUnits="userSpaceOnUse">
      <g class="cls-54">
        <g class="cls-17">
          <path class="cls-4" d="m14.53,4.04c1.45-.04,2.55-.04,2.37.48-.17.53-.57.43-1.62.35-.57-.04-1.06.13-1.1-.13-.04-.26-.15-.69.35-.7Z"/>
        </g>
      </g>
    </mask>
    <linearGradient id="linear-gradient-6" x1="13.14" y1="2" x2="17.49" y2="6.61" xlink:href="#linear-gradient-4"/>
    <radialGradient id="radial-gradient-2" cx="14.62" cy="6.06" fx="14.62" fy="6.06" r="21.62" gradientUnits="userSpaceOnUse">
      <stop offset=".71" stop-color="#fff"/>
      <stop offset=".94" stop-color="#d37f0f"/>
    </radialGradient>
    <filter id="luminosity-noclip-5" x="6.32" y="13.88" width="20.33" height="11.94" color-interpolation-filters="sRGB" filterUnits="userSpaceOnUse">
      <feFlood flood-color="#fff" result="bg"/>
      <feBlend in="SourceGraphic" in2="bg"/>
    </filter>
    <filter id="luminosity-noclip-6" x="6.32" y="-8211.96" width="20.33" height="32766" color-interpolation-filters="sRGB" filterUnits="userSpaceOnUse">
      <feFlood flood-color="#fff" result="bg"/>
      <feBlend in="SourceGraphic" in2="bg"/>
    </filter>
    <mask id="mask-5" x="6.32" y="-8211.96" width="20.33" height="32766" maskUnits="userSpaceOnUse"/>
    <radialGradient id="radial-gradient-3" cx="22" cy="21.22" fx="22" fy="21.22" r="12.05" gradientUnits="userSpaceOnUse">
      <stop offset=".14" stop-color="#fff"/>
      <stop offset=".96" stop-color="#000"/>
    </radialGradient>
    <mask id="mask-4" x="6.32" y="13.88" width="20.33" height="11.94" maskUnits="userSpaceOnUse">
      <g class="cls-45">
        <g class="cls-20">
          <path class="cls-13" d="m9.21,25.05c3.01-.49,11.35.13,13.24-.2,1.89-.34,3.24-.68,3.38-2.7.14-2.03-.13-4.59-.13-5.95s.88-4.59.95.27c.07,4.86-.18,6.51-.27,7.29-.09.79-.41,1.82-3.38,1.82s-5.07.34-8.65.2c-3.58-.13-12.63.47-5.13-.74Z"/>
        </g>
      </g>
    </mask>
    <radialGradient id="radial-gradient-4" cx="22" cy="21.22" fx="22" fy="21.22" r="12.05" gradientUnits="userSpaceOnUse">
      <stop offset=".14" stop-color="#fff"/>
      <stop offset=".96" stop-color="#000"/>
    </radialGradient>
    <filter id="luminosity-noclip-7" x="3.27" y="14.55" width="21.04" height="11.42" color-interpolation-filters="sRGB" filterUnits="userSpaceOnUse">
      <feFlood flood-color="#fff" result="bg"/>
      <feBlend in="SourceGraphic" in2="bg"/>
    </filter>
    <filter id="luminosity-noclip-8" x="3.27" y="-8211.96" width="21.04" height="32766" color-interpolation-filters="sRGB" filterUnits="userSpaceOnUse">
      <feFlood flood-color="#fff" result="bg"/>
      <feBlend in="SourceGraphic" in2="bg"/>
    </filter>
    <mask id="mask-7" x="3.27" y="-8211.96" width="21.04" height="32766" maskUnits="userSpaceOnUse"/>
    <radialGradient id="radial-gradient-5" cx="-382.71" cy="38.37" fx="-382.71" fy="38.37" r="8.33" gradientTransform="translate(-376.77 13.91) rotate(175.54) scale(1 -1)" xlink:href="#radial-gradient-3"/>
    <mask id="mask-6" x="3.27" y="14.55" width="21.04" height="11.42" maskUnits="userSpaceOnUse">
      <g class="cls-43">
        <g class="cls-28">
          <path class="cls-3" d="m21.37,24.33c-3.04-.25-11.3,1.02-13.22.83-1.91-.19-2.96-.5-3.58-2.43-1.11-3.49-.46-4.5-.57-5.85-.1-1.35-.99-4.6-.68.26.31,4.85.69,6.47.84,7.25.15.78.55,1.79,3.51,1.56,2.96-.23,5.08-.06,8.63-.47,3.56-.41,12.63-.51,5.06-1.14Z"/>
        </g>
      </g>
    </mask>
    <radialGradient id="radial-gradient-6" cx="-382.71" cy="38.37" fx="-382.71" fy="38.37" r="8.33" gradientTransform="translate(-376.77 13.91) rotate(175.54) scale(1 -1)" xlink:href="#radial-gradient-4"/>
    <filter id="luminosity-noclip-9" x="18.26" y="2.8" width="8.57" height="17.32" color-interpolation-filters="sRGB" filterUnits="userSpaceOnUse">
      <feFlood flood-color="#fff" result="bg"/>
      <feBlend in="SourceGraphic" in2="bg"/>
    </filter>
    <filter id="luminosity-noclip-10" x="18.26" y="-8211.96" width="8.57" height="32766" color-interpolation-filters="sRGB" filterUnits="userSpaceOnUse">
      <feFlood flood-color="#fff" result="bg"/>
      <feBlend in="SourceGraphic" in2="bg"/>
    </filter>
    <mask id="mask-9" x="18.26" y="-8211.96" width="8.57" height="32766" maskUnits="userSpaceOnUse"/>
    <linearGradient id="linear-gradient-7" x1="28.88" y1="4.01" x2="17.62" y2="17.27" gradientUnits="userSpaceOnUse">
      <stop offset=".04" stop-color="#fff"/>
      <stop offset=".18" stop-color="#fff"/>
      <stop offset=".95" stop-color="#000"/>
    </linearGradient>
    <mask id="mask-8" x="18.26" y="2.8" width="8.57" height="17.32" maskUnits="userSpaceOnUse">
      <g class="cls-51">
        <g class="cls-21">
          <path class="cls-12" d="m18.26,2.8s5.2.43,6.48.5c1.28.07,1.53.92,1.6,4.16.07,3.24.49,12.66.49,12.66,0,0-.15-12.12-.09-13.81.07-1.69.09-3.08-1.6-3.29-1.69-.2-6.89-.22-6.89-.22Z"/>
        </g>
      </g>
    </mask>
    <linearGradient id="linear-gradient-8" x1="28.88" y1="4.01" x2="17.62" y2="17.27" gradientUnits="userSpaceOnUse">
      <stop offset=".04" stop-color="#fdf5f9"/>
      <stop offset=".18" stop-color="#fbd8b4"/>
      <stop offset=".95" stop-color="#e02413"/>
    </linearGradient>
    <radialGradient id="radial-gradient-7" cx="13.63" cy="9.55" fx="13.63" fy="9.55" r="16.63" gradientUnits="userSpaceOnUse">
      <stop offset="0" stop-color="#efede7"/>
      <stop offset=".4" stop-color="#b6a791"/>
      <stop offset="1" stop-color="#6c6150"/>
    </radialGradient>
    <radialGradient id="radial-gradient-8" cx="16.42" cy="2.15" fx="16.42" fy="2.15" r="13.53" xlink:href="#radial-gradient-7"/>
    <radialGradient id="radial-gradient-9" cx="19.88" cy="20.7" fx="19.88" fy="20.7" r="9.31" gradientUnits="userSpaceOnUse">
      <stop offset="0" stop-color="#fff"/>
      <stop offset=".32" stop-color="#b1b1b1"/>
      <stop offset="1" stop-color="#000"/>
    </radialGradient>
    <radialGradient id="radial-gradient-10" cx="17.16" cy="1.2" fx="17.16" fy="1.2" r="10.79" gradientUnits="userSpaceOnUse">
      <stop offset="0" stop-color="#efede7"/>
      <stop offset=".4" stop-color="#b6a791"/>
      <stop offset="1" stop-color="#000"/>
    </radialGradient>
    <radialGradient id="radial-gradient-11" cx="20.33" cy="26.26" fx="20.33" fy="26.26" r="9.8" xlink:href="#radial-gradient-10"/>
  </defs>
  <g class="cls-22">
    <g id="Calque_1" data-name="Calque 1">
      <g>
        <g>
          <path class="cls-53" d="m30.43,5.79c-.13-2.33-.37-4.94-3.13-5.33-1.02-.15-2.07-.12-3.1-.12-1.64,0-3.27-.01-4.9-.06-3.36-.1-6.72-.13-10.08-.16-1.44-.01-2.88-.05-4.32-.02-.96.02-1.92.14-2.79.57-.89.45-1.42,1.31-1.73,2.23-.27.81-.25,1.65-.21,2.49-.1,2.29-.08,4.6-.1,6.88-.02,2.71-.02,5.41-.07,8.12-.03,1.25,0,2.51.1,3.76.08.99.18,2.08.61,3,.71,1.53,2.58,2.57,4.24,2.66,1.55.07,2.98-.07,4.46-.18,1.88-.14,3.39-.09,5.28-.2,2.04-.11,4.08-.19,6.13-.22.97-.02,1.93.02,2.9.05.82.03,1.7.06,2.5-.16.93-.09,1.84-.21,2.53-.92.73-.75.96-1.95,1.09-2.94.18-1.41.29-2.83.34-4.25.06-1.9-.04-3.79.08-5.69.12-2.02.25-4.04.27-6.06.01-1.15,0-2.3-.07-3.45Z"/>
          <path class="cls-11" d="m30.3,4.28c-.51.13-1.02.26-1.52.41-1.11.32-2.26.99-3.45.96-.07,0-.12-.02-.17-.05,0,3.64-.13,7.25-.31,10.89-.09,1.91.67,5.2-1.4,6.33-1.93,1.06-4.56.8-6.69,1-3.18.3-6.36.62-9.54.19-.3,1.81-1.03,3.57-1.18,5.4,0,.13-.01.27-.02.42,1.15-.01,2.25-.11,3.37-.2,1.88-.14,3.39-.09,5.28-.2,2.04-.11,4.08-.19,6.13-.22.97-.02,1.93.02,2.9.05.82.03,1.7.06,2.5-.16.93-.09,1.84-.21,2.53-.92.73-.75.96-1.95,1.09-2.94.18-1.41.29-2.83.34-4.25.06-1.9-.04-3.79.08-5.69.12-2.02.25-4.04.27-6.06.01-1.15,0-2.3-.07-3.45-.03-.5-.06-1.01-.13-1.51Z"/>
          <path class="cls-9" d="m6.7,4.92c3.91.1,7.82-.05,11.72-.33,1.73-.12,3.5-.4,5.24-.35.19,0,.39.01.59.03.18-.55.37-1.1.61-1.65.33-.76.68-1.51,1.02-2.27-.57-.01-1.13,0-1.69,0-1.64,0-3.27-.01-4.9-.06-3.36-.1-6.72-.13-10.08-.16-1.32-.01-2.64-.05-3.97-.03.33,1.02.71,2.02.97,3.05.15.59.31,1.18.48,1.77Z"/>
          <path class="cls-9" d="m12.32.15c-1.04-.01-2.07-.02-3.11-.03-.36,0-.73,0-1.09-.01.23,1.6.34,3.26.7,4.84,1.11,0,2.22-.02,3.33-.05.06-1.58.13-3.16.17-4.75Z"/>
          <path class="cls-9" d="m21.96.33c-.89,0-1.77-.02-2.66-.05-.41,0-.82-.02-1.23-.03-.18,1.3-.38,2.59-.7,3.86-.05.18-.09.37-.15.55.4-.03.8-.05,1.2-.07.65-.05,1.31-.11,1.96-.18.5-1.37,1.07-2.71,1.57-4.08Z"/>
          <path class="cls-9" d="m24.79.34c-.2,0-.39,0-.59,0-.21,0-.42,0-.64,0-.24,1.18-1.04,2.23-1.59,3.29-.12.22-.22.45-.31.68.28-.02.56-.04.85-.05.74-1.31,1.52-2.6,2.28-3.91Z"/>
          <path class="cls-9" d="m4.98,22.11c-.07-.43-.03-.92-.02-1.26,0-1.09.08-2.18.1-3.27.04-3.65.52-7.24-.11-10.88-1.6-.8-3.34-1.7-4.78-2.85-.05.51-.04,1.02-.02,1.54-.1,2.29-.08,4.6-.1,6.88-.02,2.71-.02,5.41-.07,8.12-.03,1.25,0,2.51.1,3.76.06.71.13,1.47.32,2.18,1.46-1.49,2.92-2.97,4.58-4.23Z"/>
          <path class="cls-9" d="m5.07,9.23c.05,0,.1-.02.16-.02-.03-.61-.09-1.2-.17-1.81-1.61-.62-3.23-1.31-4.91-1.64-.05,1.35-.06,2.71-.07,4.06,1.67-.15,3.33-.37,5-.59Z"/>
          <path class="cls-9" d="m5.26,11.6c0-.18,0-.36,0-.53-1.75.26-3.49.51-5.21.93,0,.09,0,.18,0,.28,0,.5,0,1-.01,1.5,1.81-.49,3.5-1.37,5.21-2.17Z"/>
          <path class="cls-9" d="m2.01,14.7c.45-.24.89-.48,1.34-.71.61-.31,1.23-.58,1.86-.85,0-.04,0-.09,0-.13-1.81.66-3.54,1.55-5.18,2.55,0,.03,0,.05,0,.08.1-.04.19-.08.28-.12.49-.36,1.13-.62,1.69-.83Z"/>
          <path class="cls-9" d="m.09,24.24c1.58-1.56,3.18-3.08,4.9-4.49,0-.24.02-.48.03-.73-1.63,1.14-3.33,2.18-4.98,3.3-.01,0-.03.02-.04.04.02.6.04,1.2.1,1.8,0,.03,0,.05,0,.08Z"/>
          <path class="cls-11" d="m30.19,7.12c.09,0,.19,0,.29,0-.01-.44-.03-.88-.05-1.32-.08-1.33-.19-2.75-.78-3.8-1.5,1.17-2.98,2.36-4.4,3.62-.22.67-.27,1.38-.25,2.1,1.7-.37,3.49-.56,5.2-.6Z"/>
          <path class="cls-6" d="m25.33,11.58c.04,1.01-.08,1.33-.04,2.34,1.67-.24,3.36-.3,5.04-.33.05-.96.1-1.91.13-2.87-1.76.09-3.37.77-5.13.86Z"/>
          <path class="cls-6" d="m9.18,26.29c.12-.63.26-1.25.44-1.86.01-.05.05-.14.09-.26-1.36-.16-2.72-.53-4.07-.44-.08.2-.16.39-.24.59-.6,1.42-1.01,2.9-1.53,4.35-.1.29-.21.57-.31.86.46.16.93.26,1.39.28,1.24.06,2.41-.02,3.59-.11.22-1.13.43-2.28.66-3.41Z"/>
          <path class="cls-11" d="m15.59,24.42c-.91-.02-1.82-.04-2.72-.07.23,1.7.26,3.43.17,5.16.52-.01,1.05-.03,1.62-.06.39-.02.78-.04,1.17-.06-.15-1.65-.26-3.3-.24-4.97Z"/>
          <path class="cls-9" d="m30.29,14.32c-1.8-.31-3.35-.65-5-.4.01.3.05,1.34.06,1.63.08,1.92.26,3.92.01,5.84-.09.71-.41,1.46-1.02,1.88-.83.57-1.84.68-2.81.79-1.74.2-3.45.37-5.2.36-.02,1.65.09,3.29.24,4.92,1.41-.06,2.81-.11,4.22-.13.97-.02,1.93.02,2.9.05.82.03,1.7.06,2.5-.16.93-.09,1.84-.21,2.53-.92.73-.75.96-1.95,1.09-2.94.18-1.41.29-2.83.34-4.25.06-1.9-.04-3.79.08-5.69.02-.32.04-.66.06-.98Z"/>
          <path class="cls-42" d="m23.01,23.84c-.49.11-.99.17-1.48.23-.47.05-.94.11-1.41.15.01,1.67.03,3.34.06,5.01.21,0,.41-.01.61-.02.97-.02,1.93.02,2.9.05h0c-.25-1.81-.5-3.62-.69-5.43Z"/>
          <path class="cls-35" d="m26.56,26.57c-.52-.98-1.07-1.94-1.61-2.89.34,1.83.35,3.71.56,5.56.23-.03.46-.06.69-.13.45-.04.91-.09,1.33-.22-.29-.79-.57-1.58-.96-2.32Z"/>
          <path class="cls-35" d="m30.17,17.94c-1.68-.32-3.18-.86-4.75-.86.04,1.12.08,3.17-.05,4.27,1.15,0,2.34.33,3.39.68.43.14.87.29,1.31.46.03-.5.06-1,.08-1.49.03-1.02.02-2.04.02-3.06Z"/>
          <g class="cls-26">
            <path class="cls-50" d="m4.11,4.82c.23-.37.5-.71.79-1.03-.48-1.18-.94-2.38-1.39-3.57-.49.09-.96.22-1.41.45-.73.37-1.22,1.02-1.54,1.74.82.73,1.94,1.25,2.8,1.86.26.18.5.37.75.55Z"/>
            <path class="cls-47" d="m25.45,4.15c.13.29.29.56.44.83,1.47-.25,2.92-.64,4.39-.9-.24-1.68-.84-3.19-2.73-3.58-.25.7-.69,1.32-1.09,1.95-.36.55-.69,1.12-1.01,1.7Z"/>
            <path class="cls-33" d="m25.23,24.41c-.05.05-.11.1-.17.15.05.7.51,1.51.68,2.16.2.79.37,1.58.52,2.38.9-.09,1.79-.22,2.47-.91.41-.42.66-.99.83-1.58-1.36-.84-2.83-1.5-4.19-2.33-.04.04-.09.08-.14.12Z"/>
            <path class="cls-47" d="m4.95,23.53s-.04.06-.07.09c-1.38,1.27-2.62,2.68-3.89,4.06.77,1.12,2.17,1.9,3.5,2.09.4-1.96.73-3.92.96-5.91-.17-.11-.33-.22-.5-.34Z"/>
          </g>
          <g>
            <path class="cls-48" d="m4.36,3.46c-.4-1.06-.91-2.07-1.35-3.12-.31.08-.62.19-.91.34-.02,0-.04.02-.06.03.82.88,1.59,1.8,2.31,2.75Z"/>
            <path class="cls-48" d="m26.45,4.69c.38-.23.76-.46,1.14-.69.72-.51,1.39-1.08,2.06-1.66-1.09.75-2.21,1.48-3.2,2.35Z"/>
            <path class="cls-48" d="m29.4,1.63c-.3-.39-.69-.71-1.2-.93-.84.98-1.43,2.22-2.12,3.28-.02.04-.05.07-.07.11,1.05-.91,2.25-1.67,3.39-2.47Z"/>
            <path class="cls-48" d="m27.71,26.61c.38.49.75.96,1.15,1.42.14-.17.26-.35.36-.54-.41-.22-.8-.46-1.16-.76-.32-.27-.66-.51-1-.76.24.2.47.4.65.64Z"/>
            <path class="cls-48" d="m1.69,28.45c.11-.15.2-.28.26-.36.58-.89,1.19-1.76,1.79-2.64-.82.87-1.65,1.73-2.45,2.61.12.14.25.27.39.39Z"/>
          </g>
          <path class="cls-5" d="m30.43,5.79c-.13-2.33-.37-4.94-3.13-5.33-1.02-.15-2.07-.12-3.1-.12-1.64,0-3.27-.01-4.9-.06-3.5-.11-6.86-.13-10.08-.16-1.44-.01-2.88-.05-4.32-.02-.96.02-1.92.14-2.79.57-.89.45-1.42,1.31-1.73,2.23-.27.81-.25,1.65-.21,2.49-.1,2.29-.08,4.6-.1,6.88-.02,2.71-.02,5.41-.07,8.12-.03,1.25,0,2.51.1,3.76.08.99.18,2.08.61,3,.71,1.53,2.58,2.57,4.24,2.66,1.55.07,2.98-.07,4.46-.18,1.88-.14,3.39-.09,5.28-.2,2.04-.11,4.08-.19,6.13-.22.97-.02,1.93.02,2.9.05.82.03,1.7.06,2.5-.16.93-.09,1.84-.21,2.53-.92.73-.75.96-1.95,1.09-2.94.18-1.41.29-2.83.34-4.25.06-1.9-.04-3.79.08-5.69.12-2.02.25-4.04.27-6.06.01-1.15,0-2.3-.07-3.45Zm-.73,14.74c-.04,1.22-.09,2.43-.18,3.64-.08,1.11-.23,2.27-.79,3.25-.61,1.08-2.07,1.3-3.19,1.38-1.49.1-2.99-.01-4.49,0-2.04.04-4.09.11-6.13.22-1.83.1-3.23.03-5.05.2-.79.07-2.86.25-3.65.22-1.67-.04-3.04-.4-3.8-.92-.84-.56-1.39-1.4-1.64-2.38-.6-2.32-.44-4.9-.4-7.27.04-2.38,0-4.76.01-7.14.02-1.94.15-3.92.08-5.88.02-.72-.01-1.45.09-2.16.19-1.26.91-2.36,2.11-2.82.91-.35,1.95-.33,2.91-.33,1.47,0,2.94.03,4.41.05,3.1.04,6.19.07,9.29.17,1.55.05,3.1.08,4.65.07,1.02,0,2.04.05,3.05.16,1.56.16,2.4.71,2.76,2.3.3,1.33.28,2.69.33,4.04.17,4.39-.25,8.81-.39,13.21Z"/>
          <path class="cls-49" d="m27.23,13.34c-.05-1.58-.06-3.05-.09-4.64-.03-1.43,0-2.77-.22-4.19-.26-1.7-1.74-1.67-3.2-1.69-5.13-.56-10.36-.23-15.51-.22-1.52,0-3.27.06-4.41,1.21-.82.82-.9,1.99-.81,3.18,0,2.16-.15,3.7-.15,5.55,0,2.27-.03,4.53.13,6.79.07.97.15,1.93.28,2.89.11.81.18,1.69.5,2.45.47,1.12,1.5,1.7,2.71,1.67.04,0,.06-.02.08-.04,1.29.15,2.64.07,3.92.09,1.67.02,3.34.02,5.01.03,1.68,0,3.37-.03,5.04-.19,1.07-.1,2.53-.04,3.6-.11.87-.05,1.61-.26,2.25-.95.63-.68.67-1.99.72-2.88.19-2.98.22-5.98.14-8.96Z"/>
          <path class="cls-14" d="m27.23,13.34c-.05-1.58-.06-3.05-.09-4.64-.03-1.43,0-2.77-.22-4.19-.26-1.7-1.74-1.67-3.2-1.69-5.13-.56-10.36-.23-15.51-.22-1.52,0-3.27.06-4.41,1.21-.82.82-.9,1.99-.81,3.18,0,2.16-.15,3.7-.15,5.55,0,2.27-.03,4.53.13,6.79.07.97.15,1.93.28,2.89.11.81.18,1.69.5,2.45.47,1.12,1.5,1.7,2.71,1.67.04,0,.06-.02.08-.04,1.29.15,2.64.07,3.92.09,1.67.02,3.34.02,5.01.03,1.68,0,3.37-.03,5.04-.19,1.07-.1,2.53-.04,3.6-.11.87-.05,1.61-.26,2.25-.95.63-.68.67-1.99.72-2.88.19-2.98.22-5.98.14-8.96Zm-.45,8.38c-.04.88-.09,2.04-.5,2.83-.79,1.51-2.8,1.12-4.24,1.23-2.1.17-4.19.34-6.3.34-1.58,0-3.16,0-4.74-.02-1.51-.01-3.09-.17-4.6-.04-.58-.11-1.13-.19-1.63-.53-.53-.36-.76-1-.92-1.58-.51-1.9-.58-3.98-.66-5.93-.13-3.12.2-6.43.22-9.56.04.36-.22-3.69.89-4.61,1.33-1.09,3.54-.86,5.13-.87,2.48-.01,4.95-.08,7.43-.08,1.55,0,3.09.06,4.64.14.8.04,1.6.07,2.4.11.89.04,1.78-.06,2.3.82.6,1.01.61,2.36.63,3.49.04,1.98-.09,4.01,0,5.98.09,1.93.11,3.86,0,5.78-.03.58,0,1.51-.04,2.47Z"/>
          <g>
            <g class="cls-25">
              <path class="cls-31" d="m4.47,12.56c-.15-1.66.09-4.83.22-6.02.13-1.18-.09-1.93,2.28-2.2,2.37-.26,4.08-.31,5.27-.26,1.19.04,1.89.75.61,1.19-1.27.44-5.15,2.66-7.38,7.12-.26.53-.88,1.67-1.01.18Z"/>
            </g>
            <g class="cls-18">
              <path class="cls-34" d="m14.53,4.04c1.45-.04,2.55-.04,2.37.48-.17.53-.57.43-1.62.35-.57-.04-1.06.13-1.1-.13-.04-.26-.15-.69.35-.7Z"/>
            </g>
            <path class="cls-10" d="m4.34,21.39c-.53-4.83,1.23-7.38,3.78-3.95,2.55,3.43,3.87,3.6,5.89,3.51,2.02-.09,5.36-.62,7.12-3.51,1.76-2.9,4.66-3.52,4.48.26-.18,3.78,1.76,7.03-5.1,6.94-4.13-.05-9.49-.09-13.09.09-1.95.1-2.82-1-3.08-3.34Z"/>
          </g>
          <g class="cls-27">
            <path class="cls-38" d="m9.21,25.05c3.01-.49,11.35.13,13.24-.2,1.89-.34,3.24-.68,3.38-2.7.14-2.03-.13-4.59-.13-5.95s.88-4.59.95.27c.07,4.86-.18,6.51-.27,7.29-.09.79-.41,1.82-3.38,1.82s-5.07.34-8.65.2c-3.58-.13-12.63.47-5.13-.74Z"/>
          </g>
          <g class="cls-24">
            <path class="cls-39" d="m21.37,24.33c-3.04-.25-11.3,1.02-13.22.83-1.91-.19-2.96-.5-3.58-2.43-1.11-3.49-.46-4.5-.57-5.85-.1-1.35-.99-4.6-.68.26.31,4.85.69,6.47.84,7.25.15.78.55,1.79,3.51,1.56,2.96-.23,5.08-.06,8.63-.47,3.56-.41,12.63-.51,5.06-1.14Z"/>
          </g>
          <g class="cls-23">
            <path class="cls-40" d="m18.26,2.8s5.2.43,6.48.5c1.28.07,1.53.92,1.6,4.16.07,3.24.49,12.66.49,12.66,0,0-.15-12.12-.09-13.81.07-1.69.09-3.08-1.6-3.29-1.69-.2-6.89-.22-6.89-.22Z"/>
          </g>
          <path class="cls-29" d="m3.13,19.73s-.11-7.32-.04-9.14c.07-1.82-.5-5.44.81-6.75,1.31-1.31,3.27-.99,5.5-.99s10.14-.14,13.1.09c0,0-8.22.07-9.91.27-1.69.2-4.71-.04-5.99.22-1.28.27-2.9.74-2.97,3.92-.07,3.17-.14,5.65-.27,7.07-.13,1.42-.23,5.31-.23,5.31Z"/>
        </g>
        <g>
          <path class="cls-8" d="m17.45,1.63c-1.86.66-4.6,3.24-5.34,5-.42,1-.73,2.05-.99,3.11-.06.26-.11,1.17-.29,1.33,0-.04-.72.07-.8.11-1.5.58-3.59,1.84-4.01,3.19-.91,2.89-1.39,4.69-1.17,5.94.85,4.96,5.2,4.92,7.49,6.01,1.52.73,3.08,1.44,4.69,1.94.95.3,1.92.69,2.91.31.85-.33,1.45-1.05,1.97-1.76.99-1.36,1.66-2.9,2.47-4.36.67-1.2,1.81-2.76,1.7-4.2-.03-.45-.61-1.66-1.11-2.52.22-.38.65-1.28.86-1.67,1.5-2.83,1.81-4.87.32-7.97-1.89-3.92-4.96-5.78-8.69-4.46Zm-2.34,6.11c1.26-1.86,3.71-2.58,5.78-1.68,2.25.98,3.18,3.41,2.43,5.69-.2.59-.45,1.16-.71,1.73-.15.32-.31.64-.48.96-.21.4-.5.06-.85-.1-1.26-.56-2.56-1.01-3.88-1.42-.65-.21-1.31-.41-1.96-.62-.36-.12-.71-.24-1.07-.37-.34-.12-.77-.09-.67-.49.3-1.27.65-2.6,1.39-3.69,1.12-1.64-.73,1.07,0,0Z"/>
          <g>
            <path class="cls-16" d="m24.79,4.2c-.65-1.11-1.73-2.12-2.83-2.77-.7-.42-1.54-.78-2.34-.96-1.8-.41-3.91-.19-5.61.52-1.64.69-2.6,2.17-3.26,3.76-.59,1.41-.98,2.95-1.28,4.47-2-.34-2.86,3.18-3.31,4.54-.56,1.7-1.39,3.33-1.48,5.15-.08,1.46.62,2.49,1.7,3.25,1.33,1.04,3.15,1.6,4.6,2.29,1.29.62,2.6,1.19,3.94,1.68.66.24,1.34.43,2.02.62,1.27.37,2.32-.24,3.13-1.21,1.02-1.21,1.75-2.64,2.46-4.05.69-1.38,1.61-2.72,2.08-4.2.27-.85.12-1.59-.41-2.16,0-.01-.01-.02-.02-.04-.23-.25-.49-.47-.75-.68.84-1.45,1.6-2.94,2.05-4.56.53-1.91.32-3.94-.68-5.65Zm-3.43,7.14c-.22.49-.46.97-.71,1.44-1.04-.51-2.11-.93-3.21-1.31-1.39-.48-2.8-.87-4.18-1.36-.31-.11-.63-.22-.96-.33.32-1.38.73-2.87,1.45-3.94,1.12-1.64,3.04-2.39,4.98-1.95,1.95.45,3.43,2.13,3.53,4.12.06,1.13-.45,2.3-.9,3.31Z"/>
            <path class="cls-46" d="m25.03,10.14c-.45,1.43-1.15,2.76-1.91,4.05-.58-.41-1.22-.76-1.85-1.1-.1-.05-.2-.1-.29-.15.26-.57.52-1.14.75-1.71.46-1.12.87-2.33.75-3.56-.17-1.91-1.73-3.46-3.51-4-1.92-.58-3.85.15-5.1,1.65-.95,1.14-1.67,2.8-1.98,4.34-.7-.2-1.43-.36-2.13-.38-.03-.01-.06-.02-.09-.03.25-.98.47-1.97.78-2.93.42-1.28.96-2.8,1.93-3.78.81-.82,1.92-1.33,3-1.62,1.27-.33,2.6-.35,3.9-.14,2.17.35,3.99,1.84,5.08,3.7,1,1.71,1.25,3.76.65,5.65Z"/>
            <path class="cls-15" d="m24.79,4.2c-.65-1.11-1.73-2.12-2.83-2.77-.54-.32-1.17-.61-1.79-.81.94.4,1.79.94,2.45,1.58,1.36,1.33,2.34,3,2.24,4.95-.06,1.09-.24,2.2-.7,3.2-.22.47-.54,1.02-.92,1.39-.24.23-.95.49-.84-.17.22-1.32.98-2.39.86-3.79-.09-1.03-.28-2.19-.9-3.05-1.16-1.61-3.46-2.29-5.38-2.19-2.3.12-4.18,1.89-4.89,4.01-.14.42-.71,1.81-1.25,1.74-1.1-.14-.25-3.19-.02-3.72-.03.05-.05.11-.07.17-.59,1.41-.98,2.95-1.28,4.47-2-.34-2.86,3.18-3.31,4.54-.56,1.7-1.39,3.33-1.48,5.15-.08,1.46.62,2.49,1.7,3.25,1.33,1.04,3.15,1.6,4.6,2.29,1.29.62,2.6,1.19,3.94,1.68.66.24,1.34.43,2.02.62,1.27.37,2.32-.24,3.13-1.21,1.02-1.21,1.75-2.64,2.46-4.05.69-1.38,1.61-2.72,2.08-4.2.27-.85.12-1.59-.41-2.16,0-.01-.01-.02-.02-.04-.23-.25-.49-.47-.75-.68.84-1.45,1.6-2.94,2.05-4.56.53-1.91.32-3.94-.68-5.65Zm-11.04,1.65c1.12-1.64,3.04-2.39,4.98-1.95,1.95.45,3.43,2.13,3.53,4.12.06,1.13-.45,2.3-.9,3.31-.22.49-.46.97-.71,1.44-1.04-.51-2.11-.93-3.21-1.31-1.39-.48-2.8-.87-4.18-1.36-.31-.11-.63-.22-.96-.33.32-1.38.73-2.87,1.45-3.94Zm9.02,10.53c.01,1.49-1.33,3.16-2.09,4.46-.63,1.07-1.14,2.29-2.11,3.11-1.81,1.52-4.53.51-6.5-.23-1.4-.52-2.78-1.12-4.07-1.87-.79-.46-1.7-.95-2.04-1.86-.8-2.18.82-4.64,1.57-6.63.38-1.01.83-2.29,1.93-2.7,1.49-.57,3.39.25,4.84.58,1.64.38,3.26.87,4.79,1.6.92.44,1.78,1.03,2.6,1.62.78.57,1.08,1.22,1.08,1.91Z"/>
            <path class="cls-32" d="m22.77,16.37c0,.19-.02.39-.06.58.47.08.92.26,1.41.38.14.04.28.07.42.11.02-.05.04-.11.06-.17.27-.85.12-1.59-.41-2.16,0-.01-.01-.02-.02-.04-.11-.12-.23-.23-.34-.33-.13-.09-.25-.18-.38-.26-.45.1-.9.21-1.35.32.47.48.67,1.01.67,1.56Z"/>
            <path class="cls-32" d="m24.35,15.74c.08,0,.15-.01.23-.02-.09-.21-.21-.42-.38-.6,0-.01-.01-.02-.02-.04-.04-.04-.09-.09-.14-.13-.27.04-.54.09-.81.14-.26.05-.52.11-.78.16.1.16.17.32.22.49.56-.01,1.11.02,1.68,0Z"/>
            <path class="cls-32" d="m23.72,16.77c.32.07.64.13.97.17.03-.16.04-.33.04-.48h-.04c-.64.03-1.28-.02-1.92,0,0,.04,0,.09,0,.13.32.03.63.1.96.18Z"/>
            <path class="cls-15" d="m18.03,24.3c-.4.22-.83.33-1.28.39.25.66.32,1.37.35,2.09,1.14.26,2.09-.27,2.84-1.11-.34-.21-.67-.39-.83-.5-.35-.24-.77-.52-1.09-.86Z"/>
            <path class="cls-15" d="m5.96,19.99c-.15-.41-.21-.82-.21-1.24-.35.05-.7.08-1.06.09,0,.02,0,.04,0,.05-.07,1.39.55,2.39,1.54,3.13.12-.37.25-.74.41-1.08-.29-.26-.54-.57-.68-.95Z"/>
            <path class="cls-32" d="m10.63,9.48c-.39-.12-.78-.25-1.15-.3,0,0,0,.02,0,.03-.75-.12-1.33.29-1.8.92.37.33.73.66,1.08.99.2-.2.44-.36.72-.46.41-.16.85-.21,1.3-.19-.05-.33-.1-.65-.13-.98Z"/>
            <path class="cls-37" d="m9.32,10.72s.1-.04.15-.06c.11-.05.23-.08.35-.11-.2-.44-.38-.89-.5-1.36-.4-.03-.75.1-1.06.33.25.43.74.79,1.06,1.2Z"/>
            <path class="cls-37" d="m7.74,10.04s-.05.06-.07.09c.32.28.62.56.93.85-.27-.33-.6-.61-.85-.94Z"/>
            <path class="cls-2" d="m24.79,4.2c-.65-1.11-1.73-2.12-2.83-2.77-.7-.42-1.54-.78-2.34-.96-1.8-.41-3.91-.19-5.61.52-1.64.69-2.6,2.17-3.26,3.76-.59,1.41-.98,2.95-1.28,4.47-2-.34-2.86,3.18-3.31,4.54-.56,1.7-1.39,3.33-1.48,5.15-.08,1.46.62,2.49,1.7,3.25,1.33,1.04,3.15,1.6,4.6,2.29,1.29.62,2.6,1.19,3.94,1.68.66.24,1.34.43,2.02.62,1.27.37,2.32-.24,3.13-1.21,1.02-1.21,1.75-2.64,2.46-4.05.69-1.38,1.61-2.72,2.08-4.2.27-.85.12-1.59-.41-2.16,0-.01-.01-.02-.02-.04-.23-.25-.49-.47-.75-.68.84-1.45,1.6-2.94,2.05-4.56.53-1.91.32-3.94-.68-5.65Zm-.67,11.53c.38.7,0,1.56-.29,2.21-.54,1.2-1.22,2.35-1.81,3.53-.6,1.2-1.23,2.38-2.02,3.46-.31.43-.69.88-1.11,1.21-1.12.85-2.96-.1-4.1-.5-1.32-.46-2.6-1.01-3.88-1.59-1.33-.6-2.76-1.09-4.01-1.85-.1-.05-.2-.11-.29-.16-.41-.32-.79-.68-1.08-1.12-.48-.71-.53-1.62-.46-2.44.14-1.55.85-3.01,1.36-4.46.55-1.59,1.09-4.2,2.98-4.52,1.19.26,2.37.41,3.54.79,1.32.43,2.63.89,3.94,1.35,1.3.46,2.57.94,3.79,1.57.39.2.77.4,1.15.62.26.15.55.25.79.43.54.4,1.18.86,1.51,1.46Zm-11.83-5.94c.32-1.38.73-2.87,1.45-3.94,1.12-1.64,3.04-2.39,4.98-1.95,1.95.45,3.43,2.13,3.53,4.12.06,1.13-.45,2.3-.9,3.31-.22.49-.46.97-.71,1.44-1.04-.51-2.11-.93-3.21-1.31-1.39-.48-2.8-.87-4.18-1.36-.31-.11-.63-.22-.96-.33Zm12.73.36c-.45,1.43-1.15,2.76-1.91,4.05-.58-.41-1.22-.76-1.85-1.1-.1-.05-.2-.1-.29-.15.26-.57.52-1.14.75-1.71.46-1.12.87-2.33.75-3.56-.17-1.91-1.73-3.46-3.51-4-1.92-.58-3.85.15-5.1,1.65-.95,1.14-1.67,2.8-1.98,4.34-.7-.2-1.43-.36-2.13-.38-.03-.01-.06-.02-.09-.03.25-.98.47-1.97.78-2.93.42-1.28.96-2.8,1.93-3.78.81-.82,1.92-1.33,3-1.62,1.27-.33,2.6-.35,3.9-.14,2.17.35,3.99,1.84,5.08,3.7,1,1.71,1.25,3.76.65,5.65Z"/>
            <path class="cls-44" d="m15.94,13.87c-1.07-.43-2.51-.17-3.15.85-.53.85-.46,1.86.39,2.76-.81.79-1.51,1.67-2.32,2.46-.1.1-.18.21.08.31,1.2.46,2.08.88,3.33,1.35.12.04.26.02.28-.1.13-1.05.3-2.21.42-3.26,2.55.29,3.28-3.45.97-4.37Z"/>
            <path class="cls-7" d="m15.94,13.87c-1.07-.43-2.51-.17-3.15.85-.53.85-.46,1.86.39,2.76-.81.79-1.51,1.67-2.32,2.46-.1.1-.18.21.08.31,1.2.46,2.08.88,3.33,1.35.12.04.26.02.28-.1.13-1.05.3-2.21.42-3.26,2.55.29,3.28-3.45.97-4.37Zm-.95,4.12s-.18-.07-.26-.02c-.08.57-.36,2.45-.49,3.14-.91-.29-2.01-.76-2.88-1.14.73-.73,1.11-1.24,1.8-2,.3-.38.51-.5.44-.55-.67-.52-.92-1.14-.73-1.98.25-1.04,1.6-1.51,2.5-1.35.93.17,1.55.98,1.58,1.9.04,1.07-.91,2.12-1.97,2.01Z"/>
            <path class="cls-36" d="m10.81,7.41s.44-3.21,1.86-4.46c1.42-1.25,3.34-2.5,7.2-1.55s4.53,4.46,4.66,5.67c.13,1.22-.34,3.08-.84,3.72,0,0,.74-1.69.54-3.65-.2-1.96-1.21-4.5-4.8-5.2-4.32-.85-7.33.17-8.61,5.47Z"/>
            <path class="cls-41" d="m8.45,22.21s5.4,2.5,7.09,2.7c1.69.2,2.77.34,4.26-2.1,1.49-2.43,2.43-4.46,2.84-5.13.41-.67.96-1.92-.94-3.22,0,0,1.08,1.2.87,1.87-.2.68-1.35,3.18-2.57,5.13-1.22,1.96-1.94,3.12-3.38,3.24-1.62.14-8.17-2.5-8.17-2.5Z"/>
            <path class="cls-30" d="m5.75,18.75s-.14-1.22,1.3-4.33c1.44-3.11,1.58-3.83,3.33-4.01,1.76-.18,6.58,1.44,8.87,2.48,0,0-5.58-1.67-6.84-1.89s-2.48-.31-3.42.72c-.95,1.04-3.19,5.28-3.24,7.03Z"/>
            <path class="cls-29" d="m15.72,13.54c-.72-.2-2.02-.26-2.95.97-.42.56-.41,1.2-.31,1.67,0-.17.02-.37.06-.64.25-1.51,2.52-2.34,3.85-1.28,1.33,1.06.72,2.77.72,2.77,1.01-1.82-.65-3.29-1.37-3.49Z"/>
            <path class="cls-29" d="m14.54,21.5l.42-3.26s.93.21,1.86-.74c0,0-.56.99-1.64.9l-.64,3.1Z"/>
          </g>
        </g>
      </g>
    </g>
  </g>
</svg>