<?xml version="1.0" encoding="UTF-8"?>
<svg xmlns="http://www.w3.org/2000/svg" xmlns:xlink="http://www.w3.org/1999/xlink" viewBox="0 0 1920 1080">
  <defs>
    <style>
      .cls-1 {
        mix-blend-mode: multiply;
        opacity: .6;
      }

      .cls-1, .cls-2, .cls-3, .cls-4, .cls-5, .cls-6 {
        fill: none;
      }

      .cls-2 {
        isolation: isolate;
      }

      .cls-3, .cls-7, .cls-6 {
        mix-blend-mode: screen;
      }

      .cls-7, .cls-8 {
        fill: #b38f0d;
      }

      .cls-7, .cls-6 {
        opacity: .5;
      }

      .cls-5 {
        clip-path: url(#clippath);
      }

      .cls-9 {
        fill: #907416;
      }

      .cls-10 {
        fill: #6b5314;
      }
    </style>
    <clipPath id="clippath">
      <rect class="cls-4" width="1920" height="1080.7"/>
    </clipPath>
  </defs>
  <g class="cls-2">
    <g id="Calque_1" data-name="Calque 1">
      <g class="cls-5">
        <g>
          <g>
            <g>
              <g>
                <path class="cls-9" d="m1133.29,901.45l81.03-23.91,3.9,22.61-11,8.58,12.61-2.11,1.56,6.5-6.08,6.23,8.88,1.53,4.21,21.72s-10.65,4.82-9.14,5.29c1.54.48,8.75.82,8.75.82l-1.61,21.22s-60.72,5.52-79.54,1.89c-18.84-3.65-55.64-48.47-13.57-70.38Z"/>
                <g class="cls-3">
                  <path class="cls-8" d="m1173.32,924.04c4.51-.73,7.69-3.76,7.15-6.77-.41-3.07-4.55-4.9-9.01-4.19-4.5.81-7.72,3.81-7.18,6.86.48,3.06,4.53,4.85,9.04,4.09Z"/>
                  <path class="cls-8" d="m1194.02,923.64c2.09-.32,3.51-1.92,3.22-3.51-.23-1.62-2.15-2.67-4.2-2.36-2.05.36-3.45,1.95-3.23,3.56.27,1.59,2.17,2.67,4.21,2.3Z"/>
                </g>
                <path class="cls-10" d="m1141.3,969.8c-8.6-4.26-18.67-14.33-23.86-25.86,11.04,1.26,69.57,6.67,107.17-20.99l3.78,19.65s-10.65,4.82-9.14,5.29c1.54.48,8.75.82,8.75.82l-.79,10.61c-32.56,8.14-67.1,10.1-85.92,10.48Z"/>
                <g class="cls-1">
                  <path class="cls-9" d="m1162.53,973.03c-6.39-.09-11.86-.47-15.67-1.2-18.84-3.65-55.64-48.47-13.57-70.38l20.21-5.95c8.04,12.45,20.38,39.51,9.03,77.53Z"/>
                </g>
                <g class="cls-6">
                  <path class="cls-8" d="m1114.06,931.03c-.79-10.83,4.1-21.67,19.23-29.58l81.03-23.91,3.9,22.61-11,8.58,12.61-2.11.46,1.88c-40.65,27.59-95.1,23.65-106.23,22.52Z"/>
                </g>
                <path class="cls-7" d="m1160.34,900.22s40.8-11.13,50.65-17.59l3.98,12.53s-28.93,11.13-54.63,5.06Z"/>
              </g>
              <g>
                <path class="cls-9" d="m1031.3,908.99l111.04-15.08,1.31,19.89-15.94,6.63,16.9-.91.97,5.74-9.09,4.93,11.48,2.02,1.85,19.21s-14.84,3.32-12.95,3.92c1.98.54,11.44,1.32,11.44,1.32l-5.71,18.31s-81.14.55-105.33-3.98c-24.13-4.43-65.32-45.91-5.97-61.99Z"/>
                <g class="cls-3">
                  <path class="cls-8" d="m1080.36,931.41c6.04-.34,10.74-2.77,10.56-5.45-.17-2.65-5.15-4.51-11.2-4.17-6.1.33-10.88,2.7-10.71,5.36.18,2.69,5.24,4.59,11.35,4.27Z"/>
                  <path class="cls-8" d="m1107.73,932.45c2.72-.15,4.92-1.43,4.82-2.8-.09-1.45-2.43-2.47-5.16-2.31-2.76.15-4.98,1.41-4.87,2.86.08,1.36,2.45,2.4,5.21,2.24Z"/>
                </g>
                <path class="cls-10" d="m1030.26,968.93c-10.62-4.39-22.17-13.79-27.13-24.21,14.41,1.91,90.73,10.68,145.06-10.63l1.64,17.33s-14.84,3.32-12.95,3.92c1.98.54,11.44,1.32,11.44,1.32l-2.87,9.08c-44.29,4.86-90.23,4.09-115.19,3.19Z"/>
                <g class="cls-1">
                  <path class="cls-9" d="m1057.78,973.17c-8.46-.54-15.63-1.21-20.51-2.18-24.13-4.43-65.32-45.91-5.97-61.99l27.69-3.78c8.48,11.31,20.17,35.71-1.21,67.95Z"/>
                </g>
                <g class="cls-6">
                  <path class="cls-8" d="m1000.83,933.3c.76-9.42,9.11-18.51,30.47-24.31l111.04-15.08,1.31,19.89-15.94,6.63,16.9-.91.32,1.69c-58.29,21.1-129.64,13.86-144.1,12.09Z"/>
                </g>
                <path class="cls-7" d="m1067.19,909.82s55.75-6.79,69.71-11.79l3.22,11.12s-40.09,7.66-72.92.67Z"/>
              </g>
              <g>
                <path class="cls-9" d="m915.51,917.82s89.01-5.49,122.28-15.64l4.99,18.39-12.78,5.82,13.21.52.63,9.67-12.83,5.15,17.66,1.63,1.6,14.05-17.98,3.59,15.85,2.94-2.98,11.78s-76.51,3.51-122.37-13.91c-45.82-17.55-30.42-42.11-7.29-44.01Z"/>
                <g class="cls-3">
                  <path class="cls-8" d="m972.83,932.02c5.11-.28,9.09-2.41,8.93-4.81-.14-2.33-4.4-4.08-9.5-3.81-5.09.28-9.12,2.48-8.97,4.82.15,2.4,4.46,4.08,9.54,3.8Z"/>
                  <path class="cls-8" d="m955.85,941.6c3.72-.2,6.61-1.81,6.5-3.53-.11-1.7-3.2-2.98-6.91-2.78-3.62.19-6.47,1.8-6.37,3.5.11,1.71,3.16,3,6.77,2.8Z"/>
                  <path class="cls-8" d="m1003.32,943.01c3.03-.16,5.37-1.71,5.25-3.47-.1-1.69-2.64-3.02-5.67-2.84-3.06.15-5.41,1.74-5.3,3.44.11,1.75,2.65,3.03,5.71,2.86Z"/>
                </g>
                <path class="cls-10" d="m922.8,961.83c-13.76-5.25-22.01-11.15-26.14-16.89,32.64,2.09,101.9,5.84,152.54,3.09l1.08,9.4-17.98,3.59,15.85,2.94-1.49,5.81c-39.71,1.32-91.19-3.68-121.78-7.24-.69-.21-1.37-.47-2.07-.71Z"/>
                <g class="cls-6">
                  <path class="cls-8" d="m893.54,932.8c1.75-8.02,10.97-14.09,21.97-14.98,0,0,89.01-5.49,122.28-15.64l4.99,18.39-12.78,5.82,13.21.52.18,2.86c-56.75,8.47-114.19,6.08-149.84,3.02Z"/>
                </g>
                <g class="cls-1">
                  <path class="cls-9" d="m941.2,967.37c-6.45-1.5-12.69-3.35-18.4-5.54-45.82-17.55-30.42-42.11-7.29-44.01,0,0,9.46-.56,23.28-1.71,4.43,8.44,9.46,25.09,2.41,51.26Z"/>
                </g>
                <path class="cls-7" d="m945.21,919.39s53.84-3.56,86.1-10.41l1.21,8.92s-47.76,9.67-87.31,1.49Z"/>
              </g>
              <g>
                <path class="cls-9" d="m809.81,908.15s71.03,8.33,114.78,4.02l3.08,17.87-16.2,2.79,16.5,1.68,1.94,10.19-8.21.45,8.42,2.76,2.74,22.32s-73.49-6.86-129.18-21.96c0,0-26.38-37.1,6.13-40.12Z"/>
                <g class="cls-6">
                  <path class="cls-8" d="m809.81,908.15s71.03,8.33,114.78,4.02l3.08,17.87-16.2,2.79,16.5,1.68.53,2.8c-58.94-.26-109-10.52-134.75-16.98.73-6.13,5-11.14,16.07-12.18Z"/>
                </g>
                <g class="cls-6">
                  <path class="cls-8" d="m853.87,929.84c5.56.52,10.16-.79,10.31-2.94.17-2.06-4.24-4.15-9.73-4.57-5.53-.52-10.12.82-10.24,2.92-.2,2.06,4.2,4.13,9.67,4.59Z"/>
                  <path class="cls-8" d="m886.23,933.44c2.06-.11,3.69-1.18,3.62-2.37-.09-1.2-1.84-1.99-3.9-1.89-2.06.11-3.58,1.09-3.5,2.29.08,1.2,1.74,2.09,3.78,1.98Z"/>
                  <path class="cls-8" d="m845.07,935.34c1.94-.11,3.48-1.13,3.4-2.33-.07-1.14-1.74-2.09-3.68-1.98-2.01.1-3.47,1.22-3.39,2.36.07,1.2,1.67,2.05,3.68,1.94Z"/>
                </g>
                <path class="cls-10" d="m803.68,948.27s-5.44-7.61-8.38-16.34c32.39,8.06,91.21,21.27,135.6,22.84l.69,5.24c-34.79,1.19-81.08-3.21-103.09-5.72-8.47-1.8-16.8-3.79-24.83-6.02Z"/>
                <g class="cls-1">
                  <path class="cls-9" d="m819.94,952.42c-5.48-1.24-10.97-2.62-16.26-4.14,0,0-26.38-37.1,6.13-40.12,0,0,7.37.85,18.79,1.88,2.27,9.04,3.41,25.02-8.66,42.38Z"/>
                </g>
                <path class="cls-7" d="m835.14,912.59s55.12,7.03,84.76,1.92l1.84,11.04s-55.59,3.03-86.61-12.96Z"/>
              </g>
              <g>
                <path class="cls-9" d="m722.66,883.27s63.64,21.02,98.77,19.11l-3.92,16.98-12.62-.03,11.57,3.23.55,18.66-13.37-2.51,13.2,8.85-6.31,10.06s-77.14-25.41-97.38-36.46c-20.23-11.14-17.16-40.88,9.5-37.89Z"/>
                <g class="cls-6">
                  <path class="cls-8" d="m754.84,906.48c4.61.86,8.62.04,8.95-1.87.35-1.94-3.14-4.22-7.8-5.02-4.62-.92-8.6-.05-8.9,1.87-.4,1.87,3.14,4.14,7.76,5.01Z"/>
                  <path class="cls-8" d="m777.07,912.81c2.31.4,4.3,0,4.51-.97.14-.98-1.62-2.06-3.93-2.61-2.36-.35-4.4.02-4.54,1.06-.15.9,1.62,2.06,3.96,2.53Z"/>
                </g>
                <g class="cls-6">
                  <path class="cls-8" d="m722.66,883.27s63.64,21.02,98.77,19.11l-3.92,16.98-12.62-.03,11.57,3.23.04,1.89c-40.41-3.41-88.54-23.49-113-34.79,3.58-4.64,9.97-7.44,19.16-6.4Z"/>
                </g>
                <g class="cls-1">
                  <path class="cls-9" d="m725.33,926.83c-4.97-2.18-9.19-4.07-12.17-5.68-20.23-11.14-17.16-40.88,9.5-37.89,0,0,6.78,2.29,17.15,5.19,1.46,10.04.18,24.78-14.48,38.37Z"/>
                </g>
                <path class="cls-7" d="m753.59,894.48s38.72,10.43,63.63,11.3c-1.52,5.23-1.78,6.54-1.78,6.54,0,0-41.05-3.22-61.85-17.84Z"/>
                <path class="cls-10" d="m713.16,921.16c-7.6-4.21-11.96-11.08-12.9-17.78,20.08,10.67,59.7,29.07,106.11,37.12l10.47,7.07-3.09,5.02c-11.52-1.09-24.3-3.53-36.07-6.12-23.6-8.32-53.12-19.09-64.52-25.3Z"/>
              </g>
              <g>
                <path class="cls-9" d="m669.06,863s45.07,14.94,65.5,19.62l-6.98,18.37-15.99-3.61,15.53,6.29-3.28,7.89-8.89-.85,7.2,4.14-5.26,15.07-87.36-46.72s15.6-20.76,39.52-20.18Z"/>
                <g>
                  <path class="cls-4" d="m713.45,897.8c1.08.57,2.22,1.09,3.32,1.68l-5.17-2.11,1.85.43Z"/>
                  <path class="cls-7" d="m669.06,863s45.07,14.94,65.5,19.62l-6.98,18.37-14.14-3.18c-19.04-9.72-37.97-22.23-53.98-33.86,3.02-.62,6.22-.98,9.59-.95Z"/>
                </g>
                <path class="cls-7" d="m695.1,894.79c4.45,1.46,8.66.75,9.39-1.63.7-2.35-2.34-5.42-6.82-6.94-4.46-1.52-8.67-.82-9.35,1.63-.75,2.3,2.25,5.49,6.78,6.94Z"/>
                <path class="cls-7" d="m679.65,869.14s29.72,9.59,49.06,14.15l-1.64,5.99s-32.73-8.1-47.42-20.14Z"/>
                <path class="cls-10" d="m716.91,929.9l-87.36-46.72s5.7-7.64,15.61-13.54c18.38,14.4,44.77,30.61,78.9,41.29l-.21.62-8.89-.85,7.2,4.14-5.26,15.07Z"/>
              </g>
            </g>
            <g>
              <g>
                <path class="cls-9" d="m1180.82,896.72l-81.03-23.9-3.9,22.61,11,8.57-12.62-2.1-1.55,6.49,6.07,6.23-8.87,1.54-4.21,21.72s10.65,4.81,9.13,5.29c-1.53.48-8.74.81-8.74.81l1.61,21.22s60.71,5.52,79.54,1.9c18.84-3.65,55.63-48.47,13.57-70.39Z"/>
                <g class="cls-3">
                  <path class="cls-8" d="m1140.79,919.32c-4.51-.72-7.69-3.76-7.15-6.76.41-3.07,4.55-4.9,9.01-4.19,4.5.81,7.72,3.8,7.18,6.85-.48,3.06-4.54,4.86-9.04,4.09Z"/>
                  <path class="cls-8" d="m1120.09,918.91c-2.09-.32-3.51-1.91-3.23-3.51.23-1.62,2.16-2.67,4.21-2.36,2.05.37,3.45,1.96,3.22,3.56-.26,1.6-2.17,2.67-4.2,2.3Z"/>
                </g>
                <path class="cls-10" d="m1172.81,965.08c8.6-4.27,18.67-14.34,23.85-25.86-11.03,1.26-69.57,6.67-107.17-21l-3.77,19.66s10.65,4.81,9.13,5.29c-1.53.48-8.74.81-8.74.81l.79,10.62c32.56,8.13,67.1,10.1,85.92,10.48Z"/>
                <g class="cls-1">
                  <path class="cls-9" d="m1151.57,968.31c6.39-.09,11.87-.48,15.67-1.2,18.84-3.65,55.63-48.47,13.57-70.39l-20.22-5.95c-8.03,12.45-20.37,39.52-9.03,77.54Z"/>
                </g>
                <g class="cls-6">
                  <path class="cls-8" d="m1200.05,926.3c.79-10.82-4.1-21.67-19.23-29.58l-81.03-23.9-3.9,22.61,11,8.57-12.62-2.1-.45,1.87c40.65,27.6,95.09,23.66,106.23,22.52Z"/>
                </g>
                <path class="cls-7" d="m1153.77,895.49s-40.8-11.13-50.65-17.59l-3.98,12.53s28.93,11.14,54.63,5.07Z"/>
              </g>
              <g>
                <path class="cls-9" d="m1282.81,904.26l-111.05-15.07-1.3,19.89,15.94,6.63-16.91-.92-.96,5.74,9.09,4.93-11.48,2.03-1.86,19.21s14.85,3.31,12.96,3.91c-1.98.54-11.44,1.32-11.44,1.32l5.7,18.32s81.14.54,105.33-3.98c24.14-4.43,65.33-45.92,5.98-62Z"/>
                <g class="cls-3">
                  <path class="cls-8" d="m1233.75,926.68c-6.04-.33-10.74-2.76-10.56-5.45.17-2.65,5.15-4.51,11.2-4.17,6.1.33,10.88,2.71,10.7,5.37-.17,2.68-5.23,4.58-11.34,4.26Z"/>
                  <path class="cls-8" d="m1206.38,927.73c-2.72-.16-4.92-1.44-4.82-2.79.09-1.45,2.43-2.47,5.16-2.32,2.76.15,4.98,1.41,4.88,2.87-.09,1.35-2.46,2.39-5.21,2.24Z"/>
                </g>
                <path class="cls-10" d="m1283.85,964.2c10.61-4.38,22.17-13.78,27.13-24.21-14.41,1.92-90.73,10.69-145.06-10.63l-1.65,17.34s14.85,3.31,12.96,3.91c-1.98.54-11.44,1.32-11.44,1.32l2.87,9.08c44.29,4.87,90.23,4.09,115.19,3.19Z"/>
                <g class="cls-1">
                  <path class="cls-9" d="m1256.33,968.44c8.45-.53,15.62-1.21,20.5-2.18,24.14-4.43,65.33-45.92,5.98-62l-27.7-3.77c-8.47,11.31-20.17,35.71,1.22,67.94Z"/>
                </g>
                <g class="cls-6">
                  <path class="cls-8" d="m1313.28,928.57c-.77-9.42-9.12-18.51-30.47-24.31l-111.05-15.07-1.3,19.89,15.94,6.63-16.91-.92-.32,1.69c58.3,21.11,129.65,13.86,144.11,12.09Z"/>
                </g>
                <path class="cls-7" d="m1246.92,905.09s-55.75-6.78-69.71-11.78l-3.22,11.12s40.09,7.65,72.92.66Z"/>
              </g>
              <g>
                <path class="cls-9" d="m1398.59,913.1s-89-5.49-122.27-15.64l-4.99,18.39,12.78,5.82-13.21.52-.63,9.67,12.82,5.16-17.66,1.63-1.6,14.05,17.99,3.59-15.85,2.93,2.98,11.78s76.51,3.51,122.36-13.91c45.81-17.54,30.41-42.1,7.28-44Z"/>
                <g class="cls-3">
                  <path class="cls-8" d="m1341.27,927.29c-5.1-.28-9.08-2.41-8.92-4.8.14-2.34,4.39-4.09,9.5-3.81,5.08.28,9.12,2.48,8.97,4.81-.16,2.41-4.46,4.08-9.54,3.8Z"/>
                  <path class="cls-8" d="m1358.25,936.87c-3.71-.2-6.6-1.8-6.49-3.53.1-1.69,3.2-2.98,6.9-2.77,3.62.19,6.47,1.8,6.37,3.49-.11,1.71-3.16,3-6.77,2.8Z"/>
                  <path class="cls-8" d="m1310.79,938.29c-3.03-.17-5.37-1.72-5.25-3.47.1-1.69,2.64-3.01,5.67-2.84,3.06.16,5.41,1.75,5.3,3.44-.11,1.75-2.66,3.04-5.71,2.87Z"/>
                </g>
                <path class="cls-10" d="m1391.31,957.1c13.76-5.25,22-11.15,26.14-16.89-32.64,2.09-101.89,5.85-152.54,3.09l-1.08,9.41,17.99,3.59-15.85,2.93,1.49,5.82c39.72,1.31,91.19-3.68,121.78-7.25.69-.21,1.38-.46,2.07-.71Z"/>
                <g class="cls-6">
                  <path class="cls-8" d="m1420.57,928.08c-1.75-8.03-10.97-14.09-21.97-14.98,0,0-89-5.49-122.27-15.64l-4.99,18.39,12.78,5.82-13.21.52-.19,2.87c56.76,8.46,114.2,6.07,149.85,3.02Z"/>
                </g>
                <g class="cls-1">
                  <path class="cls-9" d="m1372.91,962.65c6.44-1.51,12.69-3.35,18.4-5.55,45.81-17.54,30.41-42.1,7.28-44,0,0-9.46-.57-23.27-1.71-4.43,8.44-9.46,25.09-2.41,51.26Z"/>
                </g>
                <path class="cls-7" d="m1368.9,914.67s-53.84-3.57-86.09-10.41l-1.21,8.93s47.76,9.66,87.3,1.49Z"/>
              </g>
              <g>
                <path class="cls-9" d="m1504.3,903.43s-71.03,8.32-114.78,4.02l-3.07,17.87,16.2,2.79-16.51,1.68-1.94,10.19,8.21.46-8.42,2.75-2.74,22.32s73.5-6.87,129.18-21.96c0,0,26.38-37.1-6.13-40.12Z"/>
                <g class="cls-6">
                  <path class="cls-8" d="m1504.3,903.43s-71.03,8.32-114.78,4.02l-3.07,17.87,16.2,2.79-16.51,1.68-.52,2.8c58.94-.26,109-10.52,134.75-16.98-.73-6.13-5-11.13-16.07-12.17Z"/>
                </g>
                <g class="cls-6">
                  <path class="cls-8" d="m1460.23,925.12c-5.56.52-10.17-.8-10.31-2.94-.16-2.07,4.24-4.15,9.73-4.58,5.53-.51,10.13.83,10.25,2.92.2,2.06-4.2,4.14-9.68,4.6Z"/>
                  <path class="cls-8" d="m1427.88,928.71c-2.06-.1-3.69-1.18-3.61-2.37.09-1.2,1.84-1.99,3.89-1.88,2.06.11,3.59,1.09,3.51,2.29-.08,1.2-1.73,2.09-3.78,1.97Z"/>
                  <path class="cls-8" d="m1469.03,930.61c-1.94-.1-3.47-1.12-3.4-2.32.08-1.15,1.74-2.1,3.68-1.98,2.01.1,3.47,1.22,3.4,2.36-.08,1.2-1.67,2.06-3.68,1.94Z"/>
                </g>
                <path class="cls-10" d="m1510.43,943.55s5.44-7.62,8.38-16.35c-32.39,8.06-91.22,21.28-135.6,22.85l-.69,5.23c34.79,1.19,81.08-3.21,103.09-5.71,8.47-1.8,16.79-3.79,24.82-6.02Z"/>
                <g class="cls-1">
                  <path class="cls-9" d="m1494.16,947.69c5.48-1.24,10.97-2.62,16.26-4.14,0,0,26.38-37.1-6.13-40.12,0,0-7.37.84-18.79,1.88-2.28,9.03-3.42,25.02,8.66,42.38Z"/>
                </g>
                <path class="cls-7" d="m1478.96,907.86s-55.11,7.03-84.77,1.92l-1.84,11.05s55.59,3.03,86.61-12.97Z"/>
              </g>
              <g>
                <path class="cls-9" d="m1591.44,878.54s-63.63,21.02-98.76,19.11l3.91,16.98,12.63-.03-11.57,3.22-.56,18.67,13.37-2.52-13.19,8.86,6.3,10.05s77.13-25.41,97.38-36.45c20.23-11.15,17.16-40.89-9.51-37.9Z"/>
                <g class="cls-6">
                  <path class="cls-8" d="m1559.27,901.75c-4.61.87-8.62.05-8.94-1.86-.35-1.94,3.14-4.22,7.8-5.03,4.61-.91,8.6-.05,8.89,1.87.4,1.87-3.13,4.14-7.76,5.01Z"/>
                  <path class="cls-8" d="m1537.04,908.08c-2.32.4-4.3.02-4.51-.97-.13-.98,1.63-2.05,3.94-2.61,2.36-.35,4.4,0,4.54,1.05.15.9-1.62,2.06-3.96,2.53Z"/>
                </g>
                <g class="cls-6">
                  <path class="cls-8" d="m1591.44,878.54s-63.63,21.02-98.76,19.11l3.91,16.98,12.63-.03-11.57,3.22-.05,1.89c40.41-3.41,88.54-23.48,113.01-34.78-3.58-4.64-9.96-7.44-19.17-6.41Z"/>
                </g>
                <g class="cls-1">
                  <path class="cls-9" d="m1588.78,922.1c4.97-2.18,9.2-4.07,12.17-5.67,20.23-11.15,17.16-40.89-9.51-37.9,0,0-6.77,2.29-17.14,5.2-1.47,10.03-.19,24.78,14.48,38.36Z"/>
                </g>
                <path class="cls-7" d="m1560.51,889.75s-38.71,10.44-63.63,11.31c1.52,5.22,1.78,6.53,1.78,6.53,0,0,41.06-3.22,61.85-17.84Z"/>
                <path class="cls-10" d="m1600.95,916.43c7.61-4.21,11.96-11.08,12.9-17.78-20.08,10.67-59.7,29.07-106.12,37.11l-10.46,7.08,3.08,5.02c11.51-1.09,24.29-3.54,36.07-6.13,23.6-8.32,53.12-19.08,64.52-25.29Z"/>
              </g>
              <g>
                <path class="cls-9" d="m1645.04,858.27s-45.07,14.95-65.49,19.62l6.97,18.37,15.99-3.62-15.53,6.29,3.28,7.89,8.89-.84-7.21,4.14,5.25,15.07,87.37-46.73s-15.61-20.76-39.52-20.18Z"/>
                <g>
                  <path class="cls-4" d="m1600.65,893.08c-1.08.56-2.21,1.08-3.32,1.67l5.17-2.11-1.85.44Z"/>
                  <path class="cls-7" d="m1645.04,858.27s-45.07,14.95-65.49,19.62l6.97,18.37,14.13-3.18c19.04-9.72,37.98-22.23,53.98-33.86-3.02-.62-6.21-.99-9.59-.95Z"/>
                </g>
                <path class="cls-7" d="m1619.01,890.07c-4.46,1.46-8.67.74-9.39-1.63-.7-2.34,2.34-5.42,6.82-6.93,4.46-1.53,8.67-.83,9.35,1.63.75,2.3-2.24,5.49-6.77,6.94Z"/>
                <path class="cls-7" d="m1634.46,864.42s-29.72,9.59-49.07,14.15l1.65,5.99s32.73-8.1,47.42-20.14Z"/>
                <path class="cls-10" d="m1597.19,925.18l87.37-46.73s-5.7-7.64-15.61-13.53c-18.39,14.4-44.77,30.61-78.9,41.29l.21.61,8.89-.84-7.21,4.14,5.25,15.07Z"/>
              </g>
            </g>
            <g>
              <g>
                <path class="cls-9" d="m755.51,890.44l81.03-23.91,3.9,22.61-11,8.58,12.61-2.11,1.56,6.5-6.08,6.23,8.88,1.53,4.21,21.72s-10.66,4.82-9.14,5.29c1.54.48,8.75.82,8.75.82l-1.61,21.22s-60.72,5.52-79.54,1.89c-18.84-3.65-55.64-48.47-13.57-70.38Z"/>
                <g class="cls-3">
                  <path class="cls-8" d="m795.54,913.04c4.51-.73,7.69-3.76,7.15-6.77-.41-3.07-4.55-4.9-9.01-4.19-4.5.81-7.72,3.81-7.18,6.86.48,3.06,4.54,4.85,9.04,4.09Z"/>
                  <path class="cls-8" d="m816.23,912.63c2.1-.32,3.51-1.92,3.22-3.51-.23-1.62-2.15-2.67-4.2-2.36-2.05.36-3.45,1.95-3.22,3.56.27,1.59,2.17,2.67,4.2,2.3Z"/>
                </g>
                <path class="cls-10" d="m763.52,958.8c-8.6-4.26-18.67-14.33-23.86-25.86,11.03,1.26,69.57,6.67,107.17-20.99l3.78,19.65s-10.66,4.82-9.14,5.29c1.54.48,8.75.82,8.75.82l-.78,10.61c-32.56,8.14-67.1,10.1-85.92,10.48Z"/>
                <g class="cls-1">
                  <path class="cls-9" d="m784.75,962.02c-6.39-.09-11.87-.47-15.67-1.2-18.84-3.65-55.64-48.47-13.57-70.38l20.21-5.95c8.04,12.45,20.38,39.51,9.03,77.53Z"/>
                </g>
                <g class="cls-6">
                  <path class="cls-8" d="m736.27,920.02c-.79-10.83,4.1-21.67,19.24-29.58l81.03-23.91,3.9,22.61-11,8.58,12.61-2.11.46,1.88c-40.65,27.59-95.09,23.65-106.23,22.52Z"/>
                </g>
                <path class="cls-7" d="m782.56,889.22s40.8-11.13,50.64-17.59l3.99,12.53s-28.93,11.13-54.63,5.06Z"/>
              </g>
              <g>
                <path class="cls-9" d="m653.52,897.98l111.04-15.08,1.31,19.89-15.94,6.63,16.91-.91.97,5.74-9.09,4.93,11.48,2.02,1.86,19.21s-14.84,3.32-12.95,3.92c1.98.54,11.44,1.32,11.44,1.32l-5.71,18.31s-81.14.55-105.33-3.98c-24.13-4.43-65.32-45.91-5.97-61.99Z"/>
                <g class="cls-3">
                  <path class="cls-8" d="m702.58,920.4c6.05-.34,10.74-2.77,10.56-5.45-.17-2.65-5.14-4.51-11.2-4.17-6.11.33-10.88,2.7-10.71,5.36.17,2.69,5.24,4.59,11.35,4.27Z"/>
                  <path class="cls-8" d="m729.95,921.44c2.72-.15,4.91-1.43,4.82-2.8-.1-1.45-2.43-2.47-5.16-2.31-2.76.15-4.98,1.41-4.88,2.86.08,1.36,2.45,2.4,5.22,2.24Z"/>
                </g>
                <path class="cls-10" d="m652.48,957.92c-10.62-4.39-22.17-13.79-27.13-24.21,14.41,1.91,90.73,10.68,145.06-10.63l1.64,17.33s-14.84,3.32-12.95,3.92c1.98.54,11.44,1.32,11.44,1.32l-2.87,9.08c-44.29,4.86-90.22,4.09-115.19,3.19Z"/>
                <g class="cls-1">
                  <path class="cls-9" d="m680,962.16c-8.45-.54-15.62-1.21-20.5-2.18-24.13-4.43-65.32-45.91-5.97-61.99l27.69-3.78c8.48,11.31,20.17,35.71-1.22,67.95Z"/>
                </g>
                <g class="cls-6">
                  <path class="cls-8" d="m623.05,922.29c.76-9.42,9.11-18.51,30.47-24.31l111.04-15.08,1.31,19.89-15.94,6.63,16.91-.91.32,1.69c-58.29,21.1-129.64,13.86-144.1,12.09Z"/>
                </g>
                <path class="cls-7" d="m689.41,898.81s55.75-6.79,69.71-11.79l3.22,11.12s-40.09,7.66-72.93.67Z"/>
              </g>
              <g>
                <path class="cls-9" d="m537.73,906.81s89-5.49,122.28-15.64l4.99,18.39-12.78,5.82,13.2.52.63,9.67-12.82,5.15,17.66,1.63,1.6,14.05-17.99,3.59,15.86,2.94-2.98,11.78s-76.51,3.51-122.36-13.91c-45.82-17.55-30.42-42.11-7.29-44.01Z"/>
                <g class="cls-3">
                  <path class="cls-8" d="m595.05,921.01c5.1-.28,9.09-2.41,8.93-4.81-.14-2.33-4.39-4.08-9.5-3.81-5.08.28-9.12,2.48-8.97,4.82.16,2.4,4.46,4.08,9.54,3.8Z"/>
                  <path class="cls-8" d="m578.08,930.59c3.7-.2,6.6-1.81,6.48-3.53-.11-1.7-3.2-2.98-6.9-2.78-3.61.19-6.47,1.8-6.36,3.5.11,1.71,3.15,3,6.77,2.8Z"/>
                  <path class="cls-8" d="m625.54,932c3.03-.16,5.37-1.71,5.25-3.47-.1-1.69-2.64-3.02-5.66-2.84-3.06.15-5.42,1.74-5.3,3.44.11,1.75,2.65,3.03,5.71,2.86Z"/>
                </g>
                <path class="cls-10" d="m545.02,950.82c-13.76-5.25-22.01-11.15-26.14-16.89,32.64,2.09,101.9,5.84,152.54,3.09l1.08,9.4-17.99,3.59,15.86,2.94-1.49,5.81c-39.71,1.32-91.19-3.68-121.78-7.24-.69-.21-1.37-.47-2.07-.71Z"/>
                <g class="cls-6">
                  <path class="cls-8" d="m515.76,921.79c1.75-8.02,10.97-14.09,21.97-14.98,0,0,89-5.49,122.28-15.64l4.99,18.39-12.78,5.82,13.2.52.18,2.86c-56.75,8.47-114.19,6.08-149.84,3.02Z"/>
                </g>
                <g class="cls-1">
                  <path class="cls-9" d="m563.42,956.36c-6.45-1.5-12.69-3.35-18.4-5.54-45.82-17.55-30.42-42.11-7.29-44.01,0,0,9.46-.56,23.28-1.71,4.43,8.44,9.46,25.09,2.41,51.26Z"/>
                </g>
                <path class="cls-7" d="m567.43,908.39s53.83-3.56,86.09-10.41l1.21,8.92s-47.76,9.67-87.3,1.49Z"/>
              </g>
              <g>
                <path class="cls-9" d="m432.03,897.15s71.03,8.33,114.78,4.02l3.08,17.87-16.2,2.79,16.5,1.68,1.94,10.19-8.21.45,8.42,2.76,2.74,22.32s-73.49-6.86-129.18-21.96c0,0-26.38-37.1,6.13-40.12Z"/>
                <g class="cls-6">
                  <path class="cls-8" d="m432.03,897.15s71.03,8.33,114.78,4.02l3.08,17.87-16.2,2.79,16.5,1.68.53,2.8c-58.95-.26-109.01-10.52-134.76-16.98.73-6.13,5-11.14,16.07-12.18Z"/>
                </g>
                <g class="cls-6">
                  <path class="cls-8" d="m476.09,918.83c5.56.52,10.16-.79,10.31-2.94.17-2.06-4.24-4.15-9.73-4.57-5.53-.52-10.12.82-10.24,2.92-.2,2.06,4.2,4.13,9.67,4.59Z"/>
                  <path class="cls-8" d="m508.45,922.44c2.06-.11,3.69-1.18,3.62-2.37-.09-1.2-1.84-1.99-3.9-1.89-2.06.11-3.58,1.09-3.5,2.29.08,1.2,1.74,2.09,3.78,1.98Z"/>
                  <path class="cls-8" d="m467.29,924.33c1.94-.11,3.48-1.13,3.4-2.33-.07-1.14-1.74-2.09-3.68-1.98-2.01.1-3.47,1.22-3.39,2.36.07,1.2,1.67,2.05,3.68,1.94Z"/>
                </g>
                <path class="cls-10" d="m425.9,937.26s-5.44-7.61-8.38-16.34c32.39,8.06,91.21,21.27,135.61,22.84l.69,5.24c-34.79,1.19-81.08-3.21-103.09-5.72-8.47-1.8-16.8-3.79-24.83-6.02Z"/>
                <g class="cls-1">
                  <path class="cls-9" d="m442.16,941.41c-5.48-1.24-10.97-2.62-16.26-4.14,0,0-26.38-37.1,6.13-40.12,0,0,7.37.85,18.79,1.88,2.27,9.04,3.41,25.02-8.66,42.38Z"/>
                </g>
                <path class="cls-7" d="m457.36,901.58s55.12,7.03,84.76,1.92l1.84,11.04s-55.59,3.03-86.61-12.96Z"/>
              </g>
              <g>
                <path class="cls-9" d="m344.88,872.26s63.64,21.02,98.77,19.11l-3.92,16.98-12.62-.03,11.57,3.23.55,18.66-13.37-2.51,13.2,8.85-6.31,10.06s-77.14-25.41-97.38-36.46c-20.23-11.14-17.16-40.88,9.5-37.89Z"/>
                <g class="cls-6">
                  <path class="cls-8" d="m377.05,895.47c4.61.86,8.62.04,8.95-1.87.35-1.94-3.14-4.22-7.8-5.02-4.62-.92-8.6-.05-8.9,1.87-.4,1.87,3.14,4.14,7.76,5.01Z"/>
                  <path class="cls-8" d="m399.29,901.8c2.31.4,4.3,0,4.51-.97.14-.98-1.62-2.06-3.93-2.61-2.36-.35-4.4.02-4.54,1.06-.15.9,1.62,2.06,3.96,2.53Z"/>
                </g>
                <g class="cls-6">
                  <path class="cls-8" d="m344.88,872.26s63.64,21.02,98.77,19.11l-3.92,16.98-12.62-.03,11.57,3.23.04,1.89c-40.41-3.41-88.54-23.49-113-34.79,3.58-4.64,9.97-7.44,19.16-6.4Z"/>
                </g>
                <g class="cls-1">
                  <path class="cls-9" d="m347.55,915.82c-4.97-2.18-9.19-4.07-12.17-5.68-20.23-11.14-17.16-40.88,9.5-37.89,0,0,6.78,2.29,17.15,5.19,1.46,10.04.18,24.78-14.48,38.37Z"/>
                </g>
                <path class="cls-7" d="m375.81,883.47s38.72,10.43,63.63,11.3c-1.52,5.23-1.78,6.54-1.78,6.54,0,0-41.05-3.22-61.85-17.84Z"/>
                <path class="cls-10" d="m335.38,910.15c-7.6-4.21-11.96-11.08-12.9-17.78,20.08,10.67,59.7,29.07,106.11,37.12l10.47,7.07-3.09,5.02c-11.52-1.09-24.3-3.53-36.07-6.12-23.6-8.32-53.12-19.09-64.52-25.3Z"/>
              </g>
              <g>
                <path class="cls-9" d="m291.28,851.99s45.07,14.94,65.5,19.62l-6.98,18.37-15.99-3.61,15.53,6.29-3.28,7.89-8.89-.85,7.2,4.14-5.26,15.07-87.36-46.72s15.6-20.76,39.52-20.18Z"/>
                <g>
                  <path class="cls-4" d="m335.67,886.79c1.08.57,2.22,1.09,3.32,1.68l-5.17-2.11,1.85.43Z"/>
                  <path class="cls-7" d="m291.28,851.99s45.07,14.94,65.5,19.62l-6.98,18.37-14.14-3.18c-19.04-9.72-37.97-22.23-53.98-33.86,3.02-.62,6.22-.98,9.59-.95Z"/>
                </g>
                <path class="cls-7" d="m317.32,883.78c4.45,1.46,8.66.75,9.39-1.63.7-2.35-2.34-5.42-6.82-6.94-4.46-1.52-8.67-.82-9.35,1.63-.75,2.3,2.25,5.49,6.78,6.94Z"/>
                <path class="cls-7" d="m301.86,858.13s29.72,9.59,49.06,14.15l-1.64,5.99s-32.73-8.1-47.42-20.14Z"/>
                <path class="cls-10" d="m339.13,918.89l-87.36-46.72s5.7-7.64,15.61-13.54c18.38,14.4,44.77,30.61,78.9,41.29l-.21.62-8.89-.85,7.2,4.14-5.26,15.07Z"/>
              </g>
            </g>
          </g>
          <g>
            <g>
              <g>
                <path class="cls-9" d="m1123.6,244.1l81.03,23.9,3.9-22.61-11-8.58,12.61,2.1,1.56-6.5-6.08-6.23,8.88-1.54,4.21-21.72s-10.65-4.81-9.14-5.29c1.54-.48,8.75-.81,8.75-.81l-1.61-21.22s-60.72-5.52-79.54-1.9c-18.84,3.65-55.64,48.47-13.57,70.38Z"/>
                <g class="cls-3">
                  <path class="cls-8" d="m1163.63,221.5c4.51.73,7.69,3.76,7.15,6.76-.41,3.07-4.55,4.9-9.01,4.19-4.5-.81-7.72-3.81-7.18-6.86.48-3.06,4.53-4.85,9.04-4.09Z"/>
                  <path class="cls-8" d="m1184.33,221.91c2.09.32,3.51,1.91,3.22,3.51-.23,1.62-2.15,2.67-4.2,2.36-2.05-.37-3.45-1.96-3.23-3.56.27-1.6,2.17-2.67,4.21-2.3Z"/>
                </g>
                <path class="cls-10" d="m1131.61,175.74c-8.6,4.26-18.67,14.33-23.86,25.86,11.04-1.26,69.57-6.67,107.17,21l3.78-19.65s-10.65-4.81-9.14-5.29c1.54-.48,8.75-.81,8.75-.81l-.79-10.62c-32.56-8.14-67.1-10.1-85.92-10.48Z"/>
                <g class="cls-1">
                  <path class="cls-9" d="m1152.84,172.52c-6.39.09-11.86.48-15.67,1.2-18.84,3.65-55.64,48.47-13.57,70.38l20.21,5.95c8.04-12.45,20.38-39.52,9.03-77.54Z"/>
                </g>
                <g class="cls-6">
                  <path class="cls-8" d="m1104.37,214.52c-.79,10.82,4.1,21.67,19.23,29.58l81.03,23.9,3.9-22.61-11-8.58,12.61,2.1.46-1.88c-40.65-27.59-95.1-23.65-106.23-22.52Z"/>
                </g>
                <path class="cls-7" d="m1150.66,245.32s40.8,11.13,50.65,17.59l3.98-12.53s-28.93-11.13-54.63-5.07Z"/>
              </g>
              <g>
                <path class="cls-9" d="m1021.62,236.56l111.04,15.07,1.31-19.89-15.94-6.63,16.9.92.97-5.74-9.09-4.93,11.48-2.02,1.85-19.21s-14.84-3.32-12.95-3.92c1.98-.54,11.44-1.32,11.44-1.32l-5.71-18.31s-81.14-.55-105.33,3.98c-24.13,4.43-65.32,45.92-5.97,62Z"/>
                <g class="cls-3">
                  <path class="cls-8" d="m1070.68,214.14c6.04.33,10.74,2.76,10.56,5.45-.17,2.65-5.15,4.51-11.2,4.17-6.1-.33-10.88-2.7-10.71-5.36.18-2.69,5.24-4.59,11.35-4.26Z"/>
                  <path class="cls-8" d="m1098.04,213.1c2.72.16,4.92,1.43,4.82,2.79-.09,1.45-2.43,2.47-5.16,2.32-2.76-.15-4.98-1.41-4.87-2.87.08-1.35,2.45-2.39,5.21-2.24Z"/>
                </g>
                <path class="cls-10" d="m1020.58,176.62c-10.62,4.38-22.17,13.78-27.13,24.21,14.41-1.91,90.73-10.68,145.06,10.63l1.64-17.33s-14.84-3.32-12.95-3.92c1.98-.54,11.44-1.32,11.44-1.32l-2.87-9.08c-44.29-4.86-90.23-4.09-115.19-3.19Z"/>
                <g class="cls-1">
                  <path class="cls-9" d="m1048.09,172.38c-8.46.54-15.63,1.21-20.51,2.18-24.13,4.43-65.32,45.92-5.97,62l27.69,3.77c8.48-11.31,20.17-35.71-1.21-67.95Z"/>
                </g>
                <g class="cls-6">
                  <path class="cls-8" d="m991.15,212.25c.76,9.42,9.11,18.51,30.47,24.31l111.04,15.07,1.31-19.89-15.94-6.63,16.9.92.32-1.69c-58.29-21.11-129.64-13.86-144.1-12.09Z"/>
                </g>
                <path class="cls-7" d="m1057.51,235.73s55.75,6.79,69.71,11.79l3.22-11.12s-40.09-7.66-72.92-.67Z"/>
              </g>
              <g>
                <path class="cls-9" d="m905.82,227.73s89.01,5.49,122.28,15.64l4.99-18.39-12.78-5.82,13.21-.52.63-9.67-12.83-5.16,17.66-1.63,1.6-14.05-17.98-3.59,15.85-2.94-2.98-11.78s-76.51-3.51-122.37,13.91c-45.82,17.55-30.42,42.11-7.29,44.01Z"/>
                <g class="cls-3">
                  <path class="cls-8" d="m963.15,213.53c5.11.28,9.09,2.41,8.93,4.8-.14,2.33-4.4,4.08-9.5,3.81-5.09-.28-9.13-2.48-8.98-4.81.16-2.4,4.46-4.08,9.54-3.8Z"/>
                  <path class="cls-8" d="m946.17,203.95c3.7.2,6.6,1.8,6.48,3.53-.1,1.7-3.2,2.98-6.9,2.77-3.62-.19-6.47-1.8-6.36-3.5.11-1.71,3.16-3,6.77-2.8Z"/>
                  <path class="cls-8" d="m993.64,202.54c3.03.17,5.37,1.72,5.25,3.47-.1,1.69-2.64,3.01-5.67,2.84-3.06-.16-5.41-1.74-5.3-3.44.11-1.75,2.65-3.03,5.71-2.87Z"/>
                </g>
                <path class="cls-10" d="m913.11,183.72c-13.76,5.25-22.01,11.15-26.14,16.89,32.64-2.09,101.9-5.84,152.54-3.09l1.08-9.4-17.98-3.59,15.85-2.94-1.49-5.82c-39.71-1.31-91.19,3.68-121.78,7.25-.69.21-1.37.47-2.07.7Z"/>
                <g class="cls-6">
                  <path class="cls-8" d="m883.86,212.74c1.75,8.03,10.97,14.09,21.97,14.98,0,0,89.01,5.49,122.28,15.64l4.99-18.39-12.78-5.82,13.21-.52.18-2.87c-56.75-8.47-114.19-6.08-149.84-3.02Z"/>
                </g>
                <g class="cls-1">
                  <path class="cls-9" d="m931.51,178.17c-6.45,1.51-12.69,3.35-18.4,5.54-45.82,17.55-30.42,42.11-7.29,44.01,0,0,9.46.56,23.28,1.71,4.43-8.44,9.46-25.09,2.41-51.26Z"/>
                </g>
                <path class="cls-7" d="m935.52,226.15s53.84,3.56,86.1,10.41l1.21-8.92s-47.76-9.66-87.31-1.49Z"/>
              </g>
              <g>
                <path class="cls-9" d="m800.12,237.39s71.03-8.33,114.78-4.02l3.08-17.87-16.2-2.79,16.5-1.68,1.94-10.19-8.21-.45,8.42-2.76,2.74-22.32s-73.49,6.87-129.18,21.96c0,0-26.38,37.1,6.13,40.12Z"/>
                <g class="cls-6">
                  <path class="cls-8" d="m800.12,237.39s71.03-8.33,114.78-4.02l3.08-17.87-16.2-2.79,16.5-1.68.53-2.79c-58.94.26-109,10.52-134.75,16.98.73,6.13,5,11.13,16.07,12.17Z"/>
                </g>
                <g class="cls-6">
                  <path class="cls-8" d="m844.19,215.7c5.56-.52,10.16.8,10.31,2.94.17,2.07-4.24,4.15-9.73,4.58-5.53.51-10.12-.82-10.24-2.92-.2-2.06,4.2-4.13,9.67-4.6Z"/>
                  <path class="cls-8" d="m876.54,212.1c2.06.11,3.69,1.18,3.62,2.37-.09,1.2-1.84,2-3.9,1.89-2.06-.11-3.58-1.09-3.5-2.29.08-1.2,1.74-2.09,3.78-1.97Z"/>
                  <path class="cls-8" d="m835.38,210.21c1.94.11,3.48,1.12,3.4,2.33-.07,1.15-1.74,2.09-3.68,1.98-2.01-.1-3.47-1.22-3.39-2.36.07-1.2,1.67-2.05,3.68-1.94Z"/>
                </g>
                <path class="cls-10" d="m793.99,197.27s-5.44,7.61-8.38,16.34c32.39-8.06,91.21-21.27,135.6-22.84l.69-5.23c-34.79-1.19-81.08,3.21-103.09,5.71-8.47,1.8-16.8,3.79-24.83,6.02Z"/>
                <g class="cls-1">
                  <path class="cls-9" d="m810.26,193.13c-5.48,1.24-10.97,2.62-16.26,4.14,0,0-26.38,37.1,6.13,40.12,0,0,7.37-.85,18.79-1.88,2.27-9.03,3.41-25.02-8.66-42.38Z"/>
                </g>
                <path class="cls-7" d="m825.46,232.96s55.12-7.03,84.76-1.92l1.84-11.05s-55.59-3.03-86.61,12.96Z"/>
              </g>
              <g>
                <path class="cls-9" d="m712.98,262.28s63.64-21.02,98.77-19.11l-3.92-16.98-12.62.03,11.57-3.23.55-18.67-13.37,2.52,13.2-8.85-6.31-10.06s-77.14,25.41-97.38,36.46c-20.23,11.15-17.16,40.89,9.5,37.89Z"/>
                <g class="cls-6">
                  <path class="cls-8" d="m745.15,239.07c4.61-.86,8.62-.05,8.95,1.86.35,1.94-3.14,4.22-7.8,5.03-4.62.92-8.6.05-8.9-1.87-.4-1.87,3.14-4.14,7.76-5.01Z"/>
                  <path class="cls-8" d="m767.38,232.74c2.31-.4,4.3-.01,4.51.97.14.98-1.62,2.05-3.93,2.61-2.36.35-4.4-.01-4.54-1.05-.15-.9,1.62-2.06,3.96-2.53Z"/>
                </g>
                <g class="cls-6">
                  <path class="cls-8" d="m712.98,262.28s63.64-21.02,98.77-19.11l-3.92-16.98-12.62.03,11.57-3.23.04-1.89c-40.41,3.41-88.54,23.48-113,34.78,3.58,4.64,9.97,7.44,19.16,6.4Z"/>
                </g>
                <g class="cls-1">
                  <path class="cls-9" d="m715.64,218.72c-4.97,2.18-9.19,4.07-12.17,5.67-20.23,11.15-17.16,40.89,9.5,37.89,0,0,6.78-2.29,17.15-5.2,1.46-10.03.18-24.78-14.48-38.37Z"/>
                </g>
                <path class="cls-7" d="m743.9,251.07s38.72-10.44,63.63-11.3c-1.52-5.22-1.78-6.53-1.78-6.53,0,0-41.05,3.22-61.85,17.84Z"/>
                <path class="cls-10" d="m703.47,224.39c-7.6,4.21-11.96,11.08-12.9,17.78,20.08-10.67,59.7-29.07,106.11-37.11l10.47-7.07-3.09-5.02c-11.52,1.09-24.3,3.54-36.07,6.13-23.6,8.32-53.12,19.09-64.52,25.3Z"/>
              </g>
              <g>
                <path class="cls-9" d="m659.38,282.55s45.07-14.94,65.5-19.62l-6.98-18.37-15.99,3.62,15.53-6.29-3.28-7.89-8.89.85,7.2-4.14-5.26-15.07-87.36,46.73s15.6,20.76,39.52,20.18Z"/>
                <g>
                  <path class="cls-4" d="m703.76,247.74c1.08-.56,2.22-1.09,3.32-1.67l-5.17,2.11,1.85-.43Z"/>
                  <path class="cls-7" d="m659.38,282.55s45.07-14.94,65.5-19.62l-6.98-18.37-14.14,3.18c-19.04,9.72-37.97,22.23-53.98,33.86,3.02.62,6.22.98,9.59.95Z"/>
                </g>
                <path class="cls-7" d="m685.41,250.75c4.45-1.46,8.66-.74,9.39,1.63.7,2.34-2.34,5.42-6.82,6.94-4.46,1.53-8.67.82-9.35-1.63-.75-2.3,2.25-5.49,6.78-6.94Z"/>
                <path class="cls-7" d="m669.96,276.41s29.72-9.59,49.06-14.15l-1.64-5.99s-32.73,8.1-47.42,20.14Z"/>
                <path class="cls-10" d="m707.23,215.64l-87.36,46.73s5.7,7.64,15.61,13.53c18.38-14.4,44.77-30.61,78.9-41.29l-.21-.62-8.89.85,7.2-4.14-5.26-15.07Z"/>
              </g>
            </g>
            <g>
              <g>
                <path class="cls-9" d="m1171.14,248.83l-81.03,23.9-3.9-22.61,11-8.58-12.62,2.1-1.55-6.5,6.07-6.23-8.87-1.53-4.21-21.72s10.65-4.81,9.13-5.29c-1.53-.48-8.74-.81-8.74-.81l1.61-21.22s60.71-5.52,79.54-1.9c18.84,3.65,55.63,48.47,13.57,70.38Z"/>
                <g class="cls-3">
                  <path class="cls-8" d="m1131.1,226.23c-4.51.73-7.69,3.76-7.15,6.76.41,3.07,4.55,4.9,9.01,4.19,4.5-.81,7.72-3.81,7.18-6.86-.48-3.06-4.54-4.85-9.04-4.09Z"/>
                  <path class="cls-8" d="m1110.41,226.63c-2.09.32-3.51,1.91-3.23,3.51.23,1.62,2.16,2.67,4.21,2.36,2.05-.37,3.45-1.96,3.22-3.56-.26-1.6-2.17-2.67-4.2-2.3Z"/>
                </g>
                <path class="cls-10" d="m1163.12,180.47c8.6,4.26,18.67,14.33,23.85,25.86-11.03-1.26-69.57-6.67-107.17,21l-3.77-19.65s10.65-4.81,9.13-5.29c-1.53-.48-8.74-.81-8.74-.81l.79-10.62c32.56-8.14,67.1-10.1,85.92-10.48Z"/>
                <g class="cls-1">
                  <path class="cls-9" d="m1141.89,177.24c6.39.09,11.87.48,15.67,1.2,18.84,3.65,55.63,48.47,13.57,70.38l-20.22,5.95c-8.03-12.45-20.37-39.52-9.03-77.54Z"/>
                </g>
                <g class="cls-6">
                  <path class="cls-8" d="m1190.37,219.25c.79,10.82-4.1,21.67-19.23,29.58l-81.03,23.9-3.9-22.61,11-8.58-12.62,2.1-.45-1.88c40.65-27.59,95.09-23.65,106.23-22.52Z"/>
                </g>
                <path class="cls-7" d="m1144.08,250.05s-40.8,11.13-50.65,17.59l-3.98-12.53s28.93-11.13,54.63-5.07Z"/>
              </g>
              <g>
                <path class="cls-9" d="m1273.12,241.29l-111.05,15.07-1.3-19.89,15.94-6.63-16.91.92-.96-5.74,9.09-4.93-11.48-2.03-1.86-19.21s14.85-3.32,12.96-3.92c-1.98-.54-11.44-1.32-11.44-1.32l5.7-18.31s81.14-.55,105.33,3.98c24.14,4.43,65.33,45.92,5.98,62Z"/>
                <g class="cls-3">
                  <path class="cls-8" d="m1224.06,218.87c-6.04.33-10.74,2.76-10.56,5.45.17,2.65,5.15,4.51,11.2,4.17,6.1-.33,10.88-2.7,10.7-5.36-.17-2.69-5.23-4.59-11.34-4.26Z"/>
                  <path class="cls-8" d="m1196.7,217.82c-2.72.16-4.92,1.43-4.82,2.8.09,1.45,2.43,2.47,5.16,2.32,2.76-.15,4.98-1.41,4.88-2.87-.09-1.35-2.46-2.4-5.21-2.24Z"/>
                </g>
                <path class="cls-10" d="m1274.16,181.35c10.61,4.38,22.17,13.78,27.13,24.21-14.41-1.91-90.73-10.69-145.06,10.63l-1.65-17.33s14.85-3.32,12.96-3.92c-1.98-.54-11.44-1.32-11.44-1.32l2.87-9.08c44.29-4.86,90.23-4.09,115.19-3.19Z"/>
                <g class="cls-1">
                  <path class="cls-9" d="m1246.64,177.11c8.45.54,15.62,1.21,20.5,2.18,24.14,4.43,65.33,45.92,5.98,62l-27.7,3.77c-8.47-11.31-20.17-35.71,1.22-67.95Z"/>
                </g>
                <g class="cls-6">
                  <path class="cls-8" d="m1303.59,216.98c-.77,9.42-9.12,18.51-30.47,24.31l-111.05,15.07-1.3-19.89,15.94-6.63-16.91.92-.32-1.69c58.3-21.11,129.65-13.86,144.11-12.09Z"/>
                </g>
                <path class="cls-7" d="m1237.23,240.45s-55.75,6.79-69.71,11.79l-3.22-11.12s40.09-7.66,72.92-.67Z"/>
              </g>
              <g>
                <path class="cls-9" d="m1388.91,232.45s-89,5.49-122.27,15.64l-4.99-18.39,12.78-5.82-13.21-.52-.63-9.67,12.82-5.16-17.66-1.63-1.6-14.05,17.99-3.59-15.85-2.94,2.98-11.78s76.51-3.51,122.36,13.91c45.81,17.55,30.41,42.11,7.28,44.01Z"/>
                <g class="cls-3">
                  <path class="cls-8" d="m1331.58,218.26c-5.1.28-9.08,2.41-8.92,4.8.14,2.33,4.39,4.08,9.5,3.81,5.08-.28,9.12-2.48,8.97-4.81-.16-2.4-4.46-4.08-9.54-3.8Z"/>
                  <path class="cls-8" d="m1348.56,208.68c-3.71.2-6.6,1.8-6.49,3.53.1,1.7,3.2,2.98,6.9,2.77,3.62-.19,6.47-1.8,6.37-3.5-.11-1.71-3.16-3-6.77-2.8Z"/>
                  <path class="cls-8" d="m1301.1,207.26c-3.03.17-5.37,1.72-5.25,3.47.1,1.69,2.64,3.01,5.67,2.84,3.06-.16,5.41-1.74,5.3-3.44-.11-1.75-2.66-3.03-5.71-2.87Z"/>
                </g>
                <path class="cls-10" d="m1381.62,188.44c13.76,5.25,22,11.15,26.14,16.89-32.64-2.09-101.89-5.84-152.54-3.09l-1.08-9.4,17.99-3.59-15.85-2.94,1.49-5.82c39.72-1.31,91.19,3.68,121.78,7.25.69.21,1.38.47,2.07.71Z"/>
                <g class="cls-6">
                  <path class="cls-8" d="m1410.88,217.47c-1.75,8.03-10.97,14.09-21.97,14.98,0,0-89,5.49-122.27,15.64l-4.99-18.39,12.78-5.82-13.21-.52-.19-2.87c56.76-8.47,114.2-6.08,149.85-3.02Z"/>
                </g>
                <g class="cls-1">
                  <path class="cls-9" d="m1363.22,182.9c6.44,1.51,12.69,3.35,18.4,5.54,45.81,17.55,30.41,42.11,7.28,44.01,0,0-9.46.56-23.27,1.71-4.43-8.44-9.46-25.09-2.41-51.26Z"/>
                </g>
                <path class="cls-7" d="m1359.21,230.88s-53.84,3.56-86.09,10.41l-1.21-8.92s47.76-9.66,87.3-1.49Z"/>
              </g>
              <g>
                <path class="cls-9" d="m1494.61,242.12s-71.03-8.33-114.78-4.02l-3.07-17.87,16.2-2.79-16.51-1.68-1.94-10.19,8.21-.45-8.42-2.76-2.74-22.32s73.5,6.87,129.18,21.96c0,0,26.38,37.1-6.13,40.12Z"/>
                <g class="cls-6">
                  <path class="cls-8" d="m1494.61,242.12s-71.03-8.33-114.78-4.02l-3.07-17.87,16.2-2.79-16.51-1.68-.52-2.8c58.94.26,109,10.52,134.75,16.98-.73,6.13-5,11.13-16.07,12.17Z"/>
                </g>
                <g class="cls-6">
                  <path class="cls-8" d="m1450.55,220.43c-5.56-.52-10.17.8-10.31,2.94-.16,2.07,4.24,4.15,9.73,4.58,5.53.51,10.13-.82,10.25-2.92.2-2.06-4.2-4.13-9.68-4.6Z"/>
                  <path class="cls-8" d="m1418.19,216.83c-2.06.11-3.69,1.18-3.61,2.37.09,1.2,1.84,1.99,3.89,1.89,2.06-.11,3.59-1.09,3.51-2.29-.08-1.2-1.73-2.09-3.78-1.97Z"/>
                  <path class="cls-8" d="m1459.34,214.94c-1.94.11-3.47,1.12-3.4,2.33.08,1.15,1.74,2.09,3.68,1.98,2.01-.1,3.47-1.22,3.4-2.36-.08-1.2-1.67-2.05-3.68-1.94Z"/>
                </g>
                <path class="cls-10" d="m1500.74,202s5.44,7.61,8.38,16.34c-32.39-8.06-91.22-21.27-135.6-22.84l-.69-5.23c34.79-1.19,81.08,3.21,103.09,5.71,8.47,1.8,16.79,3.79,24.82,6.02Z"/>
                <g class="cls-1">
                  <path class="cls-9" d="m1484.48,197.85c5.48,1.24,10.97,2.62,16.26,4.14,0,0,26.38,37.1-6.13,40.12,0,0-7.37-.85-18.79-1.88-2.28-9.03-3.42-25.02,8.66-42.38Z"/>
                </g>
                <path class="cls-7" d="m1469.28,237.68s-55.11-7.03-84.77-1.92l-1.84-11.05s55.59-3.03,86.61,12.96Z"/>
              </g>
              <g>
                <path class="cls-9" d="m1581.75,267.01s-63.63-21.02-98.76-19.11l3.91-16.98,12.63.03-11.57-3.23-.56-18.67,13.37,2.52-13.19-8.85,6.3-10.06s77.13,25.41,97.38,36.46c20.23,11.15,17.16,40.89-9.51,37.89Z"/>
                <g class="cls-6">
                  <path class="cls-8" d="m1549.58,243.8c-4.61-.86-8.62-.05-8.94,1.86-.35,1.94,3.14,4.22,7.8,5.03,4.61.92,8.6.05,8.89-1.87.4-1.87-3.13-4.14-7.76-5.01Z"/>
                  <path class="cls-8" d="m1527.35,237.47c-2.32-.4-4.3-.01-4.51.97-.13.98,1.63,2.05,3.94,2.61,2.36.35,4.4-.01,4.54-1.05.15-.9-1.62-2.06-3.96-2.53Z"/>
                </g>
                <g class="cls-6">
                  <path class="cls-8" d="m1581.75,267.01s-63.63-21.02-98.76-19.11l3.91-16.98,12.63.03-11.57-3.23-.05-1.89c40.41,3.41,88.54,23.48,113.01,34.78-3.58,4.64-9.96,7.44-19.17,6.4Z"/>
                </g>
                <g class="cls-1">
                  <path class="cls-9" d="m1579.09,223.44c4.97,2.18,9.2,4.07,12.17,5.67,20.23,11.15,17.16,40.89-9.51,37.89,0,0-6.77-2.29-17.14-5.2-1.47-10.03-.19-24.78,14.48-38.37Z"/>
                </g>
                <path class="cls-7" d="m1550.83,255.79s-38.71-10.44-63.63-11.3c1.52-5.22,1.78-6.53,1.78-6.53,0,0,41.06,3.22,61.85,17.84Z"/>
                <path class="cls-10" d="m1591.26,229.11c7.61,4.21,11.96,11.08,12.9,17.78-20.08-10.67-59.7-29.07-106.12-37.11l-10.46-7.07,3.08-5.02c11.51,1.09,24.29,3.54,36.07,6.13,23.6,8.32,53.12,19.09,64.52,25.3Z"/>
              </g>
              <g>
                <path class="cls-9" d="m1635.35,287.28s-45.07-14.94-65.49-19.62l6.97-18.37,15.99,3.62-15.53-6.29,3.28-7.89,8.89.85-7.21-4.14,5.25-15.07,87.37,46.73s-15.61,20.76-39.52,20.18Z"/>
                <g>
                  <path class="cls-4" d="m1590.97,252.47c-1.08-.56-2.21-1.09-3.32-1.67l5.17,2.11-1.85-.43Z"/>
                  <path class="cls-7" d="m1635.35,287.28s-45.07-14.94-65.49-19.62l6.97-18.37,14.13,3.18c19.04,9.72,37.98,22.23,53.98,33.86-3.02.62-6.21.98-9.59.95Z"/>
                </g>
                <path class="cls-7" d="m1609.33,255.48c-4.46-1.46-8.67-.74-9.39,1.63-.7,2.34,2.34,5.42,6.82,6.94,4.46,1.53,8.67.82,9.35-1.63.75-2.3-2.24-5.49-6.77-6.94Z"/>
                <path class="cls-7" d="m1624.77,281.13s-29.72-9.59-49.07-14.15l1.65-5.99s32.73,8.1,47.42,20.14Z"/>
                <path class="cls-10" d="m1587.5,220.37l87.37,46.73s-5.7,7.64-15.61,13.53c-18.39-14.4-44.77-30.61-78.9-41.29l.21-.61,8.89.85-7.21-4.14,5.25-15.07Z"/>
              </g>
            </g>
            <g>
              <g>
                <path class="cls-9" d="m745.82,255.11l81.03,23.9,3.9-22.61-11-8.58,12.61,2.1,1.56-6.5-6.08-6.23,8.88-1.54,4.21-21.72s-10.66-4.81-9.14-5.29c1.54-.48,8.75-.81,8.75-.81l-1.61-21.22s-60.72-5.52-79.54-1.9c-18.84,3.65-55.64,48.47-13.57,70.38Z"/>
                <g class="cls-3">
                  <path class="cls-8" d="m785.85,232.51c4.51.73,7.69,3.76,7.15,6.76-.41,3.07-4.55,4.9-9.01,4.19-4.5-.81-7.72-3.81-7.18-6.86.48-3.06,4.54-4.85,9.04-4.09Z"/>
                  <path class="cls-8" d="m806.55,232.91c2.1.32,3.51,1.91,3.22,3.51-.23,1.62-2.15,2.67-4.2,2.36-2.05-.37-3.45-1.96-3.22-3.56.27-1.6,2.17-2.67,4.2-2.3Z"/>
                </g>
                <path class="cls-10" d="m753.83,186.75c-8.6,4.26-18.67,14.33-23.86,25.86,11.03-1.26,69.57-6.67,107.17,21l3.78-19.65s-10.66-4.81-9.14-5.29c1.54-.48,8.75-.81,8.75-.81l-.78-10.62c-32.56-8.14-67.1-10.1-85.92-10.48Z"/>
                <g class="cls-1">
                  <path class="cls-9" d="m775.06,183.52c-6.39.09-11.87.48-15.67,1.2-18.84,3.65-55.64,48.47-13.57,70.38l20.21,5.95c8.04-12.45,20.38-39.52,9.03-77.54Z"/>
                </g>
                <g class="cls-6">
                  <path class="cls-8" d="m726.58,225.53c-.79,10.82,4.1,21.67,19.24,29.58l81.03,23.9,3.9-22.61-11-8.58,12.61,2.1.46-1.88c-40.65-27.59-95.09-23.65-106.23-22.52Z"/>
                </g>
                <path class="cls-7" d="m772.88,256.33s40.8,11.13,50.64,17.59l3.99-12.53s-28.93-11.13-54.63-5.07Z"/>
              </g>
              <g>
                <path class="cls-9" d="m643.83,247.57l111.04,15.07,1.31-19.89-15.94-6.63,16.91.92.97-5.74-9.09-4.93,11.48-2.02,1.86-19.21s-14.84-3.32-12.95-3.92c1.98-.54,11.44-1.32,11.44-1.32l-5.71-18.31s-81.14-.55-105.33,3.98c-24.13,4.43-65.32,45.92-5.97,62Z"/>
                <g class="cls-3">
                  <path class="cls-8" d="m692.89,225.15c6.05.33,10.74,2.76,10.56,5.45-.17,2.65-5.14,4.51-11.2,4.17-6.11-.33-10.88-2.7-10.71-5.36.17-2.69,5.24-4.59,11.35-4.26Z"/>
                  <path class="cls-8" d="m720.26,224.1c2.72.16,4.91,1.43,4.82,2.79-.1,1.45-2.43,2.47-5.16,2.32-2.76-.15-4.98-1.41-4.88-2.87.08-1.35,2.45-2.39,5.22-2.24Z"/>
                </g>
                <path class="cls-10" d="m642.8,187.63c-10.62,4.38-22.17,13.78-27.13,24.21,14.41-1.91,90.73-10.68,145.06,10.63l1.64-17.33s-14.84-3.32-12.95-3.92c1.98-.54,11.44-1.32,11.44-1.32l-2.87-9.08c-44.29-4.86-90.22-4.09-115.19-3.19Z"/>
                <g class="cls-1">
                  <path class="cls-9" d="m670.31,183.39c-8.45.54-15.62,1.21-20.5,2.18-24.13,4.43-65.32,45.92-5.97,62l27.69,3.77c8.48-11.31,20.17-35.71-1.22-67.95Z"/>
                </g>
                <g class="cls-6">
                  <path class="cls-8" d="m613.36,223.26c.76,9.42,9.11,18.51,30.47,24.31l111.04,15.07,1.31-19.89-15.94-6.63,16.91.92.32-1.69c-58.29-21.11-129.64-13.86-144.1-12.09Z"/>
                </g>
                <path class="cls-7" d="m679.72,246.73s55.75,6.79,69.71,11.79l3.22-11.12s-40.09-7.66-72.93-.67Z"/>
              </g>
              <g>
                <path class="cls-9" d="m528.04,238.73s89,5.49,122.28,15.64l4.99-18.39-12.78-5.82,13.2-.52.63-9.67-12.82-5.16,17.66-1.63,1.6-14.05-17.99-3.59,15.86-2.94-2.98-11.78s-76.51-3.51-122.36,13.91c-45.82,17.55-30.42,42.11-7.29,44.01Z"/>
                <g class="cls-3">
                  <path class="cls-8" d="m585.37,224.54c5.1.28,9.09,2.41,8.93,4.8-.14,2.33-4.39,4.08-9.5,3.81-5.08-.28-9.12-2.48-8.97-4.81.16-2.4,4.46-4.08,9.54-3.8Z"/>
                  <path class="cls-8" d="m568.4,214.96c3.7.2,6.6,1.8,6.48,3.53-.11,1.7-3.2,2.98-6.9,2.77-3.61-.19-6.47-1.8-6.36-3.5.11-1.71,3.15-3,6.77-2.8Z"/>
                  <path class="cls-8" d="m615.85,213.54c3.03.17,5.37,1.72,5.25,3.47-.1,1.69-2.64,3.01-5.66,2.84-3.06-.16-5.42-1.74-5.3-3.44.11-1.75,2.65-3.03,5.71-2.87Z"/>
                </g>
                <path class="cls-10" d="m535.33,194.72c-13.76,5.25-22.01,11.15-26.14,16.89,32.64-2.09,101.9-5.84,152.54-3.09l1.08-9.4-17.99-3.59,15.86-2.94-1.49-5.82c-39.71-1.31-91.19,3.68-121.78,7.25-.69.21-1.37.47-2.07.7Z"/>
                <g class="cls-6">
                  <path class="cls-8" d="m506.08,223.75c1.75,8.03,10.97,14.09,21.97,14.98,0,0,89,5.49,122.28,15.64l4.99-18.39-12.78-5.82,13.2-.52.18-2.87c-56.75-8.47-114.19-6.08-149.84-3.02Z"/>
                </g>
                <g class="cls-1">
                  <path class="cls-9" d="m553.73,189.18c-6.45,1.51-12.69,3.35-18.4,5.54-45.82,17.55-30.42,42.11-7.29,44.01,0,0,9.46.56,23.28,1.71,4.43-8.44,9.46-25.09,2.41-51.26Z"/>
                </g>
                <path class="cls-7" d="m557.74,237.16s53.83,3.56,86.09,10.41l1.21-8.92s-47.76-9.66-87.3-1.49Z"/>
              </g>
              <g>
                <path class="cls-9" d="m422.34,248.4s71.03-8.33,114.78-4.02l3.08-17.87-16.2-2.79,16.5-1.68,1.94-10.19-8.21-.45,8.42-2.76,2.74-22.32s-73.49,6.87-129.18,21.96c0,0-26.38,37.1,6.13,40.12Z"/>
                <g class="cls-6">
                  <path class="cls-8" d="m422.34,248.4s71.03-8.33,114.78-4.02l3.08-17.87-16.2-2.79,16.5-1.68.53-2.79c-58.95.26-109.01,10.52-134.76,16.98.73,6.13,5,11.13,16.07,12.17Z"/>
                </g>
                <g class="cls-6">
                  <path class="cls-8" d="m466.41,226.71c5.56-.52,10.16.8,10.31,2.94.17,2.07-4.24,4.15-9.73,4.58-5.53.51-10.12-.82-10.24-2.92-.2-2.06,4.2-4.13,9.67-4.6Z"/>
                  <path class="cls-8" d="m498.76,223.11c2.06.11,3.69,1.18,3.62,2.37-.09,1.2-1.84,2-3.9,1.89-2.06-.11-3.58-1.09-3.5-2.29.08-1.2,1.74-2.09,3.78-1.97Z"/>
                  <path class="cls-8" d="m457.6,221.22c1.94.11,3.48,1.12,3.4,2.33-.07,1.15-1.74,2.09-3.68,1.98-2.01-.1-3.47-1.22-3.39-2.36.07-1.2,1.67-2.05,3.68-1.94Z"/>
                </g>
                <path class="cls-10" d="m416.21,208.28s-5.44,7.61-8.38,16.34c32.39-8.06,91.21-21.27,135.61-22.84l.69-5.23c-34.79-1.19-81.08,3.21-103.09,5.71-8.47,1.8-16.8,3.79-24.83,6.02Z"/>
                <g class="cls-1">
                  <path class="cls-9" d="m432.47,204.14c-5.48,1.24-10.97,2.62-16.26,4.14,0,0-26.38,37.1,6.13,40.12,0,0,7.37-.85,18.79-1.88,2.27-9.03,3.41-25.02-8.66-42.38Z"/>
                </g>
                <path class="cls-7" d="m447.68,243.97s55.12-7.03,84.76-1.92l1.84-11.05s-55.59-3.03-86.61,12.96Z"/>
              </g>
              <g>
                <path class="cls-9" d="m335.2,273.29s63.64-21.02,98.77-19.11l-3.92-16.98-12.62.03,11.57-3.23.55-18.67-13.37,2.52,13.2-8.85-6.31-10.06s-77.14,25.41-97.38,36.46c-20.23,11.15-17.16,40.89,9.5,37.89Z"/>
                <g class="cls-6">
                  <path class="cls-8" d="m367.37,250.08c4.61-.86,8.62-.05,8.95,1.86.35,1.94-3.14,4.22-7.8,5.03-4.62.92-8.6.05-8.9-1.87-.4-1.87,3.14-4.14,7.76-5.01Z"/>
                  <path class="cls-8" d="m389.6,243.75c2.31-.4,4.3-.01,4.51.97.14.98-1.62,2.05-3.93,2.61-2.36.35-4.4-.01-4.54-1.05-.15-.9,1.62-2.06,3.96-2.53Z"/>
                </g>
                <g class="cls-6">
                  <path class="cls-8" d="m335.2,273.29s63.64-21.02,98.77-19.11l-3.92-16.98-12.62.03,11.57-3.23.04-1.89c-40.41,3.41-88.54,23.48-113,34.78,3.58,4.64,9.97,7.44,19.16,6.4Z"/>
                </g>
                <g class="cls-1">
                  <path class="cls-9" d="m337.86,229.72c-4.97,2.18-9.19,4.07-12.17,5.67-20.23,11.15-17.16,40.89,9.5,37.89,0,0,6.78-2.29,17.15-5.2,1.46-10.03.18-24.78-14.48-38.37Z"/>
                </g>
                <path class="cls-7" d="m366.12,262.08s38.72-10.44,63.63-11.3c-1.52-5.22-1.78-6.53-1.78-6.53,0,0-41.05,3.22-61.85,17.84Z"/>
                <path class="cls-10" d="m325.69,235.4c-7.6,4.21-11.96,11.08-12.9,17.78,20.08-10.67,59.7-29.07,106.11-37.11l10.47-7.07-3.09-5.02c-11.52,1.09-24.3,3.54-36.07,6.13-23.6,8.32-53.12,19.09-64.52,25.3Z"/>
              </g>
              <g>
                <path class="cls-9" d="m281.6,293.56s45.07-14.94,65.5-19.62l-6.98-18.37-15.99,3.62,15.53-6.29-3.28-7.89-8.89.85,7.2-4.14-5.26-15.07-87.36,46.73s15.6,20.76,39.52,20.18Z"/>
                <g>
                  <path class="cls-4" d="m325.98,258.75c1.08-.56,2.22-1.09,3.32-1.67l-5.17,2.11,1.85-.43Z"/>
                  <path class="cls-7" d="m281.6,293.56s45.07-14.94,65.5-19.62l-6.98-18.37-14.14,3.18c-19.04,9.72-37.97,22.23-53.98,33.86,3.02.62,6.22.98,9.59.95Z"/>
                </g>
                <path class="cls-7" d="m307.63,261.76c4.45-1.46,8.66-.74,9.39,1.63.7,2.34-2.34,5.42-6.82,6.94-4.46,1.53-8.67.82-9.35-1.63-.75-2.3,2.25-5.49,6.78-6.94Z"/>
                <path class="cls-7" d="m292.18,287.41s29.72-9.59,49.06-14.15l-1.64-5.99s-32.73,8.1-47.42,20.14Z"/>
                <path class="cls-10" d="m329.44,226.65l-87.36,46.73s5.7,7.64,15.61,13.53c18.38-14.4,44.77-30.61,78.9-41.29l-.21-.62-8.89.85,7.2-4.14-5.26-15.07Z"/>
              </g>
            </g>
          </g>
        </g>
      </g>
    </g>
  </g>
</svg>