<?xml version="1.0" encoding="UTF-8"?>
<svg xmlns="http://www.w3.org/2000/svg" xmlns:xlink="http://www.w3.org/1999/xlink" viewBox="0 0 1080 456.24">
  <defs>
    <style>
      .cls-1 {
        fill: url(#radial-gradient);
      }

      .cls-1, .cls-2, .cls-3, .cls-4, .cls-5, .cls-6, .cls-7, .cls-8, .cls-9, .cls-10, .cls-11, .cls-12, .cls-13, .cls-14, .cls-15, .cls-16, .cls-17, .cls-18, .cls-19, .cls-20, .cls-21, .cls-22, .cls-23, .cls-24, .cls-25, .cls-26, .cls-27, .cls-28 {
        fill-rule: evenodd;
      }

      .cls-2 {
        fill: url(#linear-gradient-3);
        opacity: .75;
      }

      .cls-3 {
        fill: url(#linear-gradient-13);
      }

      .cls-3, .cls-4, .cls-8, .cls-9, .cls-11, .cls-14, .cls-15, .cls-16, .cls-20, .cls-22, .cls-23, .cls-27, .cls-28 {
        mix-blend-mode: screen;
      }

      .cls-3, .cls-4, .cls-8, .cls-9, .cls-14, .cls-15, .cls-16, .cls-20, .cls-27, .cls-28 {
        opacity: .3;
      }

      .cls-4 {
        fill: url(#linear-gradient-7);
      }

      .cls-5 {
        fill: url(#radial-gradient-5);
      }

      .cls-5, .cls-6, .cls-7, .cls-12, .cls-13, .cls-17, .cls-19, .cls-21, .cls-24, .cls-29, .cls-25, .cls-26 {
        mix-blend-mode: multiply;
      }

      .cls-5, .cls-12, .cls-13, .cls-17, .cls-19, .cls-21, .cls-24, .cls-25, .cls-26 {
        opacity: .5;
      }

      .cls-6 {
        fill: url(#New_Gradient_Swatch_88-5);
      }

      .cls-7 {
        fill: url(#New_Gradient_Swatch_88-4);
      }

      .cls-8 {
        fill: url(#linear-gradient-8);
      }

      .cls-9 {
        fill: url(#linear-gradient-11);
      }

      .cls-10 {
        fill: url(#linear-gradient);
      }

      .cls-11 {
        fill: url(#radial-gradient-7);
      }

      .cls-12 {
        fill: url(#radial-gradient-6);
      }

      .cls-13 {
        fill: url(#radial-gradient-2);
      }

      .cls-14 {
        fill: url(#linear-gradient-9);
      }

      .cls-15 {
        fill: url(#linear-gradient-5);
      }

      .cls-16 {
        fill: url(#linear-gradient-10);
      }

      .cls-17 {
        fill: url(#radial-gradient-4);
      }

      .cls-18 {
        fill: #eedbbd;
      }

      .cls-19 {
        fill: url(#New_Gradient_Swatch_88-2);
      }

      .cls-20 {
        fill: url(#linear-gradient-6);
      }

      .cls-30 {
        fill: none;
        isolation: isolate;
      }

      .cls-21 {
        fill: url(#New_Gradient_Swatch_88);
      }

      .cls-22 {
        fill: #ca9e67;
        opacity: .65;
      }

      .cls-23 {
        fill: url(#linear-gradient-2);
        opacity: .35;
      }

      .cls-24 {
        fill: url(#radial-gradient-3);
      }

      .cls-29 {
        fill: #b7805c;
        opacity: .25;
      }

      .cls-25 {
        fill: url(#New_Gradient_Swatch_88-3);
      }

      .cls-26 {
        fill: #683c11;
      }

      .cls-27 {
        fill: url(#linear-gradient-12);
      }

      .cls-28 {
        fill: url(#linear-gradient-4);
      }
    </style>
    <linearGradient id="linear-gradient" x1="539.95" y1="456.24" x2="539.95" y2="3.47" gradientUnits="userSpaceOnUse">
      <stop offset="0" stop-color="#692705"/>
      <stop offset="1" stop-color="#823b00"/>
    </linearGradient>
    <radialGradient id="radial-gradient" cx="100.49" cy="-173.25" fx="100.49" fy="-173.25" r="1216.06" gradientUnits="userSpaceOnUse">
      <stop offset="0" stop-color="#f59547"/>
      <stop offset="1" stop-color="#a14c1f"/>
    </radialGradient>
    <radialGradient id="New_Gradient_Swatch_88" data-name="New Gradient Swatch 88" cx="76.72" cy="269.03" fx="76.72" fy="269.03" r="171.91" gradientUnits="userSpaceOnUse">
      <stop offset="0" stop-color="#cfa04d"/>
      <stop offset="1" stop-color="#fff"/>
    </radialGradient>
    <radialGradient id="New_Gradient_Swatch_88-2" data-name="New Gradient Swatch 88" cx="1073.41" cy="94.08" fx="1073.41" fy="94.08" r="27.8" xlink:href="#New_Gradient_Swatch_88"/>
    <radialGradient id="New_Gradient_Swatch_88-3" data-name="New Gradient Swatch 88" cx="1071.13" cy="350.17" fx="1071.13" fy="350.17" r="28.89" xlink:href="#New_Gradient_Swatch_88"/>
    <radialGradient id="radial-gradient-2" cx="1109.85" cy="318.97" fx="1109.85" fy="318.97" r="164.7" gradientUnits="userSpaceOnUse">
      <stop offset="0" stop-color="#cfa04d"/>
      <stop offset="1" stop-color="#fff"/>
    </radialGradient>
    <radialGradient id="radial-gradient-3" cx="1111.32" cy="160.04" fx="1111.32" fy="160.04" r="165.41" xlink:href="#radial-gradient-2"/>
    <radialGradient id="radial-gradient-4" cx="12.95" cy="374.91" fx="12.95" fy="374.91" r="103.65" xlink:href="#radial-gradient-2"/>
    <radialGradient id="radial-gradient-5" cx="80.81" cy="373.79" fx="80.81" fy="373.79" r="3.25" xlink:href="#radial-gradient-2"/>
    <radialGradient id="radial-gradient-6" cx="1000.56" cy="396.04" fx="1000.56" fy="396.04" r="104.63" xlink:href="#radial-gradient-2"/>
    <radialGradient id="New_Gradient_Swatch_88-4" data-name="New Gradient Swatch 88" cx="56.15" cy="92.84" fx="56.15" fy="92.84" r="62.22" xlink:href="#New_Gradient_Swatch_88"/>
    <radialGradient id="New_Gradient_Swatch_88-5" data-name="New Gradient Swatch 88" cx="1049.27" cy="31.95" fx="1049.27" fy="31.95" r="70.52" xlink:href="#New_Gradient_Swatch_88"/>
    <linearGradient id="linear-gradient-2" x1="-285.3" y1="224.54" x2="683.11" y2="224.54" gradientUnits="userSpaceOnUse">
      <stop offset="0" stop-color="#ca9e67"/>
      <stop offset=".65" stop-color="#000"/>
    </linearGradient>
    <linearGradient id="linear-gradient-3" x1="539.63" y1="424.26" x2="539.63" y2="25.02" gradientUnits="userSpaceOnUse">
      <stop offset="0" stop-color="#823b00"/>
      <stop offset="1" stop-color="#692705"/>
    </linearGradient>
    <linearGradient id="linear-gradient-4" x1="79.6" y1="127.34" x2="79.6" y2="118.05" gradientUnits="userSpaceOnUse">
      <stop offset="0" stop-color="#ffb01c"/>
      <stop offset=".57" stop-color="#000"/>
    </linearGradient>
    <linearGradient id="linear-gradient-5" x1="76.45" y1="210.62" x2="76.45" y2="209.5" xlink:href="#linear-gradient-4"/>
    <linearGradient id="linear-gradient-6" x1="80.04" y1="349.56" x2="80.04" y2="348.72" xlink:href="#linear-gradient-4"/>
    <linearGradient id="linear-gradient-7" x1="80.71" y1="357.37" x2="80.71" y2="357.23" xlink:href="#linear-gradient-4"/>
    <linearGradient id="linear-gradient-8" x1="617.02" y1="418.71" x2="617.02" y2="417.8" xlink:href="#linear-gradient-4"/>
    <linearGradient id="linear-gradient-9" x1="997.32" y1="378.27" x2="997.32" y2="377.95" xlink:href="#linear-gradient-4"/>
    <linearGradient id="linear-gradient-10" x1="998.7" y1="357.2" x2="998.7" y2="357.17" xlink:href="#linear-gradient-4"/>
    <linearGradient id="linear-gradient-11" x1="1000.4" y1="336.69" x2="1000.4" y2="326.84" xlink:href="#linear-gradient-4"/>
    <linearGradient id="linear-gradient-12" x1="1001.52" y1="105.33" x2="1001.52" y2="99.97" xlink:href="#linear-gradient-4"/>
    <linearGradient id="linear-gradient-13" x1="1003.64" y1="199.23" x2="1003.64" y2="198.47" xlink:href="#linear-gradient-4"/>
    <radialGradient id="radial-gradient-7" cx="769.13" cy="393.8" fx="769.13" fy="393.8" r="113.33" gradientTransform="translate(-7329.09 -1001.04) scale(9.53 3.77)" gradientUnits="userSpaceOnUse">
      <stop offset="0" stop-color="#b0670b"/>
      <stop offset="1" stop-color="#000"/>
    </radialGradient>
  </defs>
  <g class="cls-30">
    <g id="Calque_1" data-name="Calque 1">
      <g>
        <path class="cls-10" d="m1075.69,105.01c-.02-.74-11.7-.81-14.51-1,2.95-.47,14.38-2.45,14.38-3.06-.76-25.03-1.48-45.85-2.03-59.67-.02-.44-.03-.88-.05-1.31-.01-.22-.02-.44-.03-.66l-.03-.82c-.24-.21-.51-.44-.81-.66-.16-.12-.32-.24-.48-.35-.02-.02-.04-.03-.06-.05-.1-.07-.21-.14-.32-.22-.05-.03-.1-.06-.15-.1-.06-.04-.13-.09-.19-.13-.05-.04-.11-.07-.18-.11-.06-.04-.12-.08-.18-.12t-.02-.01c-.11-.08-.23-.15-.35-.22-.08-.05-.17-.1-.26-.16-.04-.03-.08-.05-.13-.08-.13-.08-.26-.16-.4-.24-.26-.15-.53-.31-.81-.46-.41-.24-.84-.47-1.28-.71-.06-.03-.13-.07-.19-.1-.07-.03-.14-.07-.21-.11-.06-.04-.13-.08-.2-.11-.12-.06-.25-.13-.37-.19-.2-.11-.4-.21-.61-.32-.06-.03-.13-.07-.2-.1-.1-.06-.21-.11-.31-.16-.17-.08-.34-.17-.52-.26-.17-.09-.35-.17-.52-.26-.11-.05-.22-.1-.33-.16-.07-.03-.13-.06-.2-.1-.18-.08-.36-.16-.54-.25-.18-.09-.36-.17-.55-.26-.16-.07-.31-.15-.47-.22h-.01c-4.33-2.03-9.17-4.01-13.29-5.49h-.01c-.08-.03-.16-.06-.23-.09-1.12-.4-2.19-.76-3.17-1.08-.28-.08-.55-.17-.81-.25-.88-.27-1.68-.5-2.38-.67-.04,0-.09-.01-.13-.01-2.63-.26-5.28-.52-7.95-.78-.7-.07-1.4-.14-2.1-.2-.4-.04-.8-.08-1.21-.11-.64-.06-1.28-.12-1.93-.18-.02-.01-.03-.01-.05-.01-.43-.04-.87-.08-1.3-.12-.83-.08-1.65-.15-2.48-.23-.48-.05-.97-.1-1.45-.14-.24-.02-.48-.04-.72-.06-.28-.03-.57-.05-.86-.08-.53-.05-1.06-.1-1.59-.15-.6-.06-1.2-.11-1.8-.16-1.14-.1-2.28-.2-3.43-.31-.73-.07-1.46-.13-2.19-.2h-.1c-2.22-.2-4.44-.4-6.69-.59-1.57-.14-3.14-.27-4.72-.4-9.37-.8-18.92-1.57-28.61-2.32-1.36-.1-2.72-.21-4.09-.31-104.93-7.99-226.37-12.81-345.73-14.33h-.1c-.12.01-.23,0-.33,0-2.6-.03-5.2-.06-7.81-.1h-.29c-.39,0-.77,0-1.15,0-5.31-.06-10.62-.11-15.91-.16-4.02-.03-8.02-.07-12.03-.1-4-.03-7.99-.05-11.98-.07-3.8-.02-7.6-.04-11.38-.05-2.35-.01-4.69-.01-7.03-.02-4.68-.01-9.36-.02-14.02-.02-8.06,0-16.16.02-24.3.05-4.07.02-8.14.03-12.23.06-4.08.02-8.17.05-12.27.08-4.1.03-8.2.06-12.31.1-8.38.08-16.77.17-25.19.29-2.94.03-5.89.08-8.83.12-3.79.05-7.59.11-11.38.17-.53,0-1.06.01-1.6.02-6,.1-12.01.2-18.01.32-6.01.11-12.01.23-18.02.37-1.27.03-2.53.06-3.8.09-5.18.12-10.36.24-15.54.37-1.72.04-3.44.09-5.17.13-1.38.03-2.76.07-4.14.11-2.07.05-4.14.1-6.21.16-.68.02-1.37.04-2.06.06-2.76.07-5.52.15-8.27.23-1.64.05-3.28.1-4.91.15-1.12.03-2.23.06-3.34.09-.39.02-.78.03-1.16.04-1.57.04-3.13.09-4.69.14-.8.03-1.6.05-2.39.08-.3,0-.59.02-.88.02-.16.01-.33.01-.5.02-2.48.08-4.96.16-7.43.24-5.29.17-10.57.35-15.84.54-1.09.04-2.17.07-3.25.11h-.03s-.06.01-.09.01c-.45.02-.91.03-1.37.05-.72.02-1.44.05-2.17.08-1.7.06-3.4.12-5.1.19-1.44.05-2.88.1-4.33.16-2.71.1-5.43.2-8.13.31-1.93.08-3.86.16-5.78.23-13.88.55-27.65,1.16-41.27,1.82-.26.01-.52.03-.77.04-.12.01-.24.01-.36.02h-.12l-3.6.18c-6.52.31-13.01.64-19.46.99-.83.05-1.65.09-2.47.13-2.02.1-4.03.21-6.04.32-2.53.14-5.06.28-7.58.42-1.29.07-2.58.14-3.86.22-1.37.07-2.74.15-4.11.23-1.01.06-2.03.11-3.04.17-.26.02-.52.03-.79.05-.25.01-.49.03-.73.05-.22,0-.44.02-.65.03-.07,0-.13.01-.2.01-.29.02-.57.03-.85.05-.49.03-.97.06-1.46.09-1.18.07-2.37.14-3.54.21-.93.05-1.85.11-2.76.17-.35.02-.7.04-1.05.07-.11,0-.21.01-.32.01-.63.04-1.27.08-1.9.12-1.09.06-2.18.13-3.27.2-1.81.11-3.62.22-5.42.34-3.27.2-6.52.41-9.76.63-3.31.21-6.59.43-9.86.66-4.97.34-9.91.68-14.8,1.03-2.33.16-4.66.34-6.98.51-5.75.43-11.43.86-17.06,1.31-6.07.48-12.09.97-18.03,1.48-.05,0-.1.01-.16.01-.22.02-.45.04-.68.06-1.41.12-2.81.24-4.21.36-.86.08-1.72.15-2.57.22-.07.01-.13.02-.2.02h-.04c-1.3.12-2.6.23-3.9.35-.92.08-1.85.16-2.77.24-.3.02-.61.05-.91.08-.77.07-1.55.14-2.32.21-1.46.13-2.92.27-4.37.4-.38.04-.75.07-1.13.11h-.08c-1.61.15-3.21.3-4.81.45-6.75.64-13.39,1.29-19.91,1.96-.84.22-1.76.49-2.73.78-.29.09-.59.19-.9.29-.6.19-1.22.4-1.85.62-.66.23-1.33.47-2.02.71-.56.2-1.13.41-1.7.63-.56.21-1.13.43-1.7.65-3.48,1.35-7.07,2.87-10.27,4.4-.33.15-.65.31-.97.47-.41.2-.81.4-1.21.6-.04.01-.08.03-.11.05-.6.3-1.18.61-1.74.91-.23.12-.45.24-.67.37-.28.15-.55.3-.8.45-.25.14-.5.29-.73.42-.75.45-1.42.88-2,1.3-.2.13-.38.27-.55.4-.35.26-.65.51-.91.75,0,.07-.01.15-.01.22-.05.81-.09,1.65-.14,2.52-.31,5.42-.67,11.8-1.06,19.01-.14,2.58,32.71,3.81,39.05,4.01-8.35.74-28.59.78-39.31.85-1.23,22.55-2.74,52.1-4.09,84.76,0,1.31,21.47,4.18,27.81,5.27-6.63.14-27.88.93-27.92,2.07C-.23,265.25-3.37,403.48,6.73,437.21c1.02,3.45,16.7,12.97,25.57,14.55,339.57,6.08,679.13,5.87,1018.7,0,8-.77,24.59-11.57,25.23-14.57,6.71-35.12,2.78-221.77-.54-332.18Zm-105.6-64.68c13.45,1.07,26.79,2.22,40.01,3.44,2.01.18,4.02.37,6.02.56.72.3,1.44.61,2.15.92.04,1.26.09,2.52.13,3.76.08,2.28.16,4.53.24,6.76.06,1.81.13,3.61.19,5.4.08,2.26.15,4.51.23,6.75.07,2.02.13,4.03.2,6.05-6.31.83-12.59,1.68-18.84,2.54.06,1.26.11,2.51.17,3.76.03.7.06,1.39.09,2.09h0c.14,2.97.26,5.92.38,8.88.05,1.01.09,2.01.13,3.02.04.97.08,1.94.12,2.91.04.93.08,1.87.11,2.8.02.47.04.93.05,1.4.06,1.32.11,2.64.15,3.96.06,1.33.11,2.67.15,4,.01.15.02.29.02.43.08,2.05.15,4.09.22,6.14.08,2.09.15,4.19.21,6.29.05,1.7.11,3.4.16,5.1.05,1.41.09,2.83.13,4.24.02.77.04,1.54.07,2.31.05,1.98.1,3.95.15,5.92.18,6.57.33,13.14.45,19.7,0,.28.01.56.01.84.05,2.55.1,5.1.13,7.65.01.54.02,1.09.03,1.64.03,1.8.06,3.6.08,5.4.03,2.48.06,4.96.09,7.44.02,1.64.03,3.28.04,4.92.02,1.67.03,3.34.04,5.01.02,1.93.03,3.86.03,5.79.01.11.01.21.01.32,0,.05,0,.1-.01.15.01.21.01.41.01.61.02,4.92.02,9.83.01,14.75,0,1.47,0,2.94-.01,4.41-.01,3.08-.03,6.16-.05,9.24-.02,3.09-.05,6.17-.09,9.25-.03,2.62-.06,5.24-.1,7.85-.07,4.55-.15,9.1-.24,13.64-.11,5.17-.24,10.33-.38,15.5-.08,3.05-.17,6.09-.27,9.14-.01.27-.02.53-.02.79-.07,2.03-.14,4.06-.21,6.09-.13,3.86-.28,7.72-.43,11.59-.1,2.25-.19,4.49-.29,6.74-.08,1.89-.16,3.78-.25,5.66-.03.55-.05,1.1-.08,1.64-.07,1.53-.14,3.06-.22,4.6-.11,2.24-.22,4.48-.34,6.72s-.25,4.48-.37,6.72c-.05,1.04-.11,2.09-.17,3.13-.07,1.11-.13,2.21-.2,3.32-.06,1.02-.12,2.04-.18,3.06-.28,4.69-.58,9.37-.9,14.06v.05c-.1,0-.2-.01-.3-.01.1.01.2.02.3.03,0,.02,0,.04,0,.07-.16,2.31-.32,4.62-.48,6.94-.33,4.58-.67,9.16-1.03,13.74h-.01c0,.11-.01.21-.02.32-.14,1.79-.28,3.58-.43,5.36v.02c-.25,3.05-.5,6.11-.77,9.16-.15,1.72-.3,3.43-.45,5.14-.23,2.61-.47,5.21-.72,7.82-.15,1.71-.32,3.41-.48,5.12-.08.79-.15,1.58-.23,2.37-9.39.23-18.78.45-28.17.66-9.18.21-18.35.42-27.52.61-8.37.18-16.74.35-25.1.51-4.44.09-8.89.18-13.33.26-3.76.08-7.53.15-11.29.22-9.17.17-18.33.34-27.5.49-4.24.07-8.47.14-12.71.21-5.26.09-10.51.17-15.77.25h-.01s-.01.01-.02,0t-.02,0s-.01.01-.02,0t-.02,0s-.03.01-.04,0c-.01.01-.02.01-.03,0t-.02,0s-.01.01-.02,0h-.01c-11.52.18-23.05.35-34.58.51-11.52.15-23.04.3-34.57.44-11.53.13-23.05.26-34.57.37-11.53.12-23.06.22-34.58.31,31.45.34,63.39.99,95.95,2.03h.24c20.48.66,41.25,1.48,62.27,2.47-1.37.02-2.74.03-4.11.04-9.08.1-18.17.19-27.25.27-5.55.06-11.1.11-16.65.16-23.09.2-46.19.38-69.28.53-13.51.09-27.02.17-40.54.24-12.98.07-25.97.13-38.95.18h-.56c-11.57.05-23.14.09-34.7.12-14.78.04-29.56.07-44.33.09-13.14.02-26.29.03-39.43.03s-27.17-.01-40.75-.03c-13.97-.02-27.94-.05-41.91-.09-9.25-.03-18.49-.06-27.74-.09-5.96-.02-11.93-.04-17.89-.07-6.04-.02-12.08-.05-18.13-.08-12.61-.07-25.21-.14-37.82-.22-.72,0-1.44,0-2.16-.01h-.46c-33.78-.22-67.56-.49-101.34-.82-7.79-.07-15.58-.15-23.37-.24-7.79-.08-15.59-.17-23.38-.26-9.14-.1-18.28-.21-27.42-.33-7.26-.08-14.52-.17-21.78-.27h-.15c-14.03-.19-28.05-.38-42.07-.59-7.01-.1-14.02-.2-21.03-.31s-14.01-.22-21.02-.33c-.39-2.66-.77-5.33-1.12-8,6.07-.62,12.14-1.22,18.21-1.82.33-.01.67-.02,1-.04-.39-2.85-.78-5.71-1.15-8.57h0c-.07-.59-.15-1.18-.22-1.77-6.76-.01-13.29-.08-19.47-.24-.58-4.83-1.14-9.66-1.66-14.5,6.48-.12,12.91-.29,19.3-.48-.37-3.26-.72-6.53-1.06-9.8h0c-.03-.34-.07-.68-.1-1.02-6.53.02-12.98-.02-19.29-.14-.48-5.01-.93-10.03-1.33-15.06,6.51-.58,12.77-1.14,19.04-1.71-.01-.04-.01-.09-.01-.13h0c-.23-2.57-.44-5.12-.63-7.68-.03-.27-.05-.55-.06-.83h-.01c-.04-.52-.08-1.02-.11-1.53-6.76.32-13.21.59-19.07.77-.5-7.12-.94-14.26-1.32-21.42,2.97-.51,5.84-.91,8.47-1.2,3.45-.37,6.91-.73,10.38-1.06-.04-.67-.07-1.34-.11-2.01h0c-.14-2.57-.28-5.14-.4-7.7-2.31.02-4.61.04-6.9.05-1.87.01-3.74.02-5.61.02,4.15-.02,8.32-.04,12.51-.09-.1-1.93-.19-3.86-.28-5.79-6.17-.86-12.76-2.06-19-3.48-1.09-30.14-1.18-60.49-.66-90.95,3.04-.78,6.17-1.5,9.34-2.16,3.12-.65,6.18-1.28,9.2-1.89h.01c0-.26,0-.52.01-.79,0-.52.02-1.04.03-1.57v-.03c.03-1.72.06-3.44.1-5.16,0-.7.03-1.4.05-2.1.01-.74.03-1.48.05-2.22v-.02c.02-1,.05-2,.07-3.01-6.84.82-13.09,1.56-18.51,2.19.24-10.18.54-20.37.9-30.57,1.23-.14,2.48-.27,3.73-.4,4.95-.18,9.87-.35,14.79-.52.09-2.52.19-5.05.29-7.57,0-.23.02-.46.03-.69.01-.11.01-.23.01-.35s.01-.24.02-.35h0c.02-.6.04-1.19.07-1.78.17-4.08.34-8.16.52-12.24.04-.88.08-1.75.12-2.63.17-3.77.35-7.55.54-11.32.01-.24.02-.47.03-.7.02-.38.04-.75.06-1.12.02-.37.04-.74.06-1.12.13-2.72.27-5.45.41-8.17.03-.7.07-1.39.11-2.09.14-2.67.28-5.34.43-8,.06-1.18.12-2.36.19-3.54.08-1.55.17-3.11.26-4.66.02-.45.05-.9.07-1.34.13-2.33.27-4.65.4-6.97.18-3.14.36-6.27.55-9.4.16-2.75.32-5.5.49-8.25.19-3.13.38-6.26.58-9.39h0c.01-.31.03-.6.05-.9.27-4.36.54-8.71.81-13.06,13.1-1.21,26.17-2.37,39.25-3.48,32.34-2.75,64.69-5.19,97.42-7.32-33.16.07-66.09.01-98.6-.14,31.01-2.4,62.29-4.37,93.44-6.06,60.82-3.29,122.18-5.49,183.49-6.84,47.52-1.05,95.15-1.59,142.75-1.59s93.43.54,140.05,1.58c7.99.18,16.01.37,24.07.58,22.7.58,45.63,1.28,68.65,2.13,32.13,1.16,64.44,2.6,96.57,4.37h.01c18.89,1.05,37.73,2.2,56.43,3.48,14.35.98,28.63,2.03,42.79,3.17Z"/>
        <path class="cls-1" d="m1074.56,93.02c-.03-2.53-.06-5.01-.09-7.44-.01-.43-.01-.85-.02-1.27-.01-.7-.01-1.39-.02-2.08s-.02-1.38-.03-2.06c-.04-2.55-.08-5.02-.12-7.43v-.33c-.02-.81-.03-1.61-.04-2.41-.01-.9-.03-1.79-.05-2.67-.03-1.86-.07-3.66-.11-5.42-.05-2.47-.1-4.84-.16-7.11-.01-.48-.02-.95-.03-1.42-.03-.99-.05-1.96-.08-2.91-.02-.63-.03-1.25-.05-1.85-.03-1.12-.07-2.2-.1-3.25-.02-.67-.04-1.32-.06-1.96-.02-.73-.05-1.44-.07-2.13-.02-.44-.03-.88-.05-1.31-.01-.22-.02-.44-.03-.66l-.03-.82c-.24-.21-.51-.44-.81-.66-.16-.12-.32-.24-.48-.35-.02-.02-.04-.03-.06-.04-.1-.07-.21-.15-.32-.22-.11-.08-.23-.15-.34-.23-.06-.03-.12-.07-.18-.12-.06-.04-.12-.07-.18-.11-.01,0-.01-.01-.02-.02-.11-.07-.23-.14-.35-.21-.13-.08-.26-.16-.39-.24-.13-.08-.26-.16-.4-.24-.26-.15-.53-.31-.81-.47-.41-.24-.84-.47-1.28-.71-.06-.03-.13-.07-.19-.1-.07-.03-.14-.07-.21-.11-.06-.04-.13-.07-.2-.1-.12-.06-.24-.13-.37-.2-.2-.11-.4-.21-.61-.31-.17-.09-.34-.17-.51-.26-.34-.17-.69-.34-1.04-.52-.18-.08-.36-.17-.53-.26-.18-.08-.36-.17-.54-.26-.18-.09-.36-.17-.55-.26-.16-.07-.31-.15-.47-.22h-.01c-4.33-2.03-9.17-4.01-13.29-5.49h-.01c-.08-.03-.16-.06-.23-.09-1.12-.4-2.19-.76-3.17-1.08-.28-.08-.55-.17-.81-.25-.88-.27-1.68-.5-2.38-.67-.04,0-.09-.01-.13-.01-2.63-.26-5.28-.52-7.95-.78-.7-.07-1.4-.14-2.1-.2-.4-.04-.8-.08-1.21-.11-.64-.06-1.28-.12-1.93-.18-.02-.01-.03-.01-.05-.01h-.06c-.41-.04-.83-.08-1.24-.12-.83-.08-1.65-.15-2.48-.23-.48-.05-.97-.1-1.45-.14-.24-.02-.48-.04-.72-.06-.28-.03-.57-.05-.86-.08-.53-.05-1.06-.1-1.59-.15-.6-.06-1.2-.11-1.8-.16-1.14-.1-2.28-.2-3.43-.31-.73-.07-1.46-.13-2.19-.2h-.1c-2.22-.2-4.44-.4-6.69-.59-1.57-.14-3.14-.27-4.72-.4-9.37-.8-18.92-1.57-28.61-2.32-1.36-.1-2.72-.21-4.09-.31h-.1c-.98-.08-1.97-.15-2.96-.22-1.92-.15-3.86-.29-5.8-.43-2.93-.22-5.88-.43-8.84-.64-2.42-.18-4.84-.35-7.27-.52-1.49-.1-2.99-.2-4.49-.31-2.18-.15-4.37-.29-6.56-.44-1.34-.09-2.68-.18-4.02-.26-.7-.05-1.4-.09-2.1-.14-1.77-.12-3.54-.23-5.32-.35-.27-.02-.55-.03-.83-.05h-.09c-7.31-.47-14.68-.92-22.11-1.36-2.56-.15-5.14-.3-7.72-.45-10.31-.6-20.74-1.16-31.25-1.7-2.62-.14-5.26-.27-7.9-.4-2.64-.14-5.28-.27-7.93-.39-1.56-.08-3.12-.16-4.69-.23h-.08s-.03-.01-.04,0c-1.01-.05-2.01-.1-3.02-.15-1.96-.09-3.93-.18-5.89-.27-.7-.04-1.4-.07-2.1-.1-2.32-.11-4.65-.21-6.97-.31-.35-.02-.7-.04-1.05-.05-2.68-.12-5.36-.24-8.05-.35-2.69-.12-5.38-.23-8.07-.34-2.69-.11-5.39-.22-8.09-.33h-.13c-9.88-.4-19.8-.77-29.76-1.12-1.82-.06-3.65-.13-5.47-.19-4.57-.15-9.16-.31-13.74-.45-5.47-.18-10.95-.35-16.44-.51-2.75-.08-5.49-.16-8.24-.23-4.79-.14-9.6-.27-14.4-.39-1.82-.05-3.65-.1-5.47-.14-8.51-.22-17.02-.41-25.53-.59-4.13-.09-8.26-.17-12.39-.25-2.1-.04-4.2-.08-6.29-.12-3.41-.07-6.82-.13-10.23-.18-5.5-.09-11-.18-16.5-.25-2.6-.04-5.2-.08-7.8-.12h-.1c-.12.01-.23,0-.33,0-2.6-.03-5.2-.06-7.81-.1h-.29c-.39,0-.77,0-1.15,0-5.31-.06-10.62-.11-15.91-.16-4.02-.03-8.02-.07-12.03-.1-4-.03-7.99-.05-11.98-.07-3.8-.02-7.6-.04-11.38-.05-2.35-.01-4.69-.01-7.03-.02-4.68-.01-9.36-.02-14.02-.02-8.06,0-16.16.02-24.3.05-4.07.02-8.14.03-12.23.06-4.08.02-8.17.05-12.27.08-4.1.03-8.2.06-12.31.1-8.38.08-16.77.17-25.19.29-2.94.03-5.89.08-8.83.12-3.79.05-7.59.11-11.38.17-.53,0-1.06.01-1.6.02-2.22.04-4.45.08-6.68.12-2.76.05-5.52.1-8.28.15-1.01.01-2.03.03-3.05.05-1.74.04-3.49.07-5.24.11-2.76.06-5.53.11-8.29.17-1.5.03-2.99.06-4.49.09-1.27.03-2.53.06-3.8.09-5.18.12-10.36.24-15.54.37-1.72.04-3.44.09-5.17.13-1.38.03-2.76.07-4.14.11-2.07.05-4.14.1-6.21.16-.68.02-1.37.04-2.06.06-2.76.07-5.52.15-8.27.23-1.64.05-3.28.1-4.91.15-1.5.04-3,.08-4.5.13-1.57.04-3.13.09-4.69.14-1.09.04-2.18.07-3.27.1-.16.01-.33.01-.5.02-2.48.08-4.96.16-7.43.24-5.29.17-10.57.35-15.84.54-1.08.04-2.17.08-3.26.12h-.02s-.06,0-.09,0c-.04,0-.07,0-.11,0-.42.01-.84.03-1.26.04-.72.02-1.44.05-2.17.08-1.7.06-3.4.12-5.1.19-1.44.05-2.88.1-4.33.16-1.71.06-3.43.13-5.14.2-3.19.12-6.37.25-9.55.38-.48.02-.95.04-1.43.06h-.04c-2.73.11-5.46.22-8.18.34-2.65.11-5.3.22-7.94.34-.33.02-.65.03-.98.04-1.92.08-3.84.17-5.75.26-5.48.25-10.94.5-16.38.76-.19.01-.37.01-.56.02-.12.01-.24.01-.36.02-1.24.06-2.48.12-3.72.18-6.52.31-13.01.64-19.46.99-.83.05-1.65.09-2.47.13-2.02.1-4.03.21-6.04.32-2.53.14-5.06.28-7.58.42-1.29.07-2.58.14-3.86.22-2.9.17-5.79.33-8.67.5-.22,0-.44.02-.65.03-.07,0-.13.01-.2.01-.29.02-.57.03-.85.05-.49.03-.97.06-1.46.09-1.18.07-2.37.14-3.54.21-.93.05-1.85.11-2.76.17-.35.02-.7.04-1.05.07-.74.04-1.48.09-2.22.13-1.09.06-2.18.13-3.27.2-.39.02-.78.05-1.16.08-13.64.86-27.06,1.76-40.2,2.71h-.08c-1.87.14-3.74.28-5.6.42-4.86.35-9.69.72-14.47,1.1-2.36.18-4.72.37-7.07.55-4.48.36-8.92.73-13.33,1.1-.05,0-.1.01-.16.01-.22.02-.45.04-.68.06-1.41.12-2.81.24-4.21.36-.86.08-1.72.15-2.57.22-.07.01-.13.02-.2.02h-.04c-1.3.12-2.6.23-3.9.35-.98.08-1.95.17-2.92.26-1.03.09-2.06.18-3.08.27-1.46.13-2.92.27-4.37.4-.38.04-.75.07-1.13.11h-.08c-1.61.15-3.21.3-4.81.45-6.75.64-13.39,1.29-19.91,1.96-.84.22-1.76.49-2.73.78-.29.09-.59.19-.9.29-.6.19-1.22.4-1.85.62-.66.23-1.33.47-2.02.71-.56.2-1.13.41-1.7.63-.56.21-1.13.43-1.7.65-8.13,3.19-16.88,7.38-19.82,10.12,0,.07,0,.14,0,.22h0c0,.09-.01.18-.02.26-.02.42-.04.84-.07,1.28-.1,1.94-.2,4.02-.31,6.21-.01.24-.02.48-.04.72-.11,2.43-.22,5.01-.33,7.73-.07,1.72-.14,3.5-.21,5.33,8.27.92,18.79,1.79,30.44,2.51,1.14.07,2.3.14,3.47.2.84.05,1.69.1,2.55.15,1.17.06,2.35.12,3.54.18,5.21.27,10.57.51,15.99.7.07,0,.15,0,.23.01,5.36.2,10.78.35,16.17.45.14,0,.28.01.42.01-.34,0-.69.03-1.05.04-2.55.08-5.11.16-7.67.23-2.96.09-5.93.18-8.92.27-1.6.04-3.22.09-4.84.14-2.41.07-4.83.14-7.27.2-3.86.11-7.76.21-11.68.31-2.68.06-5.37.13-8.07.19-7.73.18-15.57.35-23.54.49-.03.72-.05,1.44-.07,2.16-.05,1.3-.09,2.62-.14,3.96-.03.91-.06,1.84-.09,2.77-.08,2.36-.15,4.79-.22,7.27-.02.76-.05,1.53-.07,2.31-.04,1.3-.07,2.62-.11,3.95-.03,1.04-.06,2.08-.09,3.14h0c-.08,3.01-.16,6.07-.24,9.2v.1c-.05,2.17-.11,4.37-.16,6.6-.01.49-.02.99-.04,1.49-.03,1.56-.06,3.14-.1,4.74-.03,1.59-.06,3.19-.1,4.81-.01.32-.01.64-.02.97-.03,1.56-.07,3.12-.1,4.71-.01.83-.03,1.67-.05,2.51h0c-.13,6.93-.25,14.05-.36,21.34,1.73.31,3.65.61,5.73.93,0,0,.02.01.03,0,.7.1,1.42.2,2.15.31l1.29.18c.76.1,1.55.21,2.35.31.06.01.11.02.17.02.7.09,1.41.18,2.13.27,2.88.36,5.94.72,9.15,1.07,13.89,1.5,30.65,2.88,47.38,3.85.21.01.4.03.6.04.13,0,.26.01.38.02.17-4.08.34-8.16.52-12.24.04-.88.08-1.75.12-2.63.17-3.77.35-7.55.54-11.32.01-.24.02-.47.03-.7.02-.38.04-.75.06-1.12.02-.37.04-.74.06-1.12.13-2.72.27-5.45.41-8.17.03-.7.07-1.39.11-2.09.14-2.67.28-5.34.43-8,.06-1.18.12-2.36.19-3.54.08-1.55.17-3.11.26-4.66.02-.45.05-.9.07-1.34.13-2.33.27-4.65.4-6.97.18-3.14.36-6.27.55-9.4.16-2.75.32-5.5.49-8.25.19-3.13.38-6.26.58-9.39h0c.01-.31.03-.6.05-.9.27-4.36.54-8.71.81-13.06,13.1-1.21,26.17-2.37,39.25-3.48,32.34-2.75,64.69-5.19,97.42-7.32,99.89-6.46,203.37-9.94,321.08-9.94,31.37,0,61.68.25,91.15.75,25.94.43,51.23,1.05,76.04,1.85,39.15,1.27,77.08,2.98,114.41,5.1,19.41,1.1,38.65,2.32,57.82,3.64,17.3,1.19,34.54,2.47,51.78,3.83,12.57.99,25.16,2.03,37.76,3.11,9.52.82,19.06,1.66,28.62,2.52.02.35.04.71.06,1.06.11,2.13.23,4.26.33,6.39.11,1.94.21,3.87.3,5.81.1,1.84.19,3.68.28,5.52.01.32.03.64.04.95.05.84.09,1.69.12,2.53.03.63.07,1.25.09,1.87.03.63.06,1.25.09,1.87.06,1.26.12,2.51.18,3.76.03.7.06,1.39.09,2.09h0c.14,2.97.26,5.92.38,8.88.05,1.01.09,2.01.13,3.02.04.97.08,1.94.12,2.91.04.93.08,1.87.11,2.8.02.47.04.93.05,1.4.06,1.32.11,2.64.15,3.96.06,1.33.11,2.67.15,4h.01c.25-.04.51-.07.78-.11,3.86-.55,7.71-1.09,11.55-1.62,1.88-.26,3.76-.52,5.64-.77,1.29-.18,2.58-.36,3.87-.53,2.77-.38,5.54-.75,8.3-1.11,3.54-.47,7.08-.93,10.61-1.38,1.86-.24,3.72-.48,5.58-.71,2.18-.28,4.36-.55,6.54-.82,2.19-.27,4.37-.54,6.55-.8,1.67-.21,3.35-.41,5.02-.61,2.81-.34,5.61-.67,8.41-.99-.02-2.32-.04-4.61-.07-6.86ZM82.39,375.29c-.03-.33-.07-.67-.1-1.01-.57-5.63-1.1-11.27-1.58-16.91m-.7-8.65h-.01c-.04-.51-.08-1.01-.11-1.52-.59-7.63-1.1-15.27-1.54-22.91-.04-.67-.07-1.34-.11-2.01h0c-.14-2.57-.28-5.14-.4-7.7t0-.02c-.1-1.93-.19-3.86-.28-5.79-.98-22-1.41-44.05-1.41-66.12,0-3,0-6.01.03-9.01,0-.98.01-1.95.01-2.92.02-3.13.05-6.27.09-9.4.04-3.56.09-7.13.16-10.7,0-.11,0-.22.01-.33,0-.26,0-.52.01-.79,0-.52.02-1.04.03-1.57v-.03c.03-1.72.06-3.44.1-5.16,0-.7.03-1.4.05-2.1.01-.74.03-1.48.05-2.22v-.02c.02-1,.05-2,.07-3.01.11-4.53.24-9.07.38-13.6.05-1.74.1-3.48.16-5.22.07-2,.14-4.01.21-6.01.04-1.49.1-2.98.16-4.47.09-2.52.19-5.05.29-7.57,0-.23.02-.46.03-.69.01-.11.01-.23.01-.35s.01-.24.02-.35h0c-1.29.04-2.57.08-3.86.13-16.97.58-34.08,1.25-51.79,2.09-3.19.15-6.41.3-9.65.46-2.04.11-4.09.21-6.15.32-.04,2.96-.07,5.95-.11,8.96v.02c-.15,13.38-.25,27.14-.3,41.04v.45c0,3.04-.02,6.09-.02,9.14v.03c-.02,9.13-.01,18.29.03,27.41,0,2.62.02,5.24.03,7.85.07,10.69.18,21.31.33,31.73,0,1.22.03,2.43.06,3.64,0,.34,0,.68,0,1.02.04,2.33.08,4.64.12,6.95.09,5.28.2,10.51.32,15.66h0c.07,3.13.14,6.23.23,9.29.25,9.2.54,18.12.88,26.66.13,3.01.25,5.98.38,8.89.08,1.82.17,3.63.26,5.41.06,1.14.11,2.28.17,3.41.13,2.51.27,4.98.41,7.4.03.48.06.96.08,1.43.05.78.1,1.55.15,2.32.09,1.54.19,3.06.29,4.56.04.63.08,1.26.13,1.89,0,.11.01.23.02.34.42,6.09.88,11.8,1.38,17.1.07.78.15,1.54.23,2.3,0,.11.02.23.03.34.21,2.14.43,4.2.66,6.19.55,4.82,1.15,9.19,1.8,13.04.06.35.12.7.17,1.04.28,1.57.56,3.05.85,4.43.12.56.23,1.1.35,1.62.02.1.04.19.06.29h.01c.45,1.98.92,3.72,1.41,5.23,1.68,1.62,7.73,3.46,12.13,4.22.19,0,.38.01.58.01h.01c11.66.2,23.31.4,34.97.58,7.73.13,15.47.25,23.21.37,3.63.06,7.27.11,10.9.16,8.19.13,16.38.25,24.58.36,10.93.16,21.85.31,32.78.44,6.91.09,13.82.18,20.72.26,6.65.09,13.3.17,19.95.24,3.02.04,6.04.08,9.06.11h.16c232.68,2.61,465.37,2.43,698.05-.37h.04c2.18-.03,4.36-.05,6.54-.08,11.9-.14,23.8-.3,35.71-.46.67-.01,1.34-.02,2.02-.03,14.51-.19,29.03-.4,43.54-.61,20.74-.3,41.48-.63,62.22-.98,2.97-.28,11.07-2.83,11.77-4.24.26-1.15.52-2.48.77-3.99.06-.38.12-.77.19-1.17.12-.81.25-1.65.37-2.54,0-.02,0-.03.01-.05.04-.35.09-.69.14-1.05.01-.08.02-.17.03-.26.52-3.94,1-8.64,1.44-13.99.11-1.28.21-2.6.32-3.95.04-.55.09-1.1.13-1.65.38-5.02.73-10.5,1.06-16.4.09-1.7.19-3.45.28-5.23.05-.83.09-1.68.13-2.53.05-.85.09-1.71.13-2.58.19-3.75.36-7.63.53-11.64.09-2,.17-4.04.25-6.1-3.06-.25-6.12-.51-9.18-.77-4.54-.39-9.07-.79-13.59-1.2-2.53-.22-5.05-.46-7.58-.69-14.2-1.32-28.36-2.73-42.51-4.2,0,.02,0,.04,0,.07-.16,2.31-.32,4.62-.48,6.94-.33,4.58-.67,9.16-1.03,13.74h-.01c0,.11-.01.21-.02.32-.14,1.79-.28,3.58-.43,5.36v.02c-.25,3.05-.5,6.11-.77,9.16-.15,1.72-.3,3.43-.45,5.14-.23,2.61-.47,5.21-.72,7.82-.15,1.71-.32,3.41-.48,5.12-.08.79-.15,1.58-.23,2.37-9.39.23-18.78.45-28.17.66-9.18.21-18.35.42-27.52.61-8.37.18-16.74.35-25.1.51-4.44.09-8.89.18-13.33.26-3.76.08-7.53.15-11.29.22-9.17.17-18.33.34-27.5.49-4.24.07-8.47.14-12.71.21-5.26.09-10.51.17-15.77.25h-.01s-.01.01-.02,0t-.02,0s-.01.01-.02,0t-.02,0s-.03.01-.04,0c-.01.01-.02.01-.03,0t-.02,0s-.01.01-.02,0h-.01c-11.52.18-23.05.35-34.58.51-11.52.15-23.04.3-34.57.44-11.53.13-23.05.26-34.57.37-11.53.12-23.06.22-34.58.31-.05.01-.09.01-.13,0-.03.01-.05.01-.07,0-.02.01-.03.01-.04,0-.01.01-.02.01-.03,0h-.01c-52.53-.59-103.66-.27-154.03.61h-3.2c-39.47.66-78.45,1.66-117.27,2.81h-.71c-59.04-.36-129.53-.98-190.34-2h-.25c-77.69-1.31-139.5-3.29-141.22-6.25-.12-.87-.25-1.74-.37-2.61-.39-2.85-.78-5.71-1.15-8.57h0c-.07-.59-.15-1.18-.22-1.77-.65-5.07-1.26-10.14-1.83-15.22-.37-3.26-.72-6.53-1.06-9.8m-1.69-18.07c-.23-2.56-.44-5.11-.63-7.67-.03-.27-.05-.55-.06-.83m994.87-199.7c0-2.09,0-4.16-.01-6.21,0-1.91-.01-3.8-.01-5.68-.02-5.64-.04-11.16-.07-16.55-.01-2.08-.03-4.14-.04-6.17-.02-2.7-.04-5.36-.06-7.98-28.65-.19-46.26.95-71.71,3.22-.4.03-.8.07-1.18.1h-.01c.08,2.05.15,4.09.22,6.14.08,2.09.15,4.19.21,6.29.05,1.7.11,3.4.16,5.1.05,1.41.09,2.83.13,4.24.02.77.04,1.54.06,2.31.06,1.98.11,3.95.16,5.92.18,6.57.33,13.14.45,19.7,0,.28.01.56.01.84.05,2.55.1,5.1.13,7.65.01.54.02,1.09.03,1.64.03,1.8.06,3.6.08,5.4.03,2.48.06,4.96.09,7.44.02,1.64.03,3.28.04,4.92.02,1.67.03,3.34.04,5.01.02,1.93.03,3.86.03,5.79.01.11.01.21.01.32,0,.05,0,.1-.01.15.01.21.01.41.01.61.02,4.92.02,9.83.01,14.75,0,1.47,0,2.94-.01,4.41-.01,3.08-.03,6.16-.05,9.24-.02,3.09-.05,6.17-.09,9.25-.03,2.62-.06,5.24-.1,7.85-.07,4.55-.15,9.1-.24,13.64-.11,5.17-.24,10.33-.38,15.5-.08,3.05-.17,6.09-.27,9.14-.01.27-.02.53-.02.79-.07,2.03-.14,4.06-.21,6.09-.13,3.86-.28,7.72-.43,11.59-.1,2.25-.19,4.49-.29,6.74-.08,1.89-.16,3.78-.25,5.66-.03.55-.05,1.1-.08,1.64-.07,1.53-.14,3.06-.22,4.6-.11,2.24-.22,4.48-.34,6.72s-.25,4.48-.37,6.72c-.05,1.04-.11,2.09-.17,3.13-.07,1.11-.13,2.21-.2,3.32-.06,1.02-.12,2.04-.18,3.06-.28,4.69-.58,9.37-.9,14.06v.05c3.29.15,6.65.27,10.09.36,3.22.08,6.51.14,9.85.17,5.21.06,10.56.05,16.03,0,1.81,0,3.64-.03,5.47-.06h.05c2.77-.04,5.57-.09,8.39-.15h.04c1.88-.04,3.77-.09,5.68-.13,1.92-.05,3.85-.1,5.8-.16,2.9-.08,5.83-.17,8.77-.27.98-.03,1.97-.07,2.96-.1.05-1.38.1-2.77.15-4.18.03-.73.05-1.46.07-2.19.03-.68.05-1.37.07-2.06.03-.81.06-1.62.08-2.44.04-1.01.07-2.03.1-3.05.17-5.51.33-11.16.49-16.93v-.19c.05-1.88.1-3.78.15-5.68,0-.32,0-.64.02-.96.11-4.38.21-8.83.31-13.33.05-2.11.1-4.22.14-6.35,0-.19.01-.37.01-.56.02-.86.04-1.72.05-2.58.02-.86.04-1.72.05-2.59.13-6.75.25-13.59.36-20.5.03-2.02.07-4.04.09-6.07.02-.99.03-1.98.04-2.97.38-26.25.6-53.17.69-79.06.01-1.42.01-2.84.01-4.25.01-1.45.02-2.89.01-4.33v-4.31c.02-7.89.03-15.65.01-23.23Z"/>
        <path class="cls-29" d="m978.02,441.4c-314.97-23.54-595.19-6.45-877.36-1.04h-.15c-11.77.23-23.54.43-35.31.61-11.82.18-23.65.34-35.49.47,11.66.2,23.31.4,34.97.58,7.73.13,15.47.25,23.21.37,3.63.06,7.27.11,10.9.16,8.19.13,16.38.25,24.58.36,10.93.16,21.85.31,32.78.44,6.91.09,13.82.18,20.72.26,6.65.09,13.3.17,19.95.24,3.02.04,6.04.08,9.06.11h.16c33.9-.95,67.72-1.84,101.36-2.58,118.49-2.61,227.22-4.82,335.43-4.47,85.69.27,171.21,2.15,261.26,6.68h.04c2.18-.03,4.36-.05,6.54-.08,11.9-.14,23.8-.3,35.71-.46.67-.01,1.34-.02,2.02-.03,14.51-.19,29.03-.4,43.54-.61-4.56-.32-9.2-.66-13.92-1.01Zm-749.53-21.88h-.25c-25.1.78-50.24,1.54-75.41,2.23h-.15c-11.77.32-23.55.63-35.34.91-.41.02-.83.03-1.24.03h-.06c-1.27.04-2.54.07-3.8.1-1.27.03-2.55.06-3.82.09-5.38.13-10.76.25-16.14.37-4.49.1-8.97.19-13.46.28-4.31.1-8.63.18-12.95.26-8.58.17-17.17.31-25.76.45h-.3c-4.27.07-8.54.13-12.81.19-4.29.06-8.57.12-12.86.17.06.35.12.7.17,1.04.28,1.57.56,3.05.85,4.43.12.56.23,1.1.35,1.62.02.1.05.19.07.29h0c11.91-.16,23.92-.34,36.02-.52,51.98-.78,105.6-1.7,159.58-3.31,18.08-.54,36.06-1.11,54.02-1.69.01.01.02.01.03,0t.02,0s.02.01.03,0c0,.01.03.01.04,0,28.34-.92,56.57-1.87,84.8-2.79h.46c22.74-.75,45.45-1.48,68.25-2.15-59.04-.36-129.53-.98-190.34-2Zm727.36,3.59h-.07c-8.65-.46-17.29-.93-25.94-1.41-.03,0-.06,0-.09,0-17.85-.98-35.67-1.97-53.53-2.94h-.03c-14.45-.79-28.9-1.56-43.36-2.29h-.01s-.01.01-.02,0t-.02,0s-.01.01-.02,0t-.02,0s-.03.01-.04,0c-.01.01-.02.01-.03,0t-.02,0s-.01.01-.02,0h-.01c-11.52.18-23.05.35-34.58.51-11.52.15-23.04.3-34.57.44-11.53.13-23.05.26-34.57.37-11.53.12-23.06.22-34.58.31,31.45.34,63.39.99,95.95,2.03h.24c20.48.66,41.25,1.48,62.27,2.47h.2c14,.65,28.12,1.38,42.38,2.19h.11c3.65.21,7.3.43,10.97.65,53.31,3.18,106.91,6.05,160.26,7.76.06-.38.12-.77.19-1.17.12-.81.25-1.65.37-2.54,0-.02,0-.03.01-.05.04-.35.09-.69.14-1.05.01-.08.02-.17.03-.26-37.26-1.24-74.44-3.04-111.59-5.02Zm-727.36-3.59h-.25c-25.1.78-50.24,1.54-75.41,2.23,7.26.1,14.52.19,21.78.27,9.14.12,18.28.23,27.42.33,7.79.09,15.59.18,23.38.26,7.79.09,15.58.17,23.37.24,33.78.33,67.56.6,101.34.82h.46c22.74-.75,45.45-1.48,68.25-2.15-59.04-.36-129.53-.98-190.34-2Zm0,0h-.25c-25.1.78-50.24,1.54-75.41,2.23,7.26.1,14.52.19,21.78.27,9.14.12,18.28.23,27.42.33,7.79.09,15.59.18,23.38.26,7.79.09,15.58.17,23.37.24,33.78.33,67.56.6,101.34.82h.46c22.74-.75,45.45-1.48,68.25-2.15-59.04-.36-129.53-.98-190.34-2Zm0,0h-.25c-25.1.78-50.24,1.54-75.41,2.23,7.26.1,14.52.19,21.78.27,9.14.12,18.28.23,27.42.33,7.79.09,15.59.18,23.38.26,7.79.09,15.58.17,23.37.24,33.78.33,67.56.6,101.34.82h.46c22.74-.75,45.45-1.48,68.25-2.15-59.04-.36-129.53-.98-190.34-2Zm0,0h-.25c-25.1.78-50.24,1.54-75.41,2.23,7.26.1,14.52.19,21.78.27,9.14.12,18.28.23,27.42.33,7.79.09,15.59.18,23.38.26,7.79.09,15.58.17,23.37.24,33.78.33,67.56.6,101.34.82h.46c22.74-.75,45.45-1.48,68.25-2.15-59.04-.36-129.53-.98-190.34-2Zm0,0h-.25c-25.1.78-50.24,1.54-75.41,2.23,7.26.1,14.52.19,21.78.27,9.14.12,18.28.23,27.42.33,7.79.09,15.59.18,23.38.26,7.79.09,15.58.17,23.37.24,33.78.33,67.56.6,101.34.82h.46c22.74-.75,45.45-1.48,68.25-2.15-59.04-.36-129.53-.98-190.34-2Zm0,0h-.25c-25.1.78-50.24,1.54-75.41,2.23,7.26.1,14.52.19,21.78.27,9.14.12,18.28.23,27.42.33,7.79.09,15.59.18,23.38.26,7.79.09,15.58.17,23.37.24,33.78.33,67.56.6,101.34.82h.46c22.74-.75,45.45-1.48,68.25-2.15-59.04-.36-129.53-.98-190.34-2Zm0,0h-.25c-25.1.78-50.24,1.54-75.41,2.23,7.26.1,14.52.19,21.78.27,9.14.12,18.28.23,27.42.33,7.79.09,15.59.18,23.38.26,7.79.09,15.58.17,23.37.24,33.78.33,67.56.6,101.34.82h.46c22.74-.75,45.45-1.48,68.25-2.15-59.04-.36-129.53-.98-190.34-2Zm0,0h-.25c-25.1.78-50.24,1.54-75.41,2.23,7.26.1,14.52.19,21.78.27,9.14.12,18.28.23,27.42.33,7.79.09,15.59.18,23.38.26,7.79.09,15.58.17,23.37.24,33.78.33,67.56.6,101.34.82h.46c22.74-.75,45.45-1.48,68.25-2.15-59.04-.36-129.53-.98-190.34-2Zm785.76-12.93c-6.45-.25-12.89-.53-19.32-.82-.15,1.71-.32,3.41-.48,5.12,6.44.31,12.88.63,19.33.93,18.34.86,36.71,1.65,55.1,2.32.11-1.28.21-2.6.32-3.95.04-.55.09-1.1.13-1.65-18.39-.54-36.76-1.19-55.08-1.95Zm-785.76,12.93h-.25c-25.1.78-50.24,1.54-75.41,2.23,7.26.1,14.52.19,21.78.27,9.14.12,18.28.23,27.42.33,7.79.09,15.59.18,23.38.26,7.79.09,15.58.17,23.37.24,33.78.33,67.56.6,101.34.82h.46c22.74-.75,45.45-1.48,68.25-2.15-59.04-.36-129.53-.98-190.34-2Zm0,0h-.25c-25.1.78-50.24,1.54-75.41,2.23,7.26.1,14.52.19,21.78.27,9.14.12,18.28.23,27.42.33,7.79.09,15.59.18,23.38.26,7.79.09,15.58.17,23.37.24,33.78.33,67.56.6,101.34.82h.46c22.74-.75,45.45-1.48,68.25-2.15-59.04-.36-129.53-.98-190.34-2Zm0,0h-.25c-25.1.78-50.24,1.54-75.41,2.23,7.26.1,14.52.19,21.78.27,9.14.12,18.28.23,27.42.33,7.79.09,15.59.18,23.38.26,7.79.09,15.58.17,23.37.24,33.78.33,67.56.6,101.34.82h.46c22.74-.75,45.45-1.48,68.25-2.15-59.04-.36-129.53-.98-190.34-2Zm-142.99-17.43c-6.47.15-12.93.27-19.39.37-18.2.26-36.4.34-54.68.28.07.77.15,1.54.22,2.29,0,.11.02.23.03.34.22,2.14.44,4.2.67,6.19h0c3.19.06,6.4.09,9.63.11h.02c7.6.06,15.28.05,23.02-.03,2.24-.02,4.48-.05,6.73-.08,1.85-.03,3.7-.06,5.55-.09,3.32-.06,6.64-.13,9.97-.21,3.86-.09,7.72-.2,11.58-.33,2.27-.07,4.53-.15,6.8-.23.33-.01.67-.02,1-.04-.39-2.85-.78-5.71-1.15-8.57Zm142.99,17.43h-.25c-25.1.78-50.24,1.54-75.41,2.23,7.26.1,14.52.19,21.78.27,9.14.12,18.28.23,27.42.33,7.79.09,15.59.18,23.38.26,7.79.09,15.58.17,23.37.24,33.78.33,67.56.6,101.34.82h.46c22.74-.75,45.45-1.48,68.25-2.15-59.04-.36-129.53-.98-190.34-2Zm0,0h-.25c-25.1.78-50.24,1.54-75.41,2.23,7.26.1,14.52.19,21.78.27,9.14.12,18.28.23,27.42.33,7.79.09,15.59.18,23.38.26,7.79.09,15.58.17,23.37.24,33.78.33,67.56.6,101.34.82h.46c22.74-.75,45.45-1.48,68.25-2.15-59.04-.36-129.53-.98-190.34-2Zm0,0h-.25c-25.1.78-50.24,1.54-75.41,2.23,7.26.1,14.52.19,21.78.27,9.14.12,18.28.23,27.42.33,7.79.09,15.59.18,23.38.26,7.79.09,15.58.17,23.37.24,33.78.33,67.56.6,101.34.82h.46c22.74-.75,45.45-1.48,68.25-2.15-59.04-.36-129.53-.98-190.34-2Zm0,0h-.25c-25.1.78-50.24,1.54-75.41,2.23,7.26.1,14.52.19,21.78.27,9.14.12,18.28.23,27.42.33,7.79.09,15.59.18,23.38.26,7.79.09,15.58.17,23.37.24,33.78.33,67.56.6,101.34.82h.46c22.74-.75,45.45-1.48,68.25-2.15-59.04-.36-129.53-.98-190.34-2Zm0,0h-.25c-25.1.78-50.24,1.54-75.41,2.23,7.26.1,14.52.19,21.78.27,9.14.12,18.28.23,27.42.33,7.79.09,15.59.18,23.38.26,7.79.09,15.58.17,23.37.24,33.78.33,67.56.6,101.34.82h.46c22.74-.75,45.45-1.48,68.25-2.15-59.04-.36-129.53-.98-190.34-2Zm0,0h-.25c-25.1.78-50.24,1.54-75.41,2.23,7.26.1,14.52.19,21.78.27,9.14.12,18.28.23,27.42.33,7.79.09,15.59.18,23.38.26,7.79.09,15.58.17,23.37.24,33.78.33,67.56.6,101.34.82h.46c22.74-.75,45.45-1.48,68.25-2.15-59.04-.36-129.53-.98-190.34-2Zm0,0h-.25c-25.1.78-50.24,1.54-75.41,2.23,7.26.1,14.52.19,21.78.27,9.14.12,18.28.23,27.42.33,7.79.09,15.59.18,23.38.26,7.79.09,15.58.17,23.37.24,33.78.33,67.56.6,101.34.82h.46c22.74-.75,45.45-1.48,68.25-2.15-59.04-.36-129.53-.98-190.34-2Zm0,0h-.25c-25.1.78-50.24,1.54-75.41,2.23,7.26.1,14.52.19,21.78.27,9.14.12,18.28.23,27.42.33,7.79.09,15.59.18,23.38.26,7.79.09,15.58.17,23.37.24,33.78.33,67.56.6,101.34.82h.46c22.74-.75,45.45-1.48,68.25-2.15-59.04-.36-129.53-.98-190.34-2Zm0,0h-.25c-25.1.78-50.24,1.54-75.41,2.23,7.26.1,14.52.19,21.78.27,9.14.12,18.28.23,27.42.33,7.79.09,15.59.18,23.38.26,7.79.09,15.58.17,23.37.24,33.78.33,67.56.6,101.34.82h.46c22.74-.75,45.45-1.48,68.25-2.15-59.04-.36-129.53-.98-190.34-2Zm0,0h-.25c-25.1.78-50.24,1.54-75.41,2.23,7.26.1,14.52.19,21.78.27,9.14.12,18.28.23,27.42.33,7.79.09,15.59.18,23.38.26,7.79.09,15.58.17,23.37.24,33.78.33,67.56.6,101.34.82h.46c22.74-.75,45.45-1.48,68.25-2.15-59.04-.36-129.53-.98-190.34-2Zm830.51-22.92c-4.89-.25-9.76-.52-14.64-.8-4.84-.28-9.68-.56-14.52-.85-4.84-.29-9.68-.59-14.53-.9-6.39-.4-12.8-.82-19.21-1.24-.15,1.72-.3,3.43-.45,5.14,6.53.36,12.94.71,19.25,1.04,18.98,1.02,37.06,1.92,54.91,2.65.1-1.46.19-2.95.28-4.47-3.7-.18-7.4-.37-11.09-.57Zm-976.61-21.3c-1.59.05-3.18.1-4.77.14-.88.02-1.76.05-2.64.08-1.32.03-2.64.07-3.97.11-.44.01-.88.02-1.32.04-1.71.05-3.43.09-5.15.14-.46,0-.92.01-1.38.03-.38,0-.76.01-1.15.02-.32,0-.64.01-.96.02-.07.01-.13.01-.2.01-.17,0-.33,0-.5,0-.61.01-1.22.02-1.83.04-3.1.07-6.22.13-9.35.19-1.56.03-3.13.05-4.71.08-1.28.02-2.55.04-3.83.06-4.73.07-9.5.13-14.31.17-1.85.02-3.71.03-5.58.04-1.49.01-2.99.02-4.5.02-.79.01-1.59.01-2.39.01h-.99c-1.13,0-2.26,0-3.4,0,.04.78.09,1.55.14,2.32.09,1.54.19,3.06.29,4.56.04.63.08,1.26.13,1.89,0,.11.01.23.02.34,6.45.12,12.83.19,19.15.22,2.01.01,4.02.02,6.01.01,9.79,0,19.43-.1,28.95-.28,6.48-.12,12.91-.29,19.3-.48-.37-3.26-.72-6.53-1.06-9.8Zm934.07,3.75c-6.35-.35-12.73-.72-19.13-1.1h-.01c0,.11-.01.21-.02.32-.14,1.79-.28,3.58-.43,5.36v.02c.99.05,1.98.1,2.97.14,3.57.18,7.13.35,10.67.51,1.85.09,3.7.18,5.55.26,4.25.2,8.48.39,12.7.58,3.54.16,7.06.31,10.57.46,10.54.46,21,.9,31.34,1.31.05-.83.09-1.68.13-2.53.05-.85.09-1.71.13-2.58-17.86-.8-36.05-1.72-54.47-2.75Zm-935.76-21.82c-.23-2.56-.44-5.11-.63-7.67-.03-.27-.05-.55-.06-.83h-.01c-.93.05-1.86.11-2.79.17-1.23.06-2.46.13-3.69.2-1.85.09-3.69.18-5.53.27-.29.01-.58.03-.86.04-1.56.07-3.12.14-4.68.2-.5.02-1,.04-1.5.06-.11,0-.23.01-.35.01-6.18.23-12.41.39-18.79.48-.64.01-1.28.02-1.92.02-10.07.12-20.53.06-31.74-.2.13,3.01.25,5.98.38,8.89,1.55.03,3.08.06,4.6.08,1.47.02,2.92.04,4.37.05.84.01,1.68.02,2.52.02,2.15.02,4.27.02,6.38.02.86,0,1.72,0,2.58-.01.86,0,1.72-.01,2.57-.01h1.09c1.81,0,3.62-.03,5.41-.06.2,0,.4,0,.6,0,.45,0,.9-.01,1.35-.02.55-.01,1.1-.02,1.65-.03.99,0,1.99-.03,2.97-.05.06-.01.12-.01.18-.01.82-.02,1.64-.03,2.46-.05.48-.01.95-.02,1.42-.04h.1c.84-.02,1.68-.05,2.51-.07,1.38-.04,2.75-.09,4.12-.14h.07c.7-.02,1.4-.05,2.09-.08.69-.03,1.39-.06,2.08-.09h.04c.64-.02,1.28-.04,1.92-.07,1.86-.08,3.72-.17,5.56-.26.46-.03.93-.05,1.39-.08,2.16-.11,4.32-.23,6.47-.36.15-.01.3-.02.45-.03.15-.01.3-.02.45-.03.82-.05,1.65-.1,2.47-.16.38-.02.76-.04,1.15-.07.38-.02.77-.04,1.15-.07m981.83,6.05c-4.54-.39-9.07-.79-13.59-1.2-2.53-.22-5.05-.46-7.58-.69-14.2-1.32-28.36-2.73-42.51-4.2,0,.02,0,.04,0,.07-.16,2.31-.32,4.62-.48,6.94,6.31.58,12.64,1.15,19,1.7,17.74,1.55,35.69,2.99,54.1,4.25.08-2,.17-4.04.25-6.1-3.06-.25-6.12-.51-9.18-.77Zm-984.69-48.71c-2.31.02-4.61.04-6.9.05-1.87.01-3.74.02-5.61.02-1.21,0-2.42,0-3.63.01-.92.01-1.84.01-2.76.01-.87,0-1.74,0-2.61-.01-2.1,0-4.2,0-6.29-.01-1.89,0-3.78,0-5.66-.02-.18,0-.35,0-.52-.01-.72,0-1.45-.01-2.17-.01-1.11-.01-2.22-.02-3.32-.02-.25-.01-.49-.01-.74-.01-1.87-.02-3.75-.04-5.61-.06-.2,0-.39,0-.58,0-1.91-.02-3.82-.05-5.72-.08h-.18c-.09,0-.17,0-.26-.01-1.95-.03-3.89-.06-5.83-.1h-.12s-.11,0-.17-.01c-1.98-.03-3.96-.07-5.93-.12-2.07-.04-4.14-.09-6.19-.15.07,3.12.14,6.22.23,9.28,4.09.04,8.2.06,12.33.06,3.78,0,7.58-.02,11.4-.05,2.42-.02,4.85-.05,7.29-.08,4.23-.06,8.49-.13,12.76-.22,2.13-.05,4.28-.09,6.43-.15.61-.01,1.22-.02,1.83-.04,1.85-.04,3.69-.1,5.54-.15,1.85-.05,3.71-.11,5.57-.16,2.45-.08,4.92-.16,7.39-.24.14,0,.29-.01.43-.01h0c-.14-2.57-.28-5.14-.4-7.7Zm996.72-221.56c-3.89.38-7.78.77-11.66,1.17-2.97.31-5.94.62-8.9.94-7.51.8-15,1.64-22.45,2.52-1.59.18-3.18.37-4.76.56-2.26.26-4.51.54-6.76.82-2.78.33-5.55.68-8.32,1.03-.6.07-1.21.15-1.81.23-2.81.35-5.62.71-8.42,1.08h-.01c.06,1.32.11,2.64.15,3.96.06,1.33.11,2.67.15,4h.01c.25-.04.51-.07.78-.11,3.86-.55,7.71-1.09,11.55-1.62,1.88-.26,3.76-.52,5.64-.77,1.29-.18,2.58-.36,3.87-.53,2.77-.38,5.54-.75,8.3-1.11,3.54-.47,7.08-.93,10.61-1.38,1.86-.24,3.72-.48,5.58-.71,2.18-.28,4.36-.55,6.54-.82,2.19-.28,4.37-.54,6.55-.8,1.67-.21,3.35-.41,5.02-.61,2.81-.34,5.61-.67,8.41-.99-.02-2.32-.04-4.61-.07-6.86Zm-55.76,243.13c-6.12-.85-12.27-1.71-18.49-2.59h-.01c-.05,1.04-.11,2.09-.17,3.13-.07,1.11-.13,2.21-.2,3.32,1.57.21,3.14.41,4.7.6,1.56.2,3.11.4,4.65.59,3.09.39,6.16.77,9.2,1.14,1.97.25,3.93.49,5.88.72,2.68.33,5.34.65,7.98.96,1.94.23,3.86.46,5.78.68,4.87.56,9.69,1.11,14.46,1.63,1.87.21,3.73.41,5.58.61,4.74.51,9.44,1,14.11,1.47h.01c.03-.81.05-1.62.07-2.44.04-1.01.07-2.03.1-3.05-18.05-2.05-35.7-4.32-53.65-6.77Zm55.95-221.73c-17.8,2.59-35.82,5.63-54.21,9.21-4.24.81-8.5,1.66-12.78,2.54-1.8.37-3.59.74-5.38,1.12.05,1.41.09,2.83.13,4.24.02.77.04,1.54.06,2.31h.01c1.32-.3,2.65-.59,3.97-.87,2.39-.51,4.79-1.02,7.19-1.51,2.32-.48,4.64-.94,6.95-1.4,2.29-.46,4.58-.91,6.85-1.34,1.02-.2,2.04-.4,3.05-.59,3.54-.68,7.06-1.33,10.57-1.96,1.74-.32,3.48-.63,5.22-.93.57-.11,1.13-.21,1.7-.3,1.35-.25,2.69-.48,4.04-.7,1.9-.33,3.8-.65,5.69-.96.76-.13,1.52-.26,2.28-.38,4.91-.81,9.81-1.57,14.7-2.31-.01-2.08-.03-4.14-.04-6.17Zm-1.64,204.74c-2.17-.31-4.35-.62-6.53-.94-2.19-.31-4.38-.63-6.58-.96-1.66-.24-3.33-.49-5.01-.74-11.56-1.71-23.28-3.51-35.09-5.37-.12-.02-.23-.04-.35-.06-5.97-.94-11.97-1.9-17.99-2.87-.08,1.89-.16,3.78-.25,5.66-.03.55-.05,1.1-.08,1.64,6.09.96,12.22,1.91,18.38,2.84,17.61,2.7,35.48,5.29,53.33,7.63v-.19c.05-1.88.1-3.78.15-5.68,0-.32.02-.64.03-.96h-.01Zm1.77-176.34h-.01c-6.7,1.32-13.25,2.72-19.71,4.17-1.62.37-3.23.73-4.83,1.11-1.3.3-2.6.6-3.9.91-1.3.31-2.6.62-3.89.94-1.78.42-3.56.86-5.33,1.3-1.99.49-3.97.99-5.95,1.5-.9.23-1.8.46-2.7.7-2.25.57-4.5,1.16-6.75,1.76-.21.06-.42.11-.64.17-2.99.79-5.98,1.6-8.97,2.42s-6,1.65-9.01,2.5c.05,2.55.1,5.1.13,7.65,6.02-1.87,11.98-3.69,17.97-5.46,16.74-4.93,33.82-9.43,53.59-13.46h.01c-.01-2.08-.01-4.15-.01-6.21Zm-1.21,150.93c-16.83-2.06-34.39-4.45-52.96-7.2-5.97-.87-12.04-1.79-18.22-2.75-.07,2.03-.14,4.06-.21,6.09,4.01.58,8,1.15,11.94,1.7,1.73.24,3.45.48,5.15.72.39.06.78.11,1.16.16,1.2.17,2.4.34,3.59.5,1.19.17,2.37.33,3.55.49,2.29.31,4.56.62,6.81.93.07,0,.14.02.22.03,1.16.16,2.31.32,3.46.47,1.15.16,2.29.31,3.43.46,3.08.41,6.11.81,9.09,1.2,1,.14,1.99.27,2.97.39,1.51.2,3.01.4,4.49.59,1.55.19,3.08.39,4.6.59,1.1.14,2.18.27,3.26.41,1.11.14,2.22.28,3.31.42,1.43.18,2.85.36,4.25.53,0-.19.01-.37.01-.56.02-.86.04-1.72.05-2.58.02-.86.04-1.72.06-2.59h-.01Zm.49-29.54c-13.89-2.9-27.56-6.13-40.98-9.69-4.24-1.13-8.16-2.24-11.76-3.33-7.26-2.21-13.24-4.36-18.02-6.46-.07,4.55-.15,9.1-.24,13.64,5.83,1.53,11.91,3.01,18.08,4.42,17.93,4.12,36.68,7.71,52.79,10.46.03-2.02.07-4.04.09-6.07.02-.99.04-1.98.05-2.97h-.01Zm.71-91.95c-18.23,5.67-35.91,12.05-53.27,18.98-6.02,2.39-12.01,4.85-17.96,7.38h-.01c.01.21.01.41.01.61.02,4.92.02,9.83.01,14.75.64-.31,1.32-.63,2.01-.94,5.32-2.4,10.64-4.76,16-7.07,17.36-7.5,34.97-14.52,53.19-20.82.01-1.42.01-2.84.01-4.25.01-1.45.02-2.89.01-4.33.01-1.44.01-2.87.01-4.31h-.01ZM58.16,201.34c-18.36,2.95-35.79,5.93-52,8.84v.42c-.02,3.04-.02,6.09-.03,9.14v.03h.01c8.33-1.51,17.01-3.04,26-4.59.99-.17,2-.34,3-.51,7.42-1.26,15.03-2.53,22.83-3.8.79-.13,1.6-.26,2.4-.38,2-.33,4.01-.65,6.02-.97,1.08-.17,2.16-.34,3.24-.51,1.87-.3,3.76-.59,5.65-.89.4-.06.81-.13,1.21-.19v-.03c.03-1.72.06-3.44.1-5.16,0-.7.03-1.4.05-2.1.01-.74.03-1.48.05-2.22-6.28.97-12.45,1.94-18.53,2.92Zm1016.27-119.11c-.01-.69-.02-1.38-.03-2.06-18.65,2.21-36.75,5-54.69,7.96-6.23,1.02-12.44,2.06-18.65,3.11.05,1.01.09,2.01.13,3.02,2.84-.43,5.68-.85,8.52-1.26.54-.08,1.07-.16,1.61-.24,2.37-.35,4.74-.69,7.11-1.03.46-.07.92-.13,1.38-.2,2.29-.33,4.57-.65,6.85-.97,1.23-.18,2.45-.35,3.67-.51,2.48-.35,4.96-.69,7.43-1.03,1.01-.14,2.02-.27,3.02-.41,2.74-.37,5.48-.74,8.21-1.1,1.67-.22,3.35-.44,5.02-.65,2.28-.3,4.55-.59,6.82-.87,1.81-.23,3.63-.46,5.44-.68,2.73-.34,5.46-.67,8.18-1h.01c-.01-.69-.02-1.39-.03-2.08ZM78.01,157.13c-.13,0-.26.01-.39.02-1.15.03-2.31.07-3.46.11-16.97.58-34.08,1.25-51.79,2.09-3.19.15-6.41.3-9.65.46-2.04.11-4.09.21-6.15.32-.04,2.96-.07,5.95-.11,8.96v.02c4.42-.23,8.8-.45,13.13-.67,4.34-.2,8.64-.4,12.91-.6,9-.4,17.87-.76,26.66-1.09.95-.04,1.9-.07,2.85-.11.29-.01.58-.02.87-.03,4.95-.18,9.87-.35,14.79-.52.09-2.52.19-5.05.29-7.57,0-.23.02-.46.03-.69.01-.11.01-.23.01-.35s.01-.24.02-.35h-.01Zm993.84-96.51c-.17-.61-.35-1.21-.54-1.82-.15-.52-.31-1.05-.47-1.57-.21-.69-.43-1.37-.66-2.05-3.82.37-7.62.77-11.41,1.18-.71.07-1.42.15-2.13.23-1.95.21-3.89.43-5.83.65-2.78.31-5.54.63-8.31.96-2.26.27-4.52.54-6.78.82-5.65.69-11.28,1.41-16.89,2.15.08,2.26.15,4.51.23,6.75,17.7-2.12,35.44-4.09,53.19-5.83-.13-.49-.26-.98-.4-1.47Zm0,0c-.17-.61-.35-1.21-.54-1.82-.15-.52-.31-1.05-.47-1.57-.21-.69-.43-1.37-.66-2.05-3.82.37-7.62.77-11.41,1.18-.71.07-1.42.15-2.13.23-1.95.21-3.89.43-5.83.65-2.78.31-5.54.63-8.31.96-2.26.27-4.52.54-6.78.82-5.65.69-11.28,1.41-16.89,2.15-.36.05-.71.09-1.06.14-2.19.29-4.38.58-6.56.88-.98.14-1.97.27-2.95.4-2.26.31-4.51.63-6.76.94-.57.08-1.14.16-1.71.24.1,1.84.19,3.68.28,5.52.01.32.03.64.04.95,6.31-.8,12.62-1.57,18.95-2.32,17.7-2.12,35.44-4.09,53.19-5.83-.13-.49-.26-.98-.4-1.47Zm0,0c-.17-.61-.35-1.21-.54-1.82-.15-.52-.31-1.05-.47-1.57-.21-.69-.43-1.37-.66-2.05-3.82.37-7.62.77-11.41,1.18-.71.07-1.42.15-2.13.23-1.95.21-3.89.43-5.83.65-2.78.31-5.54.63-8.31.96-2.26.27-4.52.54-6.78.82-5.65.69-11.28,1.41-16.89,2.15-.36.05-.71.09-1.06.14-2.19.29-4.38.58-6.56.88-.98.14-1.97.27-2.95.4-2.26.31-4.51.63-6.76.94-.57.08-1.14.16-1.71.24.1,1.84.19,3.68.28,5.52.01.32.03.64.04.95,6.31-.8,12.62-1.57,18.95-2.32,17.7-2.12,35.44-4.09,53.19-5.83-.13-.49-.26-.98-.4-1.47Zm0,0c-.17-.61-.35-1.21-.54-1.82-.15-.52-.31-1.05-.47-1.57-.21-.69-.43-1.37-.66-2.05-3.82.37-7.62.77-11.41,1.18-.71.07-1.42.15-2.13.23-1.95.21-3.89.43-5.83.65-2.78.31-5.54.63-8.31.96-2.26.27-4.52.54-6.78.82-5.65.69-11.28,1.41-16.89,2.15-.36.05-.71.09-1.06.14-2.19.29-4.38.58-6.56.88-.98.14-1.97.27-2.95.4-2.26.31-4.51.63-6.76.94-.57.08-1.14.16-1.71.24.1,1.84.19,3.68.28,5.52.01.32.03.64.04.95,6.31-.8,12.62-1.57,18.95-2.32,17.7-2.12,35.44-4.09,53.19-5.83-.13-.49-.26-.98-.4-1.47Zm0,0c-.17-.61-.35-1.21-.54-1.82-.15-.52-.31-1.05-.47-1.57-.21-.69-.43-1.37-.66-2.05-3.82.37-7.62.77-11.41,1.18-.71.07-1.42.15-2.13.23-1.95.21-3.89.43-5.83.65-2.78.31-5.54.63-8.31.96-2.26.27-4.52.54-6.78.82-5.65.69-11.28,1.41-16.89,2.15-.36.05-.71.09-1.06.14-2.19.29-4.38.58-6.56.88-.98.14-1.97.27-2.95.4-2.26.31-4.51.63-6.76.94-.57.08-1.14.16-1.71.24.1,1.84.19,3.68.28,5.52.01.32.03.64.04.95,6.31-.8,12.62-1.57,18.95-2.32,17.7-2.12,35.44-4.09,53.19-5.83-.13-.49-.26-.98-.4-1.47Zm0,0c-.17-.61-.35-1.21-.54-1.82-.15-.52-.31-1.05-.47-1.57-.21-.69-.43-1.37-.66-2.05-3.82.37-7.62.77-11.41,1.18-.71.07-1.42.15-2.13.23-1.95.21-3.89.43-5.83.65-2.78.31-5.54.63-8.31.96-2.26.27-4.52.54-6.78.82-5.65.69-11.28,1.41-16.89,2.15-.36.05-.71.09-1.06.14-2.19.29-4.38.58-6.56.88-.98.14-1.97.27-2.95.4-2.26.31-4.51.63-6.76.94-.57.08-1.14.16-1.71.24.1,1.84.19,3.68.28,5.52.01.32.03.64.04.95,6.31-.8,12.62-1.57,18.95-2.32,17.7-2.12,35.44-4.09,53.19-5.83-.13-.49-.26-.98-.4-1.47Zm0,0c-.17-.61-.35-1.21-.54-1.82-.15-.52-.31-1.05-.47-1.57-.21-.69-.43-1.37-.66-2.05-3.82.37-7.62.77-11.41,1.18-.71.07-1.42.15-2.13.23-1.95.21-3.89.43-5.83.65-2.78.31-5.54.63-8.31.96-2.26.27-4.52.54-6.78.82-5.65.69-11.28,1.41-16.89,2.15-.36.05-.71.09-1.06.14-2.19.29-4.38.58-6.56.88-.98.14-1.97.27-2.95.4-2.26.31-4.51.63-6.76.94-.57.08-1.14.16-1.71.24.1,1.84.19,3.68.28,5.52.01.32.03.64.04.95,6.31-.8,12.62-1.57,18.95-2.32,17.7-2.12,35.44-4.09,53.19-5.83-.13-.49-.26-.98-.4-1.47Zm0,0c-.17-.61-.35-1.21-.54-1.82-.15-.52-.31-1.05-.47-1.57-.21-.69-.43-1.37-.66-2.05-3.82.37-7.62.77-11.41,1.18-.71.07-1.42.15-2.13.23-1.95.21-3.89.43-5.83.65-2.78.31-5.54.63-8.31.96-2.26.27-4.52.54-6.78.82-5.65.69-11.28,1.41-16.89,2.15-.36.05-.71.09-1.06.14-2.19.29-4.38.58-6.56.88-.98.14-1.97.27-2.95.4-2.26.31-4.51.63-6.76.94-.57.08-1.14.16-1.71.24.1,1.84.19,3.68.28,5.52.01.32.03.64.04.95,6.31-.8,12.62-1.57,18.95-2.32,17.7-2.12,35.44-4.09,53.19-5.83-.13-.49-.26-.98-.4-1.47Zm0,0c-.17-.61-.35-1.21-.54-1.82-.15-.52-.31-1.05-.47-1.57-.21-.69-.43-1.37-.66-2.05-3.82.37-7.62.77-11.41,1.18-.71.07-1.42.15-2.13.23-1.95.21-3.89.43-5.83.65-2.78.31-5.54.63-8.31.96-2.26.27-4.52.54-6.78.82-5.65.69-11.28,1.41-16.89,2.15-.36.05-.71.09-1.06.14-2.19.29-4.38.58-6.56.88-.98.14-1.97.27-2.95.4-2.26.31-4.51.63-6.76.94-.57.08-1.14.16-1.71.24.1,1.84.19,3.68.28,5.52.01.32.03.64.04.95,6.31-.8,12.62-1.57,18.95-2.32,17.7-2.12,35.44-4.09,53.19-5.83-.13-.49-.26-.98-.4-1.47Zm0,0c-.17-.61-.35-1.21-.54-1.82-.15-.52-.31-1.05-.47-1.57-.21-.69-.43-1.37-.66-2.05-3.82.37-7.62.77-11.41,1.18-.71.07-1.42.15-2.13.23-1.95.21-3.89.43-5.83.65-2.78.31-5.54.63-8.31.96-2.26.27-4.52.54-6.78.82-5.65.69-11.28,1.41-16.89,2.15-.36.05-.71.09-1.06.14-2.19.29-4.38.58-6.56.88-.98.14-1.97.27-2.95.4-2.26.31-4.51.63-6.76.94-.57.08-1.14.16-1.71.24.1,1.84.19,3.68.28,5.52.01.32.03.64.04.95,6.31-.8,12.62-1.57,18.95-2.32,17.7-2.12,35.44-4.09,53.19-5.83-.13-.49-.26-.98-.4-1.47Zm0,0c-.17-.61-.35-1.21-.54-1.82-.15-.52-.31-1.05-.47-1.57-.21-.69-.43-1.37-.66-2.05-3.82.37-7.62.77-11.41,1.18-.71.07-1.42.15-2.13.23-1.95.21-3.89.43-5.83.65-2.78.31-5.54.63-8.31.96-2.26.27-4.52.54-6.78.82-5.65.69-11.28,1.41-16.89,2.15.08,2.26.15,4.51.23,6.75,17.7-2.12,35.44-4.09,53.19-5.83-.13-.49-.26-.98-.4-1.47Zm0,0c-.17-.61-.35-1.21-.54-1.82-.15-.52-.31-1.05-.47-1.57-.21-.69-.43-1.37-.66-2.05-3.82.37-7.62.77-11.41,1.18-.71.07-1.42.15-2.13.23-1.95.21-3.89.43-5.83.65-2.78.31-5.54.63-8.31.96-2.26.27-4.52.54-6.78.82-5.65.69-11.28,1.41-16.89,2.15.08,2.26.15,4.51.23,6.75,17.7-2.12,35.44-4.09,53.19-5.83-.13-.49-.26-.98-.4-1.47Zm2.43,11.79c-.02-.81-.03-1.61-.04-2.41-.01-.9-.03-1.79-.05-2.67-.05.01-.09.01-.14.02-.15.01-.3.03-.45.04-15.24,1.68-30.91,3.54-47.09,5.63-2.42.31-4.84.63-7.25.95-6.31.83-12.59,1.68-18.84,2.54h-.01c.06,1.26.12,2.51.18,3.76.03.7.06,1.39.09,2.09,6.27-.93,12.52-1.83,18.77-2.7,4.67-.65,9.34-1.28,14-1.89,14.14-1.84,27.71-3.51,40.83-5.03h.01c0-.11,0-.22-.01-.33Zm-2.03-10.32c-.13-.49-.26-.98-.4-1.47-.17-.61-.35-1.21-.54-1.82-.15-.52-.31-1.05-.47-1.57-.21-.69-.43-1.37-.66-2.05-3.82.37-7.62.77-11.41,1.18-.71.07-1.42.15-2.13.23-1.95.21-3.89.43-5.83.65-2.78.31-5.54.63-8.31.96-2.26.27-4.52.54-6.78.82-5.65.69-11.28,1.41-16.89,2.15.08,2.26.15,4.51.23,6.75,17.7-2.12,35.44-4.09,53.19-5.83Zm-.4-1.47c-.17-.61-.35-1.21-.54-1.82-.15-.52-.31-1.05-.47-1.57-.21-.69-.43-1.37-.66-2.05-3.82.37-7.62.77-11.41,1.18-.71.07-1.42.15-2.13.23-1.95.21-3.89.43-5.83.65-2.78.31-5.54.63-8.31.96-2.26.27-4.52.54-6.78.82-5.65.69-11.28,1.41-16.89,2.15.08,2.26.15,4.51.23,6.75,17.7-2.12,35.44-4.09,53.19-5.83-.13-.49-.26-.98-.4-1.47Zm0,0c-.17-.61-.35-1.21-.54-1.82-.15-.52-.31-1.05-.47-1.57-.21-.69-.43-1.37-.66-2.05-3.82.37-7.62.77-11.41,1.18-.71.07-1.42.15-2.13.23-1.95.21-3.89.43-5.83.65-2.78.31-5.54.63-8.31.96-2.26.27-4.52.54-6.78.82-5.65.69-11.28,1.41-16.89,2.15-.36.05-.71.09-1.06.14-2.19.29-4.38.58-6.56.88-.98.14-1.97.27-2.95.4-2.26.31-4.51.63-6.76.94-.57.08-1.14.16-1.71.24.1,1.84.19,3.68.28,5.52.01.32.03.64.04.95,6.31-.8,12.62-1.57,18.95-2.32,17.7-2.12,35.44-4.09,53.19-5.83-.13-.49-.26-.98-.4-1.47Zm0,0c-.17-.61-.35-1.21-.54-1.82-.15-.52-.31-1.05-.47-1.57-.21-.69-.43-1.37-.66-2.05-3.82.37-7.62.77-11.41,1.18-.71.07-1.42.15-2.13.23-1.95.21-3.89.43-5.83.65-2.78.31-5.54.63-8.31.96-2.26.27-4.52.54-6.78.82-5.65.69-11.28,1.41-16.89,2.15-.36.05-.71.09-1.06.14-2.19.29-4.38.58-6.56.88-.98.14-1.97.27-2.95.4-2.26.31-4.51.63-6.76.94-.57.08-1.14.16-1.71.24.1,1.84.19,3.68.28,5.52.01.32.03.64.04.95,6.31-.8,12.62-1.57,18.95-2.32,17.7-2.12,35.44-4.09,53.19-5.83-.13-.49-.26-.98-.4-1.47Zm0,0c-.17-.61-.35-1.21-.54-1.82-.15-.52-.31-1.05-.47-1.57-.21-.69-.43-1.37-.66-2.05-3.82.37-7.62.77-11.41,1.18-.71.07-1.42.15-2.13.23-1.95.21-3.89.43-5.83.65-2.78.31-5.54.63-8.31.96-2.26.27-4.52.54-6.78.82-5.65.69-11.28,1.41-16.89,2.15-.36.05-.71.09-1.06.14-2.19.29-4.38.58-6.56.88-.98.14-1.97.27-2.95.4-2.26.31-4.51.63-6.76.94-.57.08-1.14.16-1.71.24.1,1.84.19,3.68.28,5.52.01.32.03.64.04.95,6.31-.8,12.62-1.57,18.95-2.32,17.7-2.12,35.44-4.09,53.19-5.83-.13-.49-.26-.98-.4-1.47Zm0,0c-.17-.61-.35-1.21-.54-1.82-.15-.52-.31-1.05-.47-1.57-.21-.69-.43-1.37-.66-2.05-3.82.37-7.62.77-11.41,1.18-.71.07-1.42.15-2.13.23-1.95.21-3.89.43-5.83.65-2.78.31-5.54.63-8.31.96-2.26.27-4.52.54-6.78.82-5.65.69-11.28,1.41-16.89,2.15-.36.05-.71.09-1.06.14-2.19.29-4.38.58-6.56.88-.98.14-1.97.27-2.95.4-2.26.31-4.51.63-6.76.94-.57.08-1.14.16-1.71.24.1,1.84.19,3.68.28,5.52.01.32.03.64.04.95,6.31-.8,12.62-1.57,18.95-2.32,17.7-2.12,35.44-4.09,53.19-5.83-.13-.49-.26-.98-.4-1.47Zm0,0c-.17-.61-.35-1.21-.54-1.82-.15-.52-.31-1.05-.47-1.57-.21-.69-.43-1.37-.66-2.05-3.82.37-7.62.77-11.41,1.18-.71.07-1.42.15-2.13.23-1.95.21-3.89.43-5.83.65-2.78.31-5.54.63-8.31.96-2.26.27-4.52.54-6.78.82-5.65.69-11.28,1.41-16.89,2.15-.36.05-.71.09-1.06.14-2.19.29-4.38.58-6.56.88-.98.14-1.97.27-2.95.4-2.26.31-4.51.63-6.76.94-.57.08-1.14.16-1.71.24.1,1.84.19,3.68.28,5.52.01.32.03.64.04.95,6.31-.8,12.62-1.57,18.95-2.32,17.7-2.12,35.44-4.09,53.19-5.83-.13-.49-.26-.98-.4-1.47Zm0,0c-.17-.61-.35-1.21-.54-1.82-.15-.52-.31-1.05-.47-1.57-.21-.69-.43-1.37-.66-2.05-3.82.37-7.62.77-11.41,1.18-.71.07-1.42.15-2.13.23-1.95.21-3.89.43-5.83.65-2.78.31-5.54.63-8.31.96-2.26.27-4.52.54-6.78.82-5.65.69-11.28,1.41-16.89,2.15-.36.05-.71.09-1.06.14-2.19.29-4.38.58-6.56.88-.98.14-1.97.27-2.95.4-2.26.31-4.51.63-6.76.94-.57.08-1.14.16-1.71.24.1,1.84.19,3.68.28,5.52.01.32.03.64.04.95,6.31-.8,12.62-1.57,18.95-2.32,17.7-2.12,35.44-4.09,53.19-5.83-.13-.49-.26-.98-.4-1.47Zm0,0c-.17-.61-.35-1.21-.54-1.82-.15-.52-.31-1.05-.47-1.57-.21-.69-.43-1.37-.66-2.05-3.82.37-7.62.77-11.41,1.18-.71.07-1.42.15-2.13.23-1.95.21-3.89.43-5.83.65-2.78.31-5.54.63-8.31.96-2.26.27-4.52.54-6.78.82-5.65.69-11.28,1.41-16.89,2.15-.36.05-.71.09-1.06.14-2.19.29-4.38.58-6.56.88-.98.14-1.97.27-2.95.4-2.26.31-4.51.63-6.76.94-.57.08-1.14.16-1.71.24.1,1.84.19,3.68.28,5.52.01.32.03.64.04.95,6.31-.8,12.62-1.57,18.95-2.32,17.7-2.12,35.44-4.09,53.19-5.83-.13-.49-.26-.98-.4-1.47Zm0,0c-.17-.61-.35-1.21-.54-1.82-.15-.52-.31-1.05-.47-1.57-.21-.69-.43-1.37-.66-2.05-3.82.37-7.62.77-11.41,1.18-.71.07-1.42.15-2.13.23-1.95.21-3.89.43-5.83.65-2.78.31-5.54.63-8.31.96-2.26.27-4.52.54-6.78.82-5.65.69-11.28,1.41-16.89,2.15-.36.05-.71.09-1.06.14-2.19.29-4.38.58-6.56.88-.98.14-1.97.27-2.95.4-2.26.31-4.51.63-6.76.94-.57.08-1.14.16-1.71.24.1,1.84.19,3.68.28,5.52.01.32.03.64.04.95,6.31-.8,12.62-1.57,18.95-2.32,17.7-2.12,35.44-4.09,53.19-5.83-.13-.49-.26-.98-.4-1.47Zm0,0c-.17-.61-.35-1.21-.54-1.82-.15-.52-.31-1.05-.47-1.57-.21-.69-.43-1.37-.66-2.05-3.82.37-7.62.77-11.41,1.18-.71.07-1.42.15-2.13.23-1.95.21-3.89.43-5.83.65-2.78.31-5.54.63-8.31.96-2.26.27-4.52.54-6.78.82-5.65.69-11.28,1.41-16.89,2.15-.36.05-.71.09-1.06.14-2.19.29-4.38.58-6.56.88-.98.14-1.97.27-2.95.4-2.26.31-4.51.63-6.76.94-.57.08-1.14.16-1.71.24.1,1.84.19,3.68.28,5.52.01.32.03.64.04.95,6.31-.8,12.62-1.57,18.95-2.32,17.7-2.12,35.44-4.09,53.19-5.83-.13-.49-.26-.98-.4-1.47Zm0,0c-.17-.61-.35-1.21-.54-1.82-.15-.52-.31-1.05-.47-1.57-.21-.69-.43-1.37-.66-2.05-3.82.37-7.62.77-11.41,1.18-.71.07-1.42.15-2.13.23-1.95.21-3.89.43-5.83.65-2.78.31-5.54.63-8.31.96-2.26.27-4.52.54-6.78.82-5.65.69-11.28,1.41-16.89,2.15-.36.05-.71.09-1.06.14-2.19.29-4.38.58-6.56.88-.98.14-1.97.27-2.95.4-2.26.31-4.51.63-6.76.94-.57.08-1.14.16-1.71.24.1,1.84.19,3.68.28,5.52.01.32.03.64.04.95,6.31-.8,12.62-1.57,18.95-2.32,17.7-2.12,35.44-4.09,53.19-5.83-.13-.49-.26-.98-.4-1.47Zm0,0c-.17-.61-.35-1.21-.54-1.82-.15-.52-.31-1.05-.47-1.57-.21-.69-.43-1.37-.66-2.05-3.82.37-7.62.77-11.41,1.18-.71.07-1.42.15-2.13.23-1.95.21-3.89.43-5.83.65-2.78.31-5.54.63-8.31.96-2.26.27-4.52.54-6.78.82-5.65.69-11.28,1.41-16.89,2.15.08,2.26.15,4.51.23,6.75,17.7-2.12,35.44-4.09,53.19-5.83h.01c-.13-.49-.27-.98-.41-1.47ZM68.52,118.1c-2.51.02-5.02.04-7.52.06-.48,0-.96,0-1.44.01-5.77.04-11.54.1-17.31.16h-.03c-3.86.04-7.72.09-11.59.14-3.88.05-7.76.1-11.66.17-3.89.05-7.8.11-11.71.18-.01.32-.01.64-.02.97-.03,1.56-.07,3.12-.1,4.71-.01.83-.03,1.67-.05,2.51h0c11.86-.19,23.61-.36,35.32-.5,3.05-.03,6.1-.06,9.14-.09,3.02-.03,6.03-.06,9.04-.08,1.74-.02,3.48-.03,5.23-.04,2.01-.02,4.03-.03,6.05-.04h.07c2.49-.02,4.98-.03,7.47-.04h.01c.13-2.72.27-5.45.41-8.17-3.77,0-7.54.02-11.31.05Zm1005.41-63.3h-.01s-.09.01-.13.01c-1.21.12-2.41.24-3.61.37-3.82.37-7.62.77-11.41,1.18-.71.07-1.42.15-2.13.23-1.95.21-3.89.43-5.83.65-2.78.31-5.54.63-8.31.96-2.26.27-4.52.54-6.78.82-5.65.69-11.28,1.41-16.89,2.15-.36.05-.71.09-1.06.14-2.19.29-4.38.58-6.56.88-.98.14-1.97.27-2.95.4-2.26.31-4.51.63-6.76.94-.57.08-1.14.16-1.71.24.1,1.84.19,3.68.28,5.52.01.32.03.64.04.95,6.31-.8,12.62-1.57,18.95-2.32,17.7-2.12,35.44-4.09,53.19-5.83h.01c.56-.06,1.13-.11,1.69-.17.04,0,.09,0,.13-.01h.01c-.05-2.47-.11-4.85-.16-7.11ZM61.92,100.07c-4.24.07-8.49.15-12.74.22-4.24.07-8.49.15-12.74.23-9.59.18-19.18.36-28.78.56v.1c-.05,2.17-.11,4.37-.16,6.6-.01.5-.02.99-.03,1.49,9.48-.19,18.96-.38,28.43-.55,1.47-.03,2.95-.06,4.42-.08,1.94-.04,3.87-.07,5.8-.1h.02c5.12-.1,10.25-.19,15.36-.27,6.29-.11,12.58-.22,18.87-.31.06-1.18.12-2.36.19-3.54.08-1.55.17-3.11.26-4.66-6.3.1-12.6.2-18.9.31Zm1011.84-51.45c-.03-1.12-.07-2.2-.1-3.25-.02-.67-.04-1.32-.06-1.96-.04,0-.09.01-.13.01-2.57.18-5.1.36-7.58.56-.27.03-.55.05-.82.07-15.35,1.24-30.96,2.97-46.67,4.96-6.4.81-12.82,1.67-19.24,2.56.11,2.13.23,4.26.33,6.39,3.28-.39,6.56-.77,9.83-1.14,3.11-.36,6.22-.71,9.32-1.05,2.12-.24,4.23-.47,6.35-.7.31-.03.61-.07.91-.1,3.31-.36,6.61-.7,9.9-1.04.36-.04.72-.08,1.08-.11,1.27-.13,2.54-.26,3.81-.38,2.37-.25,4.73-.48,7.1-.7,1.8-.18,3.61-.35,5.41-.51,5.2-.49,10.36-.94,15.47-1.35.2-.02.41-.03.61-.05,1.45-.12,2.92-.23,4.4-.35.04,0,.09-.01.13-.01-.02-.63-.03-1.25-.05-1.85ZM62.88,82.11c-4.1.02-8.2.04-12.3.05-4.87.02-9.73.05-14.6.09-4.64.03-9.27.06-13.91.1-4.63.04-9.27.08-13.9.13-.02.76-.05,1.53-.07,2.31-.04,1.3-.07,2.62-.11,3.95-.03,1.04-.06,2.08-.09,3.14h0c8.98-.08,17.95-.16,26.93-.22,9.18-.06,18.36-.11,27.54-.14,6.31-.03,12.61-.05,18.92-.07.18-3.14.36-6.27.55-9.4-6.32.01-12.64.03-18.96.06Zm1010.54-43.62c-.24-.21-.51-.44-.81-.66-.16-.12-.32-.24-.48-.35-.02-.02-.04-.03-.06-.04h0c-.1-.08-.21-.15-.32-.22h0c-.05-.04-.1-.07-.15-.11-.06-.04-.12-.08-.19-.12h0s-.11-.08-.18-.12c-.06-.04-.12-.07-.18-.11h0l-.02-.02c-.11-.07-.23-.14-.35-.21h0c-.08-.06-.17-.11-.26-.17-.04-.02-.09-.05-.13-.07h0c-.13-.08-.26-.16-.4-.24h0c-.26-.16-.53-.32-.81-.47-.41-.24-.84-.47-1.28-.71-.06-.03-.13-.07-.19-.1-.07-.03-.14-.07-.21-.11-.06-.04-.13-.07-.2-.1h0c-.12-.07-.25-.14-.37-.2-.2-.11-.4-.21-.61-.31h0c-.06-.04-.13-.08-.2-.11-.1-.05-.2-.1-.31-.15h0c-.17-.09-.34-.18-.52-.27-.17-.08-.34-.17-.52-.25h0c-.11-.06-.22-.11-.33-.17-.07-.03-.13-.06-.2-.09h0c-.18-.09-.36-.17-.54-.26-.18-.09-.36-.17-.55-.26-.16-.07-.31-.15-.47-.22h-.01s-.09.01-.13.01c-5.56.31-10.91.64-16.08.98h-.01c-29.56,1.95-53.25,4.38-76.26,7.07-9.66,1.13-19.2,2.31-29,3.52-2.81.35-5.6.69-8.37,1.03,12.57.99,25.16,2.03,37.76,3.11,12.74-1.5,25.65-2.92,39.62-4.22,15.74-1.46,32.85-2.78,52.6-3.89,3.45-.19,6.99-.38,10.61-.56.05-.01.09-.01.14-.01l-.03-.82ZM81.75,64.45h-.02c-2.89.09-5.8.18-8.72.27-2.96.09-5.93.18-8.92.27-1.6.04-3.22.09-4.84.14-2.41.07-4.83.14-7.27.2-3.86.11-7.76.21-11.68.31-2.68.07-5.36.13-8.07.19-7.73.18-15.57.35-23.54.49-.03.72-.05,1.44-.07,2.16-.05,1.3-.09,2.62-.14,3.96-.03.91-.06,1.84-.09,2.77,3.13-.02,6.24-.04,9.33-.06,2.81-.02,5.6-.05,8.38-.08,2.94-.03,5.86-.06,8.77-.1,2.86-.03,5.71-.07,8.54-.12,6.71-.11,13.33-.25,19.87-.43,6.42-.16,12.77-.37,19.05-.62.19-3.13.38-6.26.58-9.39-.38.01-.77.02-1.16.04Zm967.29-37.76c-1.12-.4-2.19-.76-3.17-1.08-.28-.08-.55-.17-.81-.25-.88-.27-1.68-.5-2.38-.67-.04,0-.09-.01-.13-.01-2.63-.26-5.28-.52-7.95-.78-.7-.07-1.4-.14-2.1-.2-.4-.04-.8-.08-1.21-.11-.64-.06-1.28-.12-1.93-.18-.02-.01-.03-.01-.05-.01-.43-.04-.87-.08-1.3-.12-.83-.08-1.65-.15-2.48-.23-.48-.05-.97-.1-1.45-.14-.24-.02-.48-.04-.72-.06-.28-.03-.57-.05-.86-.08-.53-.05-1.06-.1-1.59-.15-.6-.06-1.2-.11-1.8-.16-1.14-.1-2.28-.2-3.43-.31-.73-.07-1.46-.13-2.19-.2h-.1c-13.36,1.06-26.7,2.15-40.04,3.25h-.03c-34.16,2.81-68.28,5.72-102.45,8.48h-.01c-15.9,1.29-31.81,2.54-47.74,3.73,19.41,1.1,38.65,2.32,57.82,3.64,8.92-.67,18.16-1.42,27.76-2.26,6.2-.54,12.4-1.09,18.6-1.63,31.65-2.8,63.31-5.62,95.03-8.21h.05c8.93-.75,17.85-1.47,26.8-2.16h.01s.05-.01.08-.01c-.08-.03-.16-.06-.23-.09Zm-82.82-8.58c-1.92-.15-3.86-.29-5.8-.43-2.93-.22-5.88-.43-8.84-.64-2.42-.18-4.84-.35-7.27-.52h-.13c-1.45-.11-2.9-.21-4.36-.31-2.18-.15-4.37-.29-6.56-.44-1.34-.09-2.68-.18-4.02-.26-.7-.05-1.4-.09-2.1-.14-1.77-.12-3.54-.23-5.32-.35h-.13c-.23-.02-.47-.04-.7-.05h-.09c-18.88,1.27-37.58,2.47-56.21,3.62h-.02c-53.08,3.26-105.5,6.05-159.03,8.59-24.04,1.14-48.31,2.22-72.97,3.28,25.94.43,51.23,1.05,76.04,1.85,21.86-.95,43.73-1.95,65.58-3,48.11-2.3,96.16-4.84,144-7.74.16,0,.32,0,.48-.01,16.82-1.02,33.65-2.1,50.41-3.23-.98-.08-1.97-.15-2.96-.22ZM121.84,39.51c-5.51-.02-11-.05-16.48-.08-5.27-.03-10.52-.06-15.76-.09-11.54-.07-23.03-.15-34.44-.24-3.81-.03-7.6-.06-11.39-.09-7.09-.05-14.15-.11-21.18-.18,0,0-.01,0-.01,0-.48,0-.96,0-1.44,0-3.76-.03-7.5-.07-11.24-.1,0,.08-.01.17-.02.25-.02.42-.04.84-.07,1.28-.1,1.94-.2,4.02-.31,6.21-.01.24-.02.48-.03.72h0s5.11.01,5.11.01c4.71,0,9.42-.01,14.12-.01,10.58-.01,21.16-.02,31.71-.03h4.17c2.9,0,5.8-.02,8.7-.02,16.58-.04,33.16-.09,49.74-.16,32.34-2.75,64.69-5.19,97.42-7.32-33.16.07-66.09.01-98.6-.14ZM836.16,10.29h-.13c-1.92-.09-3.84-.18-5.76-.27-.7-.04-1.4-.07-2.1-.1h-.13c-2.28-.11-4.56-.21-6.84-.31-.35-.02-.7-.04-1.05-.05h-.13c-2.64-.12-5.28-.24-7.92-.35-2.69-.12-5.38-.23-8.07-.34-2.69-.11-5.39-.22-8.09-.33h-.13c-9.88-.4-19.8-.77-29.76-1.12-31.89,1.54-63.18,2.99-94.3,4.33-.02-.01-.04-.01-.06,0-.02-.01-.04-.01-.05,0-.02-.01-.03-.01-.05,0t-.02,0s-.01,0-.01,0t-.02,0s0,0,0,0c-99.16,4.22-196.51,7.25-304.94,8.24-17.1.16-34.37.21-51.75.18-2.57,0-5.15-.01-7.73-.02-2.42,0-4.85-.02-7.27-.03-4.06-.02-8.11-.04-12.17-.07-3.5-.02-7-.05-10.5-.08-9.43-.08-18.88-.19-28.34-.31-3.34-.05-6.68-.1-10.02-.15-4.55-.06-9.11-.14-13.68-.22-7.67-.12-15.34-.27-23.01-.42-.49-.01-.98-.02-1.46-.03h-.05c-2.77-.06-5.54-.12-8.31-.18-4.87-.1-9.73-.21-14.59-.33-3.11-.07-6.22-.15-9.33-.22-5.01-.12-10-.25-14.99-.39-8.08-.21-16.12-.43-24.15-.67h-.08c-1.87.14-3.74.28-5.6.42-4.86.35-9.69.72-14.47,1.1-2.36.18-4.72.37-7.07.55-4.48.36-8.92.73-13.33,1.1-.05,0-.1.01-.16.01-.22.02-.45.04-.68.06-1.41.12-2.81.24-4.21.36-.86.08-1.72.15-2.57.22-.07.01-.13.02-.2.02h-.04c-1.3.12-2.6.23-3.9.35-.92.08-1.85.16-2.77.24-.05.01-.1.01-.15.02-.25.02-.51.04-.76.06-.77.07-1.55.14-2.32.21-1.46.13-2.92.27-4.37.4-.38.04-.75.07-1.13.11,14.78.33,29.56.64,44.34.92,4.93.1,9.86.19,14.8.28.72.02,1.44.03,2.17.04h.02c6.32.12,12.63.23,18.95.33,7.37.13,14.74.24,22.11.35,66.28.98,132.59,1.38,199.01.77,120.36-1.09,269.74-3.24,404.82-10.41,23-1.22,45.58-2.59,67.53-4.12-1.01-.05-2.01-.1-3.02-.15Z"/>
        <path class="cls-21" d="m77.84,314.56s-.01.01,0,.02c-2.31.02-4.61.04-6.9.05-1.87.01-3.74.02-5.61.02-1.21,0-2.42,0-3.63.01-.92.01-1.84.01-2.76.01-.87,0-1.74,0-2.61-.01-2.1,0-4.2,0-6.29-.01-1.89,0-3.78,0-5.66-.02-.9,0-1.8-.01-2.69-.02-1.11-.01-2.22-.02-3.32-.02-.25-.01-.49-.01-.74-.01-1.87-.02-3.75-.04-5.61-.06-.2,0-.39,0-.58,0-1.91-.02-3.82-.05-5.72-.08h-.18c-2.04-.03-4.07-.06-6.09-.11h-.12c-2.04-.04-4.08-.08-6.1-.13-2.07-.04-4.14-.09-6.19-.15h0c-.12-5.16-.23-10.39-.32-15.67-.04-2.31-.08-4.62-.12-6.95,0-.34,0-.68,0-1.02-.03-1.21-.05-2.42-.06-3.64-.15-10.42-.26-21.04-.33-31.73-.01-2.61-.03-5.23-.03-7.85-.04-9.12-.06-18.28-.04-27.41h.01c8.33-1.51,17.01-3.04,26-4.59.99-.17,2-.34,3-.51,7.42-1.26,15.03-2.53,22.83-3.8.79-.13,1.6-.26,2.4-.38,2-.33,4.01-.65,6.02-.97,1.08-.17,2.16-.34,3.24-.51,1.87-.3,3.76-.59,5.65-.89.4-.06.81-.13,1.21-.19-.01.53-.02,1.05-.03,1.57-.01.27-.01.53-.01.79-.01.11-.01.22-.01.33-.07,3.57-.12,7.14-.16,10.7-.04,3.13-.07,6.27-.09,9.4,0,.97-.01,1.94-.01,2.92-.02,3-.03,6.01-.03,9.01,0,22.07.43,44.12,1.41,66.12.09,1.93.18,3.86.28,5.79Z"/>
        <path class="cls-19" d="m1074.56,93.02c-3.89.38-7.78.77-11.66,1.17-2.97.31-5.94.62-8.9.94-7.51.8-15,1.64-22.45,2.52-1.59.18-3.18.37-4.76.56-2.26.26-4.51.54-6.76.82-2.78.33-5.55.68-8.32,1.03-.6.07-1.21.15-1.81.23-2.81.35-5.62.71-8.42,1.08h-.01c0-.47-.03-.93-.05-1.4-.03-.93-.07-1.87-.11-2.8-.04-.97-.08-1.94-.12-2.91,2.84-.43,5.68-.85,8.52-1.26.54-.08,1.07-.16,1.61-.24,2.37-.35,4.74-.69,7.11-1.03.46-.07.92-.13,1.38-.2,2.29-.33,4.57-.65,6.85-.97,1.23-.18,2.45-.35,3.67-.51,2.48-.35,4.96-.69,7.43-1.03,1.01-.14,2.02-.27,3.02-.41,2.74-.37,5.48-.74,8.21-1.1,1.67-.22,3.35-.44,5.02-.65,2.28-.3,4.55-.59,6.82-.87,1.81-.23,3.63-.46,5.44-.68,2.73-.34,5.46-.67,8.18-1h.01c0,.42.01.84.01,1.27.03,2.43.06,4.91.09,7.44Z"/>
        <path class="cls-25" d="m1072.28,348.41c-.02.69-.05,1.38-.08,2.06-.02.73-.04,1.46-.07,2.19-.05,1.41-.1,2.8-.15,4.18-.99.03-1.98.07-2.96.1-2.94.1-5.87.19-8.77.27-1.95.06-3.88.11-5.8.16-1.91.04-3.8.09-5.68.13h-.04c-2.82.06-5.62.11-8.39.15h-.05c-1.84.02-3.66.05-5.47.06-5.47.05-10.82.06-16.03,0-3.34-.03-6.63-.09-9.85-.17-3.44-.09-6.8-.21-10.09-.36v-.05c.32-4.69.62-9.37.9-14.06.06-1.02.12-2.04.18-3.06,1.57.21,3.14.41,4.7.6,1.56.2,3.11.4,4.65.59,3.09.39,6.16.77,9.2,1.14,1.97.25,3.93.49,5.88.72,2.68.33,5.34.65,7.98.96,1.94.23,3.86.46,5.78.68,4.87.56,9.69,1.11,14.46,1.63,1.87.21,3.73.41,5.58.61,4.74.51,9.44,1,14.11,1.47h.01Z"/>
        <path class="cls-13" d="m1073.56,299.48c-.04,2.13-.09,4.24-.14,6.35-.09,4.5-.19,8.94-.3,13.33h-.01c-2.17-.31-4.35-.62-6.53-.94-2.19-.31-4.38-.63-6.58-.96-1.66-.24-3.33-.49-5.01-.74-11.56-1.71-23.28-3.51-35.09-5.37h0c-.12-.03-.23-.04-.35-.06-5.97-.94-11.97-1.9-17.99-2.87.1-2.25.19-4.49.29-6.74.15-3.87.3-7.73.43-11.59,4.01.58,8,1.15,11.94,1.7,1.73.25,3.44.49,5.15.72.39.06.78.11,1.16.16,1.2.17,2.4.34,3.59.5,1.19.17,2.37.33,3.55.49,2.29.32,4.56.63,6.81.93.07,0,.14.02.22.03,1.16.16,2.31.32,3.46.47,1.15.16,2.29.31,3.43.46,3.08.41,6.11.81,9.09,1.2,1,.14,1.99.27,2.97.39,1.51.2,3.01.4,4.49.59,1.55.19,3.08.39,4.6.59,1.1.14,2.18.28,3.26.41,1.11.14,2.22.28,3.31.42,1.43.18,2.85.36,4.25.53Z"/>
        <path class="cls-24" d="m1074.88,142.82h-.01c-6.7,1.32-13.25,2.72-19.71,4.17-1.62.37-3.23.73-4.83,1.11-1.3.3-2.6.6-3.9.91-1.3.31-2.6.62-3.89.94-1.78.42-3.56.86-5.33,1.3-1.99.49-3.97.99-5.95,1.5-.9.23-1.8.46-2.7.7-2.25.57-4.5,1.16-6.75,1.76-.21.06-.42.11-.64.17-2.99.79-5.98,1.6-8.97,2.42s-6,1.65-9.01,2.5c0-.28-.01-.56-.01-.84-.12-6.56-.27-13.13-.45-19.7-.05-1.97-.1-3.94-.16-5.92h.01c1.32-.3,2.65-.59,3.97-.87,2.39-.51,4.79-1.02,7.19-1.51,2.32-.48,4.64-.94,6.95-1.4,2.29-.46,4.58-.91,6.85-1.34,1.02-.2,2.04-.4,3.05-.59,3.54-.68,7.06-1.33,10.57-1.96,1.74-.32,3.48-.63,5.22-.93.57-.11,1.13-.21,1.7-.3,1.35-.24,2.69-.47,4.04-.7,1.9-.33,3.8-.65,5.69-.96.76-.13,1.52-.26,2.28-.38,4.91-.81,9.81-1.57,14.7-2.31.03,5.39.05,10.91.07,16.55.01,1.88.02,3.78.02,5.68Z"/>
        <path class="cls-17" d="m82.39,375.3c-1.59.05-3.18.1-4.77.14-.88.02-1.76.05-2.64.08-1.32.03-2.64.07-3.97.11-.44.01-.88.02-1.32.04-.56.01-1.12.02-1.69.04-1.15.03-2.3.06-3.46.1-.46,0-.92.01-1.38.03-.38,0-.76.01-1.15.02-.32,0-.64.01-.96.02-.07.01-.13.01-.2.01-.17,0-.33,0-.5,0-.61.01-1.22.02-1.83.04-3.1.07-6.22.13-9.35.19-1.56.03-3.13.05-4.71.08-1.28.02-2.55.04-3.83.06-4.73.07-9.5.13-14.31.17-1.85.02-3.71.03-5.58.04-1.49.01-2.99.02-4.5.02-.79.01-1.59.01-2.39.01h-.99c-1.13,0-2.26,0-3.4,0-.03-.47-.06-.95-.09-1.43-.14-2.42-.28-4.89-.41-7.4-.06-1.13-.11-2.27-.17-3.41-.09-1.78-.18-3.59-.26-5.41,1.55.03,3.08.06,4.6.08,1.47.02,2.92.04,4.37.05.84.01,1.68.02,2.52.02,2.15.02,4.27.02,6.38.02.86,0,1.72,0,2.58-.01.86,0,1.72-.01,2.57-.01h1.09c1.81,0,3.62-.03,5.41-.06.2,0,.4,0,.6,0,.45,0,.9-.01,1.35-.02.55-.01,1.1-.02,1.65-.03.99,0,1.99-.03,2.97-.05.89-.01,1.76-.03,2.64-.06.48-.01.95-.02,1.42-.04h.1c.84-.02,1.68-.05,2.51-.07,1.34-.04,2.68-.08,4.01-.13.04,0,.07-.01.11-.01h.07c.7-.02,1.4-.05,2.09-.08,1.35-.05,2.7-.1,4.04-.16,1.86-.08,3.72-.17,5.56-.26,2.63-.13,5.25-.28,7.86-.44.15-.01.3-.02.45-.03.15-.01.3-.02.45-.03.82-.05,1.65-.1,2.47-.16.38-.02.76-.04,1.15-.07.38-.02.77-.04,1.15-.07"/>
        <path class="cls-5" d="m80.71,357.37c.48,5.64,1.01,11.28,1.58,16.91.03.34.07.68.1,1.01"/>
        <path class="cls-12" d="m1070.67,386.91c-.09,1.78-.19,3.53-.28,5.23-.1,1.72-.2,3.39-.3,5.03-3.7-.18-7.4-.37-11.09-.57-4.89-.25-9.76-.52-14.64-.8-4.84-.28-9.68-.56-14.52-.85-4.84-.29-9.68-.59-14.53-.9-6.39-.4-12.8-.82-19.21-1.24.27-3.05.52-6.11.77-9.16.99.05,1.98.1,2.97.14,3.57.18,7.13.35,10.67.51,1.85.09,3.7.18,5.55.26,4.25.2,8.48.39,12.7.58,3.54.16,7.06.31,10.57.46,10.54.46,21,.9,31.34,1.31Z"/>
        <path class="cls-7" d="m80.37,107.96c-.15,2.66-.29,5.33-.43,8-.04.7-.08,1.39-.11,2.09-3.77,0-7.54.02-11.31.05-2.51.02-5.02.04-7.52.06-.48,0-.96,0-1.44.01-5.77.04-11.54.1-17.31.16h-.03c-3.86.04-7.72.09-11.59.14-3.88.05-7.76.1-11.66.17-3.89.05-7.8.11-11.71.18.04-1.62.07-3.22.1-4.81.04-1.59.08-3.17.11-4.74,9.48-.19,18.96-.38,28.43-.55,1.47-.03,2.95-.06,4.42-.08,1.94-.04,3.87-.07,5.8-.1h.02c5.12-.1,10.25-.19,15.36-.27,6.29-.11,12.58-.22,18.87-.31Z"/>
        <path class="cls-6" d="m1073.93,54.8h-.01s-.09.01-.13.01c-1.21.12-2.41.24-3.61.37-3.82.37-7.62.77-11.41,1.18-.71.07-1.42.15-2.13.23-1.95.21-3.89.43-5.83.65-2.78.31-5.54.63-8.31.96-2.26.27-4.52.54-6.78.82-5.65.69-11.28,1.41-16.89,2.15-.36.05-.71.09-1.06.14-2.19.29-4.38.58-6.56.88-.98.14-1.97.27-2.95.4-2.26.31-4.51.63-6.76.94-.57.08-1.14.16-1.71.24-.09-1.94-.19-3.87-.3-5.81,3.28-.39,6.56-.77,9.83-1.14,3.11-.36,6.22-.71,9.32-1.05,2.12-.24,4.23-.47,6.35-.7.31-.03.61-.07.91-.1,3.31-.36,6.61-.7,9.9-1.04.36-.04.72-.08,1.08-.11,1.27-.13,2.54-.26,3.81-.38,2.37-.25,4.73-.48,7.1-.7,1.8-.18,3.61-.35,5.41-.51,5.2-.49,10.36-.94,15.47-1.35.2-.02.41-.03.61-.05,1.45-.12,2.92-.23,4.4-.35.04,0,.09-.01.13-.01.03.95.05,1.92.08,2.91.01.47.03.94.04,1.42Z"/>
        <path class="cls-23" d="m65.82,126.3c-1.75.01-3.49.02-5.23.04-3.01.02-6.02.05-9.04.08-3.04.03-6.09.06-9.14.09-11.72.13-23.47.3-35.32.5h-.13c-.13,6.93-.25,14.07-.37,21.36,1.79.3,3.75.61,5.87.91,0,0,.02.01.03,0,.7.1,1.42.2,2.15.31l1.29.18c.76.1,1.55.21,2.35.31.06.01.11.02.17.02.7.09,1.41.18,2.13.27,2.88.36,5.94.72,9.15,1.07-.45-.23-.87-.46-1.23-.69-6.97-4.46-6.7-15.99,4.02-19.53,6.1-2.02,16.34-3.33,28.04-4.22,3.65-.29,7.45-.53,11.31-.74-2.02,0-4.04.02-6.05.04ZM307.77,7.63h0s.02.01.02.01h.01s-.03-.01-.03-.01Zm-54.48,10.56c-7.4-.35-11.79-.8-13.73-1.34h-.02c-8.84-2.39,32.55-6.35,68.03-9.2.04,0,.07,0,.11,0-.45.02-.91.03-1.37.05-.72.02-1.44.05-2.17.08-1.7.06-3.4.12-5.1.19-1.44.05-2.88.1-4.33.16-1.71.06-3.43.13-5.14.2-3.19.12-6.37.25-9.55.38-.48.02-.95.04-1.43.06h-.04c-2.73.11-5.46.22-8.18.34-2.65.11-5.3.22-7.94.34h-.13c-.28.02-.56.03-.85.04-1.92.08-3.84.17-5.75.26-3.16.13-6.31.28-9.44.43-2.32.11-4.63.22-6.94.33-.19.01-.37.01-.56.02-.12.01-.24.01-.36.02h-.12l-3.6.18c-6.52.31-13.01.64-19.46.99-.83.05-1.65.09-2.47.13-2.02.1-4.03.21-6.04.32-2.53.14-5.06.28-7.58.42-1.29.07-2.58.14-3.86.22-1.37.07-2.74.15-4.11.23-1.01.06-2.03.11-3.04.17-.26.02-.52.03-.79.05-.25.01-.49.03-.73.05-.22,0-.44.02-.65.03-.07,0-.13.01-.2.01-.29.02-.57.03-.85.05-.49.03-.97.06-1.46.09-1.18.07-2.37.14-3.54.21-.93.05-1.85.11-2.76.17-.46.02-.91.05-1.37.08-.63.04-1.27.08-1.9.12-1.09.06-2.18.13-3.27.2-.39.02-.78.05-1.16.08-1.42.08-2.84.17-4.26.26-3.27.2-6.52.41-9.76.63-3.3.22-6.59.44-9.86.66-4.97.34-9.91.68-14.8,1.03-.57.04-1.14.09-1.71.13h.19c8.03.24,16.07.46,24.15.67,4.99.14,9.98.27,14.99.39,3.11.07,6.22.15,9.33.22,4.86.12,9.72.23,14.59.33,2.77.06,5.54.12,8.31.18h.05c.48.01.97.02,1.46.03,7.67.15,15.34.3,23.01.42,4.57.08,9.13.16,13.68.22,3.34.05,6.68.1,10.02.15,9.46.12,18.91.23,28.34.31,3.5.03,7,.06,10.5.08,4.06.03,8.11.05,12.17.07,2.42.01,4.85.02,7.27.03,2.58.01,5.16.02,7.73.02-20.53-.59-41.11-1.02-61.55-1.98ZM47.87,34.72c-1.24-1.22-.23-2.93,2.19-3.84,1.48-.56,3.46-1.07,5.86-1.53.02,0,.04,0,.06-.01,9.37-1.81,25.19-2.98,43.3-3.73h.08c21.93-.92,47.21-1.24,68.46-1.41-7.37-.11-14.74-.22-22.11-.35-6.32-.1-12.63-.21-18.95-.33h-.02c-.73,0-1.45-.02-2.17-.04-4.94-.09-9.87-.18-14.8-.28-14.78-.28-29.56-.59-44.34-.92h-.22c-8.41.77-16.65,1.57-24.71,2.4-.8.21-1.67.46-2.59.75-.23.07-.46.14-.7.22-.35.11-.71.23-1.08.35s-.74.25-1.12.38c-.44.15-.89.31-1.35.47-.58.21-1.18.43-1.78.65-.8.3-1.62.61-2.44.94-.47.18-.94.37-1.41.56-.36.14-.71.28-1.06.43-.27.11-.55.23-.82.34-.28.12-.55.23-.83.35-.82.35-1.64.7-2.44,1.06-.27.12-.53.24-.8.36-.27.11-.53.23-.79.36-.26.12-.52.24-.78.36s-.52.24-.77.37c-.09.04-.19.09-.28.14-.33.15-.65.31-.97.47-.08.03-.16.07-.24.11-.07.03-.13.06-.19.09-.27.13-.53.26-.78.4-.04.01-.08.03-.11.05-.6.3-1.18.61-1.74.91-.23.12-.45.24-.67.37-.28.15-.55.3-.8.45-.25.14-.5.29-.73.42-.75.45-1.42.88-2,1.3-.2.13-.38.27-.55.4-.35.26-.65.51-.91.75,0,.07-.01.15-.01.22h.14c3.74.04,7.49.07,11.24.11.48,0,.96,0,1.44,0,0,0,.01,0,.01,0,7.03.06,14.09.12,21.18.18,3.79.03,7.58.06,11.39.09,11.41.08,22.89.16,34.44.24,5.24.03,10.49.06,15.76.09-16.41-.67-32.88-1.21-49.08-2.43-3.36-.25-7.15-1.04-8.41-2.28Zm24.08,28.78c-18.81-.1-34.83-.68-42.18-2.19-11.26-2.31,3.19-11.4,11.15-12.62,7.44-1.14,15.56-1.32,23.65-1.43,2.92-.04,5.83-.07,8.71-.13.18,0,.36-.01.54-.01-3.08.01-6.16.01-9.24.02-1.39,0-2.78,0-4.17,0-10.56.02-21.14.02-31.71.03H9.33c-.09,1.79-.17,3.65-.25,5.6-.03.77-.06,1.54-.09,2.33-.07,1.68-.14,3.41-.21,5.19,8.34.89,18.9,1.75,30.58,2.45,1.14.07,2.3.14,3.47.2.84.05,1.69.1,2.55.15,1.17.06,2.35.12,3.54.18,5.21.26,10.57.5,15.99.7.07,0,.15,0,.23.01,5.34.18,10.75.34,16.13.44.01.01.03.01.04.01.02,0,.03,0,.04-.01.12.01.25.01.37.01.4-.01.8-.02,1.19-.04.01-.3.03-.59.05-.89-3.74.02-7.43.02-11.01-.01Zm-47.84,16.41c-.63-.65.33-1.46,1.46-2,1.95-.91,4.36-1.84,7.31-2.14,3.49-.34,7-.64,10.53-.92.04,0,.08-.01.12-.01-2.87.05-5.76.09-8.66.13-2.91.04-5.83.07-8.77.1-2.78.03-5.57.06-8.38.08-3.09.02-6.2.04-9.33.06h-.13c-.08,2.36-.16,4.79-.23,7.27h.14c4.63-.05,9.27-.09,13.9-.13,4.64-.04,9.27-.07,13.91-.1,4.87-.04,9.73-.07,14.6-.09,1.99-.01,3.99-.02,5.98-.03-16.05-.5-31.47-1.22-32.45-2.22Zm37.82,20.07c-10.69-.05-21.36-.2-31.97-.69-10.49-.47-6.19-6.6.73-7.27,1.38-.13,2.76-.25,4.14-.36.03-.01.06-.01.09-.01-9,.06-18.01.14-27.02.23h-.14c-.08,3-.16,6.07-.23,9.2h.13c9.6-.2,19.19-.38,28.78-.56,4.25-.08,8.5-.16,12.74-.23,4.25-.08,8.5-.15,12.74-.23,1.14-.02,2.28-.04,3.42-.06-1.14,0-2.27-.01-3.41-.02Zm-21.61,8.66c-1.47.02-2.95.05-4.42.08-9.47.17-18.95.36-28.43.55h-.14c-.07,3.13-.14,6.32-.21,9.55h.14c3.91-.07,7.82-.13,11.71-.18,3.9-.07,7.78-.12,11.66-.17,3.87-.05,7.73-.1,11.59-.14-5.22-.27-10.4-.58-15.37-1.22-9.75-1.25-5.41-4.27,2.56-6.34,3.72-.97,9.75-1.69,16.71-2.23h.02s.06-.01.09-.01c-1.97.03-3.94.07-5.91.11Zm17.93,88.94c-6.06.71-11.1,1.27-14.77,1.63-5.58.54-11.12-1.29-16.08-2.42-13-2.96-10.08-20.32,4.02-25.09,5.53-1.87,16.21-3.41,27.73-4.69,1.23-.14,2.48-.27,3.73-.4.03,0,.05-.01.08-.01-.32.01-.63.02-.95.04-.95.03-1.9.07-2.85.1-8.79.33-17.66.69-26.66,1.1-4.27.19-8.57.39-12.91.6-4.33.2-8.71.42-13.13.65-.05.01-.09.01-.14.01-.15,13.4-.25,27.17-.3,41.08.05-.01.09-.02.14-.03,16.21-2.9,33.64-5.89,52-8.84,6.08-.97,12.26-1.94,18.53-2.91.02-1,.05-2,.07-3.01-6.84.82-13.09,1.56-18.51,2.19Zm19.31,111.19c-6.17-.86-12.76-2.06-19-3.48-10.69-2.44-20.32-5.54-24.95-8.73-18.87-13.03-21.16-62.24,5.12-75.54,5.22-2.64,11.92-4.84,19.17-6.68,3.04-.78,6.17-1.5,9.34-2.16,3.12-.65,6.18-1.28,9.2-1.89h.01c0-.26,0-.52.01-.79,0-.52.02-1.04.03-1.57v-.03c-6.27.98-12.45,1.96-18.52,2.94-18.37,2.99-35.75,5.99-51.83,8.9h-.01s-.09.02-.14.03c-.05,32.01.21,64.41.91,94.26h.14c4.02.11,8.06.2,12.12.28.06.01.12.01.17.01h.12c1.94.04,3.88.07,5.83.1.09.01.17.01.26.01h.18c1.9.03,3.81.06,5.72.08.19,0,.38,0,.58,0,1.86.02,3.74.04,5.61.06.25,0,.49,0,.74.01,1.1,0,2.21.01,3.32.02.72,0,1.45.01,2.17.01,2.06.01,4.12.02,6.18.03,2.09.01,4.19.01,6.29.01h5.37c1.21-.01,2.42-.01,3.63-.01,4.15-.02,8.32-.04,12.51-.09-.1-1.93-.19-3.86-.28-5.79Zm2.33,38.43c-6.76.32-13.21.59-19.07.77-12.95.39-23.02.37-27.21-.38-4.4-.78-8.76-2.41-9.5-4.28-2.87-7.27,18.01-13.8,35.39-16.76,2.97-.51,5.84-.91,8.47-1.2,3.45-.37,6.91-.73,10.38-1.06-.04-.67-.07-1.34-.11-2.01h0c-.15,0-.29,0-.43.01-2.47.08-4.94.16-7.39.24-1.86.05-3.72.11-5.57.16-1.85.05-3.69.09-5.54.14-.61.02-1.22.04-1.83.05-2.15.06-4.3.1-6.43.15-4.27.09-8.53.16-12.76.22-2.44.03-4.87.06-7.29.08-3.82.03-7.62.05-11.4.05-4.13,0-8.24-.02-12.33-.06h-.14c.25,9.2.54,18.12.88,26.66h.14c11.21.26,21.67.32,31.74.2.64,0,1.28-.01,1.92-.02,6.38-.09,12.61-.25,18.79-.48.11-.01.23-.01.35-.02.5-.01,1-.03,1.5-.05,1.56-.06,3.12-.13,4.68-.2.28-.01.57-.03.86-.04,1.84-.09,3.68-.18,5.53-.27,1.23-.07,2.46-.14,3.69-.2.93-.06,1.86-.12,2.79-.17h0c-.04-.52-.08-1.02-.11-1.53Zm.81,10.03c-.38.03-.76.05-1.15.08-.39.03-.77.05-1.15.07-.82.06-1.65.11-2.47.16-.15.01-.3.02-.45.03-.15,0-.3.02-.45.03-2.15.13-4.31.25-6.47.36-2.31.12-4.62.23-6.95.33-.64.03-1.28.05-1.92.08h-.04c-.69.03-1.39.06-2.08.09-.69.03-1.39.06-2.09.08h-.07s-.07.01-.11.01c-1.33.05-2.67.09-4.01.13-.83.02-1.67.05-2.51.07h-.1c-1.29.03-2.58.06-3.88.09-.06,0-.12,0-.18.01-.98.02-1.98.04-2.97.05-.55.01-1.1.02-1.65.03-.45.01-.9.02-1.35.02-.2,0-.4,0-.6,0-1.79.03-3.6.05-5.41.06h-1.09c-.85,0-1.71.01-2.57.01-.86.01-1.72.01-2.58.01-2.11,0-4.23,0-6.38-.02-.84,0-1.68,0-2.52-.02-1.45-.01-2.9-.03-4.37-.05-1.52-.02-3.05-.05-4.6-.08h-.13c.27,6.12.58,12.01.92,17.65h.14c1.14,0,2.27,0,3.4,0h.99c.8,0,1.6,0,2.39-.01,1.51,0,3.01-.01,4.5-.02,1.87-.01,3.73-.02,5.58-.04,4.81-.04,9.58-.1,14.31-.17,1.28-.02,2.55-.04,3.83-.06,1.58-.03,3.15-.05,4.71-.08,3.13-.06,6.25-.12,9.35-.19.61-.02,1.22-.03,1.83-.04.17,0,.33,0,.5,0,.07,0,.13,0,.2-.01.32-.01.64-.02.96-.02.39-.01.77-.02,1.15-.03,1.62-.04,3.23-.08,4.84-.12.57-.02,1.13-.03,1.69-.04.44-.02.88-.03,1.32-.04,1.33-.04,2.65-.08,3.97-.11.88-.03,1.76-.06,2.64-.08,1.59-.05,3.18-.1,4.77-.15-.03-.33-.07-.67-.1-1.01-6.53.02-12.98-.02-19.29-.14-5.53-.1-10.95-.25-16.23-.47-7.11-.29-14.81-.49-20.83-1.99-8.8-2.2,2-9.58,14.25-10.69,7.6-.7,14.68-1.31,21.48-1.91,6.51-.58,12.77-1.14,19.04-1.71m4.57,42.95c-6.76-.01-13.29-.08-19.47-.24-8.3-.22-15.96-.6-22.69-1.18-5.75-.5-11.63-1.35-16.09-2.85-3.87-1.3-3.09-5.64,0-7.12,2.85-1.37,6.79-2.51,11.08-3.06-.97,0-1.94,0-2.91-.01-1.99.01-4,0-6.01-.01-6.32-.03-12.7-.1-19.15-.22h-.14c.42,6.09.88,11.81,1.38,17.1h.14c18.28.06,36.49-.01,54.69-.28,6.46-.1,12.93-.22,19.39-.37-.07-.58-.15-1.17-.22-1.76Zm32.06,22.34c-.58.01-1.15.01-1.73.01h-.07c-37.24.24-77.21-.15-83.39-3.24-1.05-.53-.63-1.46.37-2,1.67-.91,4.26-1.59,6.94-1.99,6.95-1.05,14.36-1.55,21.57-2.28,2.13-.22,4.27-.43,6.41-.64,6.07-.62,12.14-1.22,18.21-1.82-2.27.08-4.53.16-6.8.23-3.86.13-7.72.24-11.58.33-3.33.08-6.65.15-9.97.21-1.85.03-3.7.06-5.55.09-2.25.03-4.49.06-6.73.08-7.74.07-15.42.08-23.02.03h-.02c-3.23-.03-6.44-.06-9.63-.11h-.15c.56,4.82,1.16,9.19,1.8,13.04h.14c4.29-.05,8.57-.11,12.86-.17,4.27-.06,8.54-.12,12.81-.19h.3c8.59-.14,17.18-.29,25.76-.45,4.32-.08,8.63-.17,12.95-.26,4.49-.09,8.97-.18,13.46-.28,5.38-.12,10.76-.24,16.14-.37,1.27-.03,2.55-.06,3.82-.09,1.31-.03,2.62-.06,3.93-.09h.11c.46-.02.9-.03,1.36-.04h-.3Zm-78.24,14.58c-2.13-.96-5.1-3.13-2.2-3.7,4.68-.92,9.62-1.56,14.7-2.08.02,0,.04,0,.06,0-12.12.18-24.16.36-36.08.53h-.14c.45,1.97.93,3.72,1.42,5.23,1.67,1.62,7.72,3.45,12.13,4.22h.13c.19,0,.38.01.58.01h.01c11.84-.13,23.67-.29,35.49-.47,11.77-.18,23.54-.38,35.31-.61-27.42-.33-57.01-1.11-61.41-3.12Z"/>
        <path class="cls-22" d="m8.98,55.12c.26-6.34.53-11.93.79-16.63,4.42-4.1,21.82-11.47,30.72-13.81C179.01,10.5,369.54,3.47,541.52,3.47s360.67,7.32,501.02,21.22c7.47,1.85,26.03,9.57,30.74,13.8.32,7.82.59,18.39.82,31.06-2.14-9.62-4.95-18.76-9.69-28.82-8.12-4.1-17.59-7.6-28.15-10.61-20.86-1.78-41.19-3.37-62.94-4.91-9.06-.96-19.91-2.36-30.98-3.55-3.48-.37-15.46-.22-24.05-.08-18.7-1.14-34.27-2.01-53.6-2.98-18.86-.95-36.86-2.98-56.59-4.5-6.22-.48-20.52-.35-36.45.47C510.77,5.2,240.33,11.65,47.89,30.11c-13.07,3.23-21.43,6.4-28.88,10.61-3.58,5.26-6.77,9.89-10.03,14.39h0Z"/>
        <path class="cls-2" d="m1021.6,191.24c-.06-9.57-.17-19.15-.31-28.75-.03-2.37-.07-4.74-.12-7.11-.13-8.41-.29-16.85-.48-25.32-.05-2.14-.1-4.28-.15-6.43-.1-4.49-.21-8.98-.33-13.49-1.6-1.05-10.7-.98-17.23-.48-.4.03-.8.07-1.18.1.07,2.05.15,4.09.21,6.14.08,2.09.15,4.19.21,6.29.05,1.7.11,3.4.16,5.1.05,1.41.09,2.83.13,4.24.02.77.04,1.54.07,2.31.05,1.98.1,3.95.15,5.92.18,6.57.33,13.14.45,19.7,0,.28.01.56.01.84.05,2.55.1,5.1.13,7.65.01.54.02,1.09.03,1.64.03,1.8.06,3.6.08,5.4.03,2.48.06,4.96.09,7.44.02,1.64.03,3.28.04,4.92.02,1.67.03,3.34.04,5.01.02,1.93.03,3.86.03,5.79.01.11.01.21.01.32,0,.05,0,.1-.01.15.01.21.01.41.01.61.02,4.92.02,9.83.01,14.75,0,1.47,0,2.94-.01,4.41-.01,3.08-.03,6.16-.05,9.24-.02,3.09-.05,6.17-.09,9.25-.03,2.62-.06,5.24-.1,7.85-.07,4.55-.15,9.1-.24,13.64-.11,5.17-.24,10.33-.38,15.5-.08,3.05-.17,6.09-.27,9.14-.01.27-.02.53-.02.79-.07,2.03-.14,4.06-.21,6.09-.13,3.86-.28,7.72-.43,11.59-.1,2.25-.19,4.49-.29,6.74-.08,1.89-.16,3.78-.25,5.66-.03.55-.05,1.1-.08,1.64-.07,1.53-.14,3.06-.22,4.6-.11,2.24-.22,4.48-.34,6.72s-.25,4.48-.37,6.72c-.05,1.04-.11,2.09-.17,3.13-.07,1.11-.13,2.21-.2,3.32-.06,1.02-.12,2.04-.18,3.06-.28,4.69-.58,9.37-.9,14.06,6.05.28,17.85-.44,18.9-1.6.26-4.4.5-8.8.73-13.19.11-2.07.22-4.13.32-6.19.3-5.94.57-11.87.81-17.79.1-2.4.2-4.81.29-7.21h0c.24-6.24.45-12.46.63-18.68.07-1.98.12-3.95.18-5.92.22-7.93.4-15.85.53-23.76.08-3.87.14-7.73.18-11.6.21-15.07.28-30.14.24-45.22,0-4.91-.02-9.82-.06-14.73Zm-22.76,166.03c-.16,2.31-.32,4.62-.48,6.94-.33,4.58-.67,9.16-1.03,13.74h-.01c0,.11-.01.21-.02.32-.14,1.79-.28,3.58-.43,5.36v.02c-.25,3.05-.5,6.11-.77,9.16-.15,1.72-.3,3.43-.45,5.14-.23,2.61-.47,5.21-.72,7.82-.15,1.71-.32,3.41-.48,5.12-.08.79-.15,1.58-.23,2.37-9.39.23-18.78.45-28.17.66-9.18.21-18.35.42-27.52.61-8.37.18-16.74.35-25.1.51-4.44.09-8.89.18-13.33.26-3.76.08-7.53.15-11.29.22-9.17.17-18.33.34-27.5.49-4.24.07-8.47.14-12.71.21-5.26.09-10.51.17-15.77.25h-.01s-.01.01-.02,0t-.02,0s-.01.01-.02,0t-.02,0s-.03.01-.04,0c-.01.01-.02.01-.03,0t-.02,0s-.01.01-.02,0h-.01c-11.52.18-23.05.35-34.58.51-11.52.15-23.04.3-34.57.44-11.53.13-23.05.26-34.57.37-11.53.12-23.06.22-34.58.31-.05.01-.09.01-.13,0-.03.01-.05.01-.07,0-.02.01-.03.01-.04,0-.01.01-.02.01-.03,0h-.01c-3.28.04-6.54.06-9.81.08-4.25.03-8.49.07-12.73.09-1.43.02-2.85.03-4.27.02-5.63.05-11.26.08-16.88.11h0c-.06.01-.09.01-.14,0-.53.01-1.06.02-1.59.01-4.8.04-9.61.06-14.41.08-1.11.01-2.22.02-3.32.01-2.18.02-4.35.03-6.52.03-6.73.03-13.47.06-20.2.08-6.73.02-13.46.04-20.2.05-5.54.02-11.08.03-16.63.03-9.1.02-18.21.03-27.32.02h-3.2c-39.47.66-78.45,1.66-117.27,2.81h-.71c-59.04-.36-129.53-.98-190.34-2h-.25c-77.69-1.31-139.5-3.29-141.22-6.25-.12-.87-.25-1.74-.37-2.61-.39-2.85-.78-5.71-1.15-8.57h0c-.07-.59-.15-1.18-.22-1.77-.65-5.07-1.26-10.14-1.83-15.22-.37-3.26-.72-6.53-1.06-9.8h0c-.03-.34-.07-.68-.1-1.02-.57-5.63-1.1-11.27-1.58-16.91-.01-.04-.01-.09-.01-.13h0c-.23-2.57-.44-5.12-.63-7.68-.03-.27-.05-.55-.06-.83h0s-.01-.01-.01-.01c-.04-.51-.08-1.01-.11-1.52-.59-7.63-1.1-15.27-1.54-22.91-.04-.67-.07-1.34-.11-2.01h0c-.14-2.57-.28-5.14-.4-7.7t0-.02c-.1-1.93-.19-3.86-.28-5.79-.98-22-1.41-44.05-1.41-66.12,0-3,0-6.01.03-9.01,0-.98.01-1.95.01-2.92.02-3.13.05-6.27.09-9.4.04-3.56.09-7.13.16-10.7,0-.11,0-.22.01-.33,0-.26,0-.52.01-.79,0-.52.02-1.04.03-1.57v-.03c.03-1.72.06-3.44.1-5.16,0-.7.03-1.4.05-2.1.01-.74.03-1.48.05-2.22v-.02c.02-1,.05-2,.07-3.01.11-4.53.24-9.07.38-13.6.05-1.74.1-3.48.16-5.22.07-2,.14-4.01.21-6.01.04-1.49.1-2.98.16-4.47.09-2.52.19-5.05.29-7.57,0-.23.02-.46.03-.69.01-.11.01-.23.01-.35s0-.24.01-.35c-.13,0-.26.01-.39.02-6.11.24-13.55,1.62-18.22,2.77-.08,2.27-.16,4.55-.24,6.82h0c0,.1,0,.19,0,.27-.36,10.2-.66,20.39-.9,30.57-.04,1.24-.07,2.49-.09,3.73v.03c-.08,3.17-.14,6.34-.19,9.5,0,.01,0,.02,0,.03-.03,1.16-.05,2.32-.07,3.47-.52,30.46-.43,60.81.66,90.95.11,3.13.24,6.25.38,9.37h0c.11,2.73.24,5.45.37,8.17h0c.06,1.25.13,2.49.19,3.72.38,7.16.82,14.3,1.32,21.42.04.56.08,1.13.13,1.69h0c.2,2.89.42,5.76.66,8.63h0c.01.27.03.53.06.79.4,5.03.85,10.05,1.33,15.06.05.56.1,1.13.16,1.69h0c.31,3.26.64,6.5.99,9.75.52,4.84,1.08,9.67,1.66,14.5.1.79.2,1.58.3,2.37h0c.37,2.95.75,5.88,1.16,8.81.05.42.1.84.17,1.26.35,2.67.73,5.34,1.12,8,7.01.11,14.01.22,21.02.33s14.02.21,21.03.31c14.02.21,28.04.4,42.07.59h.15c7.26.1,14.52.19,21.78.27,9.14.12,18.28.23,27.42.33,7.79.09,15.59.18,23.38.26,7.79.09,15.58.17,23.37.24,33.78.33,67.56.6,101.34.82h.46c.72.01,1.44.01,2.16.01,12.61.08,25.21.15,37.82.22,6.05.03,12.09.06,18.13.08,5.96.03,11.93.05,17.89.07,9.25.03,18.49.06,27.74.09,13.97.04,27.94.07,41.91.09,13.58.02,27.16.03,40.75.03s26.29-.01,39.43-.03c14.77-.02,29.55-.05,44.33-.09,11.56-.03,23.13-.07,34.7-.12h.56c12.98-.05,25.97-.11,38.95-.18,13.52-.07,27.03-.15,40.54-.24,23.09-.15,46.19-.33,69.28-.53,5.55-.05,11.1-.1,16.65-.16,9.08-.08,18.17-.17,27.25-.27,1.37-.01,2.74-.02,4.11-.04h.2c25.6-.27,51.19-.56,76.77-.9.03,0,.06,0,.09,0,5.81-.07,11.61-.15,17.41-.23,5.82-.07,11.64-.15,17.46-.24,3.24-.04,6.47-.09,9.7-.14,12.86-.18,25.71-.37,38.57-.57.28-2.93.54-5.83.8-8.7.16-1.75.32-3.49.47-5.23.22-2.54.44-5.07.65-7.6.14-1.65.28-3.3.41-4.94.26-3.16.51-6.32.75-9.49.14-1.83.27-3.67.4-5.51.32-4.33.61-8.7.9-13.14.1-1.71.21-3.43.31-5.16-2.53-1.32-12.56-2.83-18.83-3.48Zm21.19-258.24c-.07-2.53-.14-5.02-.22-7.5-.03-1.14-.06-2.27-.1-3.4-.09-2.84-.17-5.66-.26-8.47-.06-1.9-.12-3.8-.19-5.69-.07-2.02-.13-4.03-.2-6.05-.08-2.24-.15-4.49-.23-6.75-.06-1.79-.13-3.59-.19-5.4-.08-2.23-.16-4.48-.24-6.76-.04-1.24-.09-2.5-.13-3.76-.71-.31-1.43-.62-2.15-.92-2-.19-4.01-.38-6.02-.56-13.22-1.22-26.56-2.37-40.01-3.44-14.16-1.14-28.44-2.19-42.79-3.17-18.7-1.28-37.54-2.43-56.43-3.48h-.01c-32.13-1.77-64.44-3.21-96.57-4.37-23.02-.85-45.95-1.55-68.65-2.13-8.06-.21-16.08-.4-24.07-.58-46.62-1.04-93.35-1.58-140.05-1.58s-95.23.54-142.75,1.59c-61.31,1.35-122.67,3.55-183.49,6.84-31.15,1.69-62.43,3.66-93.44,6.06-18.42,1.43-36.75,3.01-54.9,4.78-.76.31-1.52.63-2.26.96-.03.66-.07,1.28-.1,1.89h0s0,.08-.01.12c-.27,5.08-.56,8.67-.84,14.22.91.64,4.32,1.42,8.22,2.02,3.14.48,6.6.84,9.32.93.01.01.03.01.04.01.02,0,.03,0,.04-.01.13.01.26.01.38.02-.34,0-.69.03-1.05.04-6.04.26-14.79,1.13-17.01,2.39-.13,2.54-.26,5.05-.39,7.54-.14,2.59-.27,5.15-.4,7.69-.17,3.17-.34,6.3-.51,9.41-.15,2.83-.3,5.65-.44,8.46,0,.03-.01.05-.01.08h0c-.14,2.75-.28,5.48-.42,8.21-.18,3.29-.34,6.58-.5,9.89-.14,2.71-.27,5.43-.41,8.18,0,.22-.01.44-.03.66-.36,7.82-.71,15.83-1.02,24.23,1.79,1.7,11.28,3.56,17.57,4.06.21.01.4.03.6.04.13,0,.26.01.38.02.17-4.08.34-8.16.52-12.24.04-.88.08-1.75.12-2.63.17-3.77.35-7.55.54-11.32.01-.24.02-.47.03-.7.02-.38.04-.75.06-1.12.02-.37.04-.74.06-1.12.13-2.72.27-5.45.41-8.17.03-.7.07-1.39.11-2.09.14-2.67.28-5.34.43-8,.06-1.18.12-2.36.19-3.54.08-1.55.17-3.11.26-4.66.02-.45.05-.9.07-1.34.13-2.33.27-4.65.4-6.97.18-3.14.36-6.27.55-9.4.16-2.75.32-5.5.49-8.25.19-3.13.38-6.26.58-9.39h0c.01-.31.03-.6.05-.9.27-4.36.54-8.71.81-13.06,13.1-1.21,26.17-2.37,39.25-3.48,32.34-2.75,64.69-5.19,97.42-7.32,99.89-6.46,203.37-9.94,321.08-9.94,31.37,0,61.68.25,91.15.75,25.94.43,51.23,1.05,76.04,1.85,39.15,1.27,77.08,2.98,114.41,5.1,19.41,1.1,38.65,2.32,57.82,3.64,17.3,1.19,34.54,2.47,51.78,3.83,12.57.99,25.16,2.03,37.76,3.11,9.52.82,19.06,1.66,28.62,2.52.02.35.04.71.06,1.06.11,2.13.23,4.26.33,6.39.11,1.94.21,3.87.3,5.81.1,1.84.19,3.68.28,5.52.01.32.03.64.04.95.05.84.09,1.69.12,2.53.03.63.07,1.25.09,1.87.04.63.07,1.25.1,1.87.06,1.26.11,2.51.17,3.76.03.7.06,1.39.09,2.09h0c.14,2.97.26,5.92.38,8.88.05,1.01.09,2.01.13,3.02.04.97.08,1.94.12,2.91.04.93.08,1.87.11,2.8.02.47.04.93.05,1.4.06,1.32.11,2.64.15,3.96.06,1.33.11,2.67.16,4,.25-.04.51-.07.78-.11,6.17-.93,15.35-2.88,17.62-4.59-.05-1.88-.1-3.75-.15-5.6Z"/>
        <path class="cls-28" d="m79.83,118.05c-.14,2.72-.28,5.45-.41,8.17-.02.38-.04.75-.06,1.12.01-.38.03-.75.05-1.12.14-2.73.28-5.45.42-8.17Z"/>
        <path class="cls-15" d="m76.46,209.5c-.01.27-.01.53-.01.79-.01.11-.01.22-.01.33v-.33c.01-.26.01-.53.02-.79Z"/>
        <path class="cls-20" d="m80.01,348.73c.01.28.03.56.06.83-.03-.28-.05-.56-.07-.83h0s.01-.01.01-.01"/>
        <path class="cls-4" d="m80.71,357.37s-.01-.09-.01-.13h0"/>
        <path class="cls-8" d="m694.04,418.1c-3.27.03-6.54.06-9.81.08-4.25.03-8.49.07-12.73.09-1.43.02-2.85.03-4.27.02-5.63.05-11.26.08-16.88.11h0c-.06.01-.09.01-.14,0-.53.01-1.06.02-1.59.01-4.81.03-9.61.06-14.41.08-1.11.01-2.22.02-3.32.01-2.18.02-4.35.03-6.52.03-6.73.03-13.47.06-20.2.08-6.73.02-13.46.04-20.2.05-5.54.02-11.08.03-16.63.03-9.1.02-18.21.03-27.32.02,50.37-.88,101.5-1.2,154.03-.61Z"/>
        <path class="cls-14" d="m997.33,377.95c-.01.1-.02.21-.03.32.01-.11.02-.21.02-.32h.01Z"/>
        <path class="cls-16" d="m998.85,357.18v.02c-.1-.01-.2-.02-.3-.03.1,0,.2.01.3.01Z"/>
        <path class="cls-9" d="m1000.67,326.84c-.11,2.24-.23,4.48-.36,6.72-.06,1.04-.12,2.08-.18,3.13.06-1.04.12-2.09.17-3.13.12-2.24.25-4.48.37-6.72Z"/>
        <path class="cls-27" d="m1001.62,105.33c-.04-1.32-.09-2.64-.15-3.96,0-.47-.03-.93-.05-1.4.02.47.04.93.06,1.4.05,1.32.1,2.64.14,3.96Z"/>
        <path class="cls-3" d="m1003.64,198.47v.76c0-.2,0-.4-.01-.61.01-.05.01-.1.01-.15Z"/>
        <path class="cls-22" d="m68.56,420.52c116.16,5.97,224.87,6.64,341.86,6.72,30.95.02,61.9-.2,92.84-.43,34.97-.25,69.93-.84,104.9-1,137.76-.64,266.87,2.27,404.81-5.29-314.65,4.9-629.77,5.06-944.42,0h0Z"/>
        <path class="cls-26" d="m994.22,413.26c-2.88,2.41-52.45,4.19-118,5.5h-.03c-26.61.54-55.86.99-85.68,1.37h-.24c-108.78,1.4-225.2,1.87-249.65,1.86-14.66,0-62.09-.11-121.08-.47,38.82-1.15,77.8-2.15,117.27-2.81h3.2c9.11.01,18.22,0,27.32-.02,5.55,0,11.09-.01,16.63-.03,6.74-.01,13.47-.03,20.2-.05,6.73-.02,13.47-.05,20.2-.08,2.17,0,4.34-.01,6.52-.03,1.1.01,2.21,0,3.32-.01,4.8-.02,9.6-.05,14.41-.08.53.01,1.06,0,1.59-.01.05.01.08.01.14,0h0c5.62-.03,11.25-.06,16.88-.11,1.42.01,2.84,0,4.27-.02,4.24-.02,8.48-.06,12.73-.09,3.27-.02,6.54-.05,9.81-.08h.01s.02.01.03,0c.01.01.02.01.04,0,.02.01.04.01.07,0,.04.01.08.01.13,0,11.52-.09,23.05-.19,34.58-.31,11.52-.11,23.05-.23,34.57-.37,11.52-.13,23.04-.28,34.57-.44,11.52-.15,23.05-.32,34.58-.51h.01s.01.01.02,0t.02,0s.02.01.03,0c.01.01.03.01.04,0t.02,0s.01.01.02,0t.02,0s.01.01.02,0h.01c5.26-.08,10.51-.16,15.77-.25,4.24-.07,8.47-.14,12.71-.21,9.17-.15,18.33-.32,27.5-.49,3.76-.07,7.53-.14,11.29-.22,4.44-.08,8.89-.16,13.33-.26,8.36-.16,16.73-.33,25.1-.51,9.17-.19,18.34-.4,27.52-.61,9.39-.21,18.78-.43,28.17-.66Z"/>
        <path class="cls-11" d="m5.64,412.75c-.46,6.05,1.45,20.72,3.11,25.4,6.07,4.94,15.43,9.9,26.05,12.37,155.74,2.04,515.3,7.38,730.18.87-241.84-1.64-491.21-5.45-733-7.63-6-1.2-11.4-3.21-17.63-6.26-3.47-3.57-7.17-17.99-8.71-24.74h0Z"/>
        <path class="cls-18" d="m1003.76,214.49c0,1.47,0,2.94-.01,4.41-.01,3.08-.03,6.16-.05,9.24-.02,3.09-.05,6.17-.09,9.25-.03,2.62-.06,5.24-.1,7.85-.07,4.55-.15,9.1-.24,13.64-.11,5.17-.24,10.33-.38,15.5-.08,3.05-.17,6.09-.27,9.14-.01.27-.02.53-.02.79-.07,2.03-.14,4.06-.21,6.09-.13,3.86-.28,7.72-.43,11.59-.1,2.25-.19,4.49-.29,6.74-.08,1.89-.16,3.78-.25,5.66-.03.55-.05,1.1-.08,1.64-.07,1.53-.14,3.06-.22,4.6-.11,2.24-.22,4.48-.34,6.72-.12,2.24-.25,4.48-.37,6.72-.05,1.04-.11,2.09-.17,3.13-.07,1.11-.13,2.21-.2,3.32-.06,1.02-.12,2.04-.18,3.06-.28,4.69-.58,9.37-.9,14.06v.05c-.1,0-.2-.01-.3-.01.1.01.2.02.3.03-.01.02-.01.04-.01.07-.16,2.31-.32,4.62-.48,6.94-.33,4.58-.67,9.16-1.03,13.74h-.01c0,.11-.01.21-.02.32-.14,1.79-.28,3.58-.43,5.36v.02c-.25,3.05-.5,6.11-.77,9.16-.15,1.72-.3,3.43-.45,5.14-.23,2.61-.47,5.21-.72,7.82-.15,1.71-.32,3.41-.48,5.12-.08.79-.15,1.58-.23,2.37-9.39.23-18.78.45-28.17.66-9.18.21-18.35.42-27.52.61-8.37.18-16.74.35-25.1.51-4.44.09-8.89.18-13.33.26-3.76.08-7.53.15-11.29.22-9.17.17-18.33.34-27.5.49-4.24.07-8.47.14-12.71.21-5.26.09-10.51.17-15.77.25h-.01s-.01,0-.02,0t-.02,0s-.01,0-.02,0t-.02,0s-.03,0-.04,0c-.01,0-.02,0-.03,0t-.02,0s-.01,0-.02,0h-.01c-11.52.18-23.05.35-34.58.51-11.52.15-23.04.3-34.57.44-11.53.13-23.05.26-34.57.37-11.53.12-23.06.22-34.58.31-.05,0-.09,0-.13,0-.03,0-.05,0-.07,0-.02,0-.03,0-.04,0-.01,0-.02,0-.03,0h0c-52.53-.59-103.66-.27-154.03.61h-3.2c-39.47.66-78.45,1.66-117.27,2.81h-.71c-59.04-.36-129.53-.98-190.34-2h-.25c-77.69-1.31-139.5-3.29-141.22-6.25-.12-.87-.25-1.74-.37-2.61-.39-2.85-1.3-9.75-1.37-10.34-.65-5.07-1.26-10.14-1.83-15.22-.37-3.26-1.13-10.48-1.16-10.82-.57-5.63-1.1-11.27-1.58-16.91,1.57-.14,4.65-.43,5.72-.53-.73.04-2.27.15-3.19.22-.04,0-.09.01-.13.01-.24.02-.48.04-.71.05-.17.01-.33.02-.5.03-.04,0-.07,0-.11.01-.08,0-.16,0-.24.02-.28.01-.57.03-.85.05-.23-2.56-.44-5.11-.63-7.67-.03-.27-.05-.55-.06-.83.91-.05,1.82-.11,2.74-.17-.91.05-1.83.11-2.74.16h-.01c-.04-.51-.08-1.01-.11-1.52-.59-7.63-1.1-15.27-1.54-22.91-.04-.67-.07-1.34-.11-2.01h0c-.14-2.57-.28-5.14-.4-7.7t0-.02c-.1-1.93-.19-3.86-.28-5.79-.98-22-1.41-44.05-1.41-66.12,0-3,.01-6.01.03-9.01,0-.98.01-1.95.01-2.92.02-3.13.05-6.27.09-9.4.04-3.56.09-7.13.16-10.7,0-.11,0-.22.01-.33,0-.26,0-.52.01-.79.01-.52.02-1.04.03-1.57v-.03c.03-1.72.06-3.44.1-5.16.01-.7.03-1.4.05-2.1.01-.74.03-1.48.05-2.22v-.02c.02-1,.05-2,.07-3.01.11-4.53.24-9.07.38-13.6.05-1.74.1-3.48.16-5.22.07-2,.14-4.01.21-6.01.05-1.49.1-2.98.16-4.47.09-2.52.19-5.05.29-7.57.01-.23.02-.46.03-.69.01-.11.01-.23.01-.35s.01-.24.02-.35h0c.02-.6.04-1.19.07-1.78.17-4.08.34-8.16.52-12.24.04-.88.08-1.75.12-2.63.17-3.77.35-7.55.54-11.32.01-.24.02-.47.03-.7.02-.38.04-.75.06-1.12.02-.37.04-.74.06-1.12.13-2.72.27-5.45.41-8.17.03-.7.07-1.39.11-2.09.14-2.67.28-5.34.43-8,.06-1.18.12-2.36.19-3.54.08-1.55.17-3.11.26-4.66.02-.45.05-.9.07-1.34.13-2.33.27-4.65.4-6.97.18-3.14.36-6.27.55-9.4.16-2.75,1.66-27.25,1.93-31.6,13.1-1.21,26.17-2.37,39.25-3.48,32.34-2.75,64.69-5.19,97.42-7.32,99.89-6.46,203.37-9.94,321.08-9.94,31.37,0,61.68.25,91.15.75,25.94.43,51.23,1.05,76.04,1.85,39.15,1.27,77.08,2.98,114.41,5.1,19.41,1.1,38.65,2.32,57.82,3.64,17.3,1.19,34.54,2.47,51.78,3.83,12.57.99,25.16,2.03,37.76,3.11,9.52.82,19.06,1.66,28.62,2.52.02.35.04.71.06,1.06.11,2.13.23,4.26.33,6.39.11,1.94.21,3.87.3,5.81.1,1.84.19,3.68.28,5.52.01.32.03.64.04.95.05.84.09,1.69.12,2.53.03.63.07,1.25.09,1.87.03.63.06,1.25.09,1.87.06,1.26.12,2.51.18,3.76.03.7.06,1.39.09,2.09h0c.14,2.97.26,5.92.38,8.88.05,1.01.09,2.01.13,3.02.04.97.08,1.94.12,2.91.04.93.08,1.87.11,2.8.02.47.04.93.05,1.4.06,1.32.11,2.64.15,3.96.06,1.33.32,8.52.39,10.57.08,2.09.15,4.19.21,6.29.05,1.7.11,3.4.16,5.1.05,1.41.09,2.83.13,4.24.02.77.04,1.54.06,2.31.06,1.98.11,3.95.16,5.92.17,6.57.32,13.13.45,19.7,0,.28.01.56.01.84.05,2.55.1,5.1.13,7.65.01.54.02,1.09.03,1.64.03,1.8.06,3.6.08,5.4.03,2.48.06,4.96.09,7.44.02,1.64.03,3.28.04,4.92.02,1.67.03,3.34.04,5.01.02,1.93.03,3.86.03,5.79.01.11.01.21.01.32,0,.05,0,.1-.01.15.01.21.01.41.01.61.02,4.92.02,9.83.01,14.75Z"/>
      </g>
    </g>
  </g>
</svg>